<svg width="325" height="153" viewBox="0 0 325 153" fill="none" xmlns="http://www.w3.org/2000/svg">
<path d="M301.29 4.79511C202.506 -1.59856 123.364 -1.59823 24.5792 4.79526C11.499 5.64182 1.36719 16.5377 1.36719 29.6452V123.355C1.36719 136.462 11.499 147.358 24.5791 148.205C123.364 154.598 202.506 154.598 301.29 148.205C314.37 147.358 324.502 136.462 324.502 123.355V29.645C324.502 16.5375 314.37 5.64171 301.29 4.79511Z" fill="#333333"/>
<mask id="mask0_1591_14905" style="mask-type:alpha" maskUnits="userSpaceOnUse" x="0" y="0" width="324" height="153">
<path d="M274.28 3.62347C195.846 -0.6715 128.268 -0.671288 49.8334 3.62364C22.0246 5.1464 0.5 28.3421 0.5 56.1925V97.2107C0.5 125.061 22.0245 148.257 49.8332 149.779C128.268 154.075 195.846 154.075 274.28 149.779C302.089 148.257 323.614 125.061 323.614 97.2106V56.1923C323.614 28.3419 302.089 5.14624 274.28 3.62347Z" fill="#3F3F46"/>
</mask>
<g mask="url(#mask0_1591_14905)">
<ellipse cx="276.5" cy="86" rx="93" ry="91" fill="#FFFDFD" fill-opacity="0.04"/>
<ellipse cx="284" cy="83" rx="79.5" ry="83" fill="#FFFDFD" fill-opacity="0.04"/>
<ellipse cx="286.5" cy="91.5" rx="67" ry="70.5" fill="#FFFDFD" fill-opacity="0.04"/>
</g>
</svg>
