<svg width="29" height="28" viewBox="0 0 29 28" fill="none" xmlns="http://www.w3.org/2000/svg">
<path d="M24.7734 12.5996H23.5429C23.0244 8.14355 19.1572 4.56641 14.499 4.56641C11.9238 4.56641 9.58591 5.69141 7.96872 7.44922C7.53805 7.87109 7.55563 8.43359 7.90719 8.75879C8.26755 9.09277 8.7861 9.09277 9.22555 8.68848C10.5351 7.27344 12.416 6.38574 14.499 6.38574C18.208 6.38574 21.205 9.10156 21.706 12.5996H20.3613C19.6845 12.5996 19.5 13.1006 19.8955 13.6455L21.9961 16.6162C22.3213 17.0557 22.8134 17.0645 23.1299 16.6162L25.2392 13.6543C25.6347 13.1006 25.459 12.5996 24.7734 12.5996ZM4.22458 14.7178H5.46384C5.98239 19.1738 9.84958 22.751 14.499 22.751C17.0918 22.751 19.4297 21.6172 21.0468 19.8594C21.4687 19.4375 21.4511 18.875 21.0996 18.5498C20.7392 18.2158 20.2295 18.2158 19.7812 18.6289C18.4892 20.0439 16.6084 20.9316 14.499 20.9316C10.7988 20.9316 7.80173 18.2158 7.30075 14.7178H8.63669C9.30466 14.7178 9.49801 14.2168 9.10251 13.6719L6.99313 10.7012C6.67673 10.2617 6.18454 10.2529 5.86813 10.7012L3.75876 13.6631C3.35446 14.2168 3.53903 14.7178 4.22458 14.7178Z" fill="#D4D4D8"/>
</svg>
