<svg width="18" height="15" viewBox="0 0 18 15" fill="none" xmlns="http://www.w3.org/2000/svg">
<path d="M0.675781 7.64453C0.675781 7.9082 0.790039 8.17188 0.992188 8.36523L6.79297 14.1572C7.00391 14.3594 7.23242 14.4561 7.4873 14.4561C8.04102 14.4561 8.44531 14.0605 8.44531 13.5244C8.44531 13.2432 8.33984 13.0059 8.15527 12.8301L6.17773 10.8262L3.62891 8.49707L5.67676 8.62012H16.3291C16.9092 8.62012 17.3135 8.21582 17.3135 7.64453C17.3135 7.06445 16.9092 6.66016 16.3291 6.66016H5.67676L3.6377 6.7832L6.17773 4.4541L8.15527 2.4502C8.33984 2.27441 8.44531 2.03711 8.44531 1.75586C8.44531 1.21973 8.04102 0.824219 7.4873 0.824219C7.23242 0.824219 6.99512 0.920898 6.7666 1.14062L0.992188 6.91504C0.790039 7.1084 0.675781 7.37207 0.675781 7.64453Z" fill="#FAFAFA"/>
</svg>
