<svg width="17" height="18" viewBox="0 0 17 18" fill="none" xmlns="http://www.w3.org/2000/svg">
<path d="M2.8916 17.2119H13.5352C15.4424 17.2119 16.4268 16.2275 16.4268 14.3467V3.65039C16.4268 1.76953 15.4424 0.785156 13.5352 0.785156H2.8916C0.993164 0.785156 0 1.76074 0 3.65039V14.3467C0 16.2275 0.993164 17.2119 2.8916 17.2119ZM3.00586 15.4629C2.19727 15.4629 1.74902 15.041 1.74902 14.1885V3.80859C1.74902 2.95605 2.19727 2.53418 3.00586 2.53418H13.4209C14.2207 2.53418 14.6777 2.95605 14.6777 3.80859V14.1885C14.6777 15.041 14.2207 15.4629 13.4209 15.4629H3.00586ZM8.33203 14.0391C8.56934 14.0391 8.74512 13.8633 8.74512 13.626V13.0459H8.9209C10.5469 13.0459 11.5752 12.1582 11.5752 10.752C11.5752 9.81152 10.9863 9.07324 10.0986 8.80957C10.7402 8.50195 11.1885 7.8252 11.1885 7.0957C11.1885 5.90039 10.2832 5.04785 8.90332 5.04785H8.74512V4.40625C8.74512 4.16895 8.56934 3.99316 8.33203 3.99316C8.10352 3.99316 7.92773 4.16895 7.92773 4.40625V5.04785H6.58301C6.12598 5.04785 5.80957 5.35547 5.80957 5.83887V12.2637C5.80957 12.7471 6.11719 13.0459 6.5918 13.0459H7.92773V13.626C7.92773 13.8633 8.10352 14.0391 8.33203 14.0391ZM7.14551 8.3877L7.1543 6.18164H7.92773V8.3877H7.14551ZM8.74512 8.34375V6.19922C9.47461 6.26074 9.87891 6.62988 9.87891 7.23633C9.87891 7.86035 9.4834 8.24707 8.74512 8.34375ZM7.1543 11.9033V9.47754H7.92773V11.9033H7.1543ZM8.74512 11.8945V9.48633C9.72949 9.53906 10.2305 9.94336 10.2305 10.6816C10.2305 11.4375 9.73828 11.8506 8.74512 11.8945Z" fill="#D4D4D8" fill-opacity="0.78"/>
</svg>
