<svg width="18" height="18" viewBox="0 0 18 18" fill="none" xmlns="http://www.w3.org/2000/svg">
<path d="M0.861328 6.14648C1.42383 6.14648 1.72266 5.83887 1.72266 5.27637V3.29004C1.72266 2.4375 2.1709 2.01562 2.98828 2.01562H5.01855C5.58105 2.01562 5.88867 1.70801 5.88867 1.1543C5.88867 0.600586 5.58105 0.292969 5.01855 0.292969H2.88281C0.984375 0.292969 0 1.26855 0 3.14062V5.27637C0 5.83887 0.307617 6.14648 0.861328 6.14648ZM16.5498 6.14648C17.1123 6.14648 17.4111 5.83887 17.4111 5.27637V3.14062C17.4111 1.26855 16.4268 0.292969 14.5283 0.292969H12.3926C11.8301 0.292969 11.5225 0.600586 11.5225 1.1543C11.5225 1.70801 11.8301 2.01562 12.3926 2.01562H14.4229C15.2314 2.01562 15.6885 2.4375 15.6885 3.29004V5.27637C15.6885 5.83887 15.9961 6.14648 16.5498 6.14648ZM8.71875 13.8105C11.3467 13.8105 13.5176 11.6396 13.5176 8.98535C13.5176 6.375 11.3379 4.21289 8.71875 4.21289C6.08203 4.21289 3.90234 6.375 3.90234 8.98535C3.90234 11.6484 6.06445 13.8105 8.71875 13.8105ZM8.71875 12.5713C6.75 12.5713 5.13281 10.9629 5.13281 8.98535C5.13281 7.05176 6.75879 5.44336 8.71875 5.44336C10.6699 5.44336 12.2783 7.05176 12.2783 8.98535C12.2783 10.9629 10.6787 12.5713 8.71875 12.5713ZM8.71875 11.3936C10.0195 11.3936 11.0918 10.3213 11.0918 9.00293C11.0918 7.70215 10.0195 6.62109 8.71875 6.62109C7.40039 6.62109 6.31934 7.70215 6.31934 9.00293C6.31934 10.3213 7.40039 11.3936 8.71875 11.3936ZM2.88281 17.7041H5.01855C5.58105 17.7041 5.88867 17.3965 5.88867 16.8428C5.88867 16.2891 5.58105 15.9814 5.01855 15.9814H2.98828C2.1709 15.9814 1.72266 15.5596 1.72266 14.6982V12.7119C1.72266 12.1494 1.41504 11.8418 0.861328 11.8418C0.298828 11.8418 0 12.1494 0 12.7119V14.8477C0 16.7285 0.984375 17.7041 2.88281 17.7041ZM12.3926 17.7041H14.5283C16.4268 17.7041 17.4111 16.7285 17.4111 14.8477V12.7119C17.4111 12.1494 17.1035 11.8418 16.5498 11.8418C15.9873 11.8418 15.6885 12.1582 15.6885 12.7119V14.6982C15.6885 15.5596 15.2314 15.9814 14.4229 15.9814H12.3926C11.8301 15.9814 11.5225 16.2891 11.5225 16.8428C11.5225 17.3965 11.8301 17.7041 12.3926 17.7041Z" fill="#D4D4D8" fill-opacity="0.78"/>
</svg>
