<svg width="51" height="62" viewBox="0 0 51 62" fill="none" xmlns="http://www.w3.org/2000/svg">
<path d="M29.2061 61.7817C28.8659 61.7817 28.5705 61.6654 28.3198 61.4326C28.0871 61.2178 27.9438 60.9224 27.8901 60.5464C27.4784 57.6102 27.0308 55.1395 26.5474 53.1343C26.0819 51.147 25.4552 49.5088 24.6675 48.2197C23.8797 46.9307 22.8413 45.9012 21.5522 45.1313C20.2811 44.3615 18.6519 43.7438 16.6646 43.2783C14.6951 42.7949 12.2603 42.3652 9.35986 41.9893C8.96598 41.9535 8.65267 41.8102 8.41992 41.5596C8.18717 41.3089 8.0708 41.0046 8.0708 40.6465C8.0708 40.3063 8.18717 40.0109 8.41992 39.7603C8.65267 39.5096 8.96598 39.3664 9.35986 39.3306C12.2603 39.0083 14.7041 38.6234 16.6914 38.1758C18.6787 37.7282 20.3169 37.1105 21.606 36.3228C22.895 35.535 23.9334 34.4876 24.7212 33.1807C25.509 31.8737 26.1356 30.2176 26.6011 28.2124C27.0845 26.1893 27.5142 23.7007 27.8901 20.7466C27.9438 20.3885 28.0871 20.1021 28.3198 19.8872C28.5705 19.6545 28.8659 19.5381 29.2061 19.5381C29.5641 19.5381 29.8595 19.6545 30.0923 19.8872C30.325 20.1021 30.4772 20.3885 30.5488 20.7466C30.9248 23.7007 31.3455 26.1893 31.811 28.2124C32.2944 30.2176 32.9211 31.8737 33.6909 33.1807C34.4787 34.4876 35.5171 35.535 36.8062 36.3228C38.0952 37.1105 39.7334 37.7282 41.7207 38.1758C43.708 38.6234 46.1608 39.0083 49.0791 39.3306C49.4551 39.3664 49.7594 39.5096 49.9922 39.7603C50.2249 40.0109 50.3413 40.3063 50.3413 40.6465C50.3413 41.0046 50.2249 41.3089 49.9922 41.5596C49.7594 41.8102 49.4551 41.9535 49.0791 41.9893C46.1608 42.3115 43.708 42.6965 41.7207 43.144C39.7334 43.5916 38.0952 44.2093 36.8062 44.9971C35.5171 45.7669 34.4787 46.8053 33.6909 48.1123C32.9211 49.4193 32.2944 51.0843 31.811 53.1074C31.3455 55.1305 30.9248 57.6102 30.5488 60.5464C30.4772 60.9224 30.325 61.2178 30.0923 61.4326C29.8595 61.6654 29.5641 61.7817 29.2061 61.7817ZM10.998 32.0796C10.4609 32.0796 10.1566 31.7842 10.085 31.1934C9.87012 29.403 9.63737 27.9976 9.38672 26.9771C9.15397 25.9565 8.76904 25.1956 8.23193 24.6943C7.71273 24.1751 6.92497 23.7812 5.86865 23.5127C4.83024 23.2441 3.39795 22.9577 1.57178 22.6533C0.963053 22.5638 0.658691 22.2594 0.658691 21.7402C0.658691 21.2389 0.927246 20.9435 1.46436 20.854C3.30843 20.4959 4.75863 20.1826 5.81494 19.9141C6.87126 19.6276 7.66797 19.2337 8.20508 18.7324C8.74219 18.2311 9.13607 17.4881 9.38672 16.5034C9.63737 15.5008 9.87012 14.1043 10.085 12.314C10.1566 11.7231 10.4609 11.4277 10.998 11.4277C11.5352 11.4277 11.8395 11.7142 11.9111 12.2871C12.1439 14.0954 12.3766 15.5187 12.6094 16.5571C12.86 17.5955 13.245 18.3833 13.7642 18.9204C14.3013 19.4396 15.098 19.8245 16.1543 20.0752C17.2106 20.3258 18.6698 20.5854 20.5317 20.854C20.7645 20.8719 20.9525 20.9614 21.0957 21.1226C21.2568 21.2837 21.3374 21.4896 21.3374 21.7402C21.3374 22.2415 21.0688 22.5459 20.5317 22.6533C18.6698 23.0114 17.2106 23.3337 16.1543 23.6201C15.1159 23.8887 14.3281 24.2826 13.791 24.8018C13.2718 25.3031 12.8869 26.055 12.6362 27.0576C12.3856 28.0602 12.1439 29.4567 11.9111 31.2471C11.8753 31.4798 11.7769 31.6768 11.6157 31.8379C11.4546 31.999 11.2487 32.0796 10.998 32.0796ZM23.9961 13.603C23.6559 13.603 23.459 13.424 23.4053 13.0659C23.1904 11.9738 23.0024 11.1144 22.8413 10.4878C22.6981 9.86117 22.4653 9.38672 22.1431 9.06445C21.8387 8.72428 21.3643 8.45573 20.7197 8.25879C20.0752 8.06185 19.1711 7.86491 18.0073 7.66797C17.6493 7.59635 17.4702 7.39046 17.4702 7.05029C17.4702 6.72803 17.6493 6.53109 18.0073 6.45947C19.1711 6.24463 20.0752 6.04769 20.7197 5.86865C21.3643 5.67171 21.8387 5.41211 22.1431 5.08984C22.4653 4.74967 22.6981 4.26628 22.8413 3.63965C23.0024 3.01302 23.1904 2.15365 23.4053 1.06152C23.459 0.703451 23.6559 0.524414 23.9961 0.524414C24.3184 0.524414 24.5153 0.703451 24.5869 1.06152C24.7839 2.15365 24.9629 3.01302 25.124 3.63965C25.2852 4.26628 25.5179 4.74967 25.8223 5.08984C26.1445 5.41211 26.6279 5.67171 27.2725 5.86865C27.917 6.04769 28.8211 6.24463 29.9849 6.45947C30.3429 6.53109 30.522 6.72803 30.522 7.05029C30.522 7.39046 30.3429 7.59635 29.9849 7.66797C28.8211 7.86491 27.917 8.06185 27.2725 8.25879C26.6279 8.45573 26.1445 8.72428 25.8223 9.06445C25.5179 9.38672 25.2852 9.86117 25.124 10.4878C24.9629 11.1144 24.7839 11.9738 24.5869 13.0659C24.5153 13.424 24.3184 13.603 23.9961 13.603Z" fill="url(#paint0_linear_245_91)"/>
<defs>
<linearGradient id="paint0_linear_245_91" x1="25.5" y1="-2" x2="25.5" y2="68" gradientUnits="userSpaceOnUse">
<stop stop-color="#66AFFF"/>
<stop offset="1" stop-color="#007AFF"/>
</linearGradient>
</defs>
</svg>
