<svg width="61" height="61" viewBox="0 0 61 61" fill="none" xmlns="http://www.w3.org/2000/svg">
<circle cx="30.5" cy="30.5" r="30.5" fill="#D9D9D9"/>
<path fill-rule="evenodd" clip-rule="evenodd" d="M37.5273 23.0554C37.579 23.1457 37.6694 23.2102 37.7857 23.2102C40.8857 23.2102 43.4173 25.739 43.4173 28.8356V36.4996C43.4173 39.5961 40.8857 42.125 37.7857 42.125H23.2157C20.1027 42.125 17.584 39.5961 17.584 36.4996V28.8356C17.584 25.739 20.1027 23.2102 23.2157 23.2102C23.319 23.2102 23.4223 23.1586 23.4611 23.0554L23.5386 22.9005C23.5831 22.8068 23.6288 22.7106 23.6752 22.6129C24.0056 21.9168 24.3712 21.1468 24.5977 20.6942C25.1919 19.533 26.1994 18.8879 27.4523 18.875H33.5361C34.789 18.8879 35.8094 19.533 36.4036 20.6942C36.607 21.1006 36.9169 21.7553 37.2156 22.3862C37.2773 22.5165 37.3385 22.6457 37.3982 22.7715L37.5273 23.0554ZM36.5844 28.0099C36.5844 28.655 37.1011 29.1711 37.7469 29.1711C38.3927 29.1711 38.9223 28.655 38.9223 28.0099C38.9223 27.3647 38.3927 26.8357 37.7469 26.8357C37.1011 26.8357 36.5844 27.3647 36.5844 28.0099ZM28.2661 30.0097C28.8732 29.4033 29.6611 29.0807 30.5007 29.0807C31.3402 29.0807 32.1282 29.4033 32.7223 29.9968C33.3165 30.5903 33.6394 31.3774 33.6394 32.216C33.6265 33.9449 32.2315 35.3513 30.5007 35.3513C29.6611 35.3513 28.8732 35.0287 28.279 34.4352C27.6848 33.8417 27.3619 33.0547 27.3619 32.216V32.2031C27.349 31.3903 27.6719 30.6032 28.2661 30.0097ZM34.0786 35.8029C33.1615 36.7189 31.8957 37.2866 30.5007 37.2866C29.1444 37.2866 27.8786 36.7576 26.9098 35.8029C25.954 34.8352 25.4244 33.5708 25.4244 32.216C25.4115 30.8742 25.9411 29.6097 26.8969 28.6421C27.8657 27.6744 29.1444 27.1454 30.5007 27.1454C31.8569 27.1454 33.1357 27.6744 34.0915 28.6292C35.0473 29.5968 35.5769 30.8742 35.5769 32.216C35.564 33.6224 34.9957 34.8868 34.0786 35.8029Z" fill="white"/>
</svg>
