<svg width="32" height="30" viewBox="0 0 32 30" fill="none" xmlns="http://www.w3.org/2000/svg">
<path d="M20.25 6.375C20.25 8.653 16.556 10.5 12 10.5C7.444 10.5 3.75 8.653 3.75 6.375M20.25 6.375C20.25 4.097 16.556 2.25 12 2.25C7.444 2.25 3.75 4.097 3.75 6.375M20.25 6.375V17.625C20.25 19.903 16.556 21.75 12 21.75C7.444 21.75 3.75 19.903 3.75 17.625V6.375M20.25 6.375V10.125M3.75 6.375V10.125M20.25 10.125V13.875C20.25 16.153 16.556 18 12 18C7.444 18 3.75 16.153 3.75 13.875V10.125M20.25 10.125C20.25 12.403 16.556 14.25 12 14.25C7.444 14.25 3.75 12.403 3.75 10.125" stroke="#1A2CF5" stroke-width="1.5" stroke-linecap="round" stroke-linejoin="round"/>
<path d="M28.25 12.375C28.25 14.653 24.556 16.5 20 16.5C15.444 16.5 11.75 14.653 11.75 12.375M28.25 12.375C28.25 10.097 24.556 8.25 20 8.25C15.444 8.25 11.75 10.097 11.75 12.375M28.25 12.375V23.625C28.25 25.903 24.556 27.75 20 27.75C15.444 27.75 11.75 25.903 11.75 23.625V12.375M28.25 12.375V16.125V12.375ZM11.75 12.375V16.125V12.375ZM28.25 16.125V19.875C28.25 22.153 24.556 24 20 24C15.444 24 11.75 22.153 11.75 19.875V16.125M28.25 16.125C28.25 18.403 24.556 20.25 20 20.25C15.444 20.25 11.75 18.403 11.75 16.125" fill="#DADAE7"/>
<path d="M28.25 12.375C28.25 14.653 24.556 16.5 20 16.5C15.444 16.5 11.75 14.653 11.75 12.375M28.25 12.375C28.25 10.097 24.556 8.25 20 8.25C15.444 8.25 11.75 10.097 11.75 12.375M28.25 12.375V23.625C28.25 25.903 24.556 27.75 20 27.75C15.444 27.75 11.75 25.903 11.75 23.625V12.375M28.25 12.375V16.125M11.75 12.375V16.125M28.25 16.125V19.875C28.25 22.153 24.556 24 20 24C15.444 24 11.75 22.153 11.75 19.875V16.125M28.25 16.125C28.25 18.403 24.556 20.25 20 20.25C15.444 20.25 11.75 18.403 11.75 16.125" stroke="#1A2CF5" stroke-width="1.5" stroke-linecap="round" stroke-linejoin="round"/>
</svg>
