<svg width="20" height="18" viewBox="0 0 20 18" fill="none" xmlns="http://www.w3.org/2000/svg">
<path d="M2.5126 12.8754L2.63745 13.0559C3.02814 13.6209 3.22352 13.9035 3.43298 14.1562C4.57113 15.5294 6.15758 16.4518 7.90945 16.7588C8.23186 16.8153 8.57293 16.8446 9.25506 16.9033L9.60777 16.9337C10.7368 17.0309 11.8725 17.0212 12.9998 16.9048L13.3486 16.8687C15.3213 16.665 17.0503 15.4539 17.9234 13.6644C19.3589 10.7221 19.3589 7.27785 17.9234 4.33559C17.0503 2.54608 15.3213 1.33504 13.3486 1.13127L12.9998 1.09524C11.8725 0.978796 10.7368 0.969106 9.60777 1.0663L9.25506 1.09666C8.57293 1.15537 8.23186 1.18473 7.90945 1.24123C6.15758 1.54821 4.57113 2.47055 3.43298 3.8438C3.22353 4.09652 3.02812 4.3791 2.63745 4.94406L2.5126 5.12461C1.98145 5.89273 1.71585 6.27682 1.5313 6.66175C0.822899 8.13929 0.822899 9.86071 1.5313 11.3382C1.71585 11.7232 1.98144 12.1073 2.5126 12.8754Z" stroke="white" stroke-width="1.5"/>
<path d="M11.7678 10.7678L8.23229 7.23224M8.23229 10.7678L11.7678 7.23224" stroke="white" stroke-width="1.5" stroke-linecap="round"/>
</svg>
