<svg width="27" height="26" viewBox="0 0 27 26" fill="none" xmlns="http://www.w3.org/2000/svg">
<path d="M2.37822 8.8753H24.3718M1.98174 16.9391C1.33942 14.3523 1.33942 11.6477 1.98174 9.06093C2.82256 5.67479 5.50752 3.05667 8.9132 2.30202L9.48054 2.17631C12.0458 1.6079 14.7043 1.6079 17.2695 2.17631L17.8368 2.30202C21.2425 3.05667 23.9274 5.6748 24.7683 9.06094C25.4106 11.6477 25.4106 14.3523 24.7683 16.9391C23.9274 20.3252 21.2425 22.9433 17.8368 23.698L17.2695 23.8237C14.7043 24.3921 12.0457 24.3921 9.48054 23.8237L8.91319 23.698C5.50752 22.9433 2.82256 20.3252 1.98174 16.9391Z" stroke="white" stroke-width="2"/>
<path d="M7.125 13L12.125 13" stroke="white" stroke-width="2" stroke-linecap="round"/>
</svg>
