<svg width="14" height="14" viewBox="0 0 14 14" fill="none" xmlns="http://www.w3.org/2000/svg">
<path d="M7 0C5.61553 0 4.26216 0.410543 3.11101 1.17971C1.95987 1.94888 1.06266 3.04213 0.532846 4.32122C0.00303298 5.6003 -0.13559 7.00777 0.134506 8.36563C0.404603 9.7235 1.07129 10.9708 2.05026 11.9497C3.02922 12.9287 4.2765 13.5954 5.63437 13.8655C6.99224 14.1356 8.39971 13.997 9.67879 13.4672C10.9579 12.9373 12.0511 12.0401 12.8203 10.889C13.5895 9.73785 14 8.38447 14 7C14 5.14348 13.2625 3.36301 11.9498 2.05025C10.637 0.737498 8.85652 0 7 0V0ZM7 12C6.0111 12 5.0444 11.7068 4.22215 11.1573C3.39991 10.6079 2.75904 9.82705 2.38061 8.91342C2.00217 7.99979 1.90315 6.99445 2.09608 6.02455C2.289 5.05464 2.76521 4.16373 3.46447 3.46447C4.16373 2.7652 5.05465 2.289 6.02455 2.09607C6.99446 1.90315 7.99979 2.00216 8.91342 2.3806C9.82705 2.75904 10.6079 3.3999 11.1574 4.22215C11.7068 5.04439 12 6.01109 12 7C12 8.32608 11.4732 9.59785 10.5355 10.5355C9.59786 11.4732 8.32609 12 7 12V12Z" fill="#374957"/>
</svg>
