<svg width="8" height="8" viewBox="0 0 8 8" fill="none" xmlns="http://www.w3.org/2000/svg">
<path fill-rule="evenodd" clip-rule="evenodd" d="M0.611687 0.611824C0.90458 0.318931 1.37945 0.318931 1.67235 0.611824L3.97044 2.90992L6.26854 0.611824C6.56143 0.318931 7.03631 0.318931 7.3292 0.611824C7.62209 0.904717 7.62209 1.37959 7.3292 1.67248L5.0311 3.97058L7.3292 6.26868C7.62209 6.56157 7.62209 7.03645 7.3292 7.32934C7.03631 7.62223 6.56143 7.62223 6.26854 7.32934L3.97044 5.03124L1.67235 7.32934C1.37945 7.62223 0.90458 7.62223 0.611687 7.32934C0.318794 7.03644 0.318794 6.56157 0.611687 6.26868L2.90978 3.97058L0.611687 1.67248C0.318794 1.37959 0.318794 0.904717 0.611687 0.611824Z" fill="#363853"/>
</svg>
