<svg width="20" height="20" viewBox="0 0 20 20" fill="none" xmlns="http://www.w3.org/2000/svg">
<path d="M18.987 3.927L15.573 0.512939C15.242 0.181939 14.803 0 14.336 0H8.75C6.682 0 5 1.682 5 3.75V4H3.75C1.682 4 0 5.682 0 7.75V15.75C0 17.818 1.682 19.5 3.75 19.5H10.75C12.818 19.5 14.5 17.818 14.5 15.75V15.5H15.75C17.818 15.5 19.5 13.818 19.5 11.75V5.16394C19.5 4.69694 19.318 4.257 18.987 3.927ZM15.5 2.56006L16.939 3.99902H16.562C15.977 3.99902 15.5 3.52201 15.5 2.93701V2.56006ZM13 15.75C13 16.991 11.991 18 10.75 18H3.75C2.509 18 1.5 16.991 1.5 15.75V7.75C1.5 6.509 2.509 5.5 3.75 5.5H5V11.75C5 13.818 6.682 15.5 8.75 15.5H13V15.75ZM15.75 14H8.75C7.509 14 6.5 12.991 6.5 11.75V3.75C6.5 2.509 7.509 1.5 8.75 1.5H14V2.93799C14 4.35099 15.149 5.5 16.562 5.5H18V11.75C18 12.99 16.991 14 15.75 14Z" fill="white"/>
</svg>
