<svg width="22" height="12" viewBox="0 0 22 12" fill="none" xmlns="http://www.w3.org/2000/svg">
<path d="M0.93457 11.7656C0.712565 11.7656 0.522786 11.6868 0.365234 11.5293C0.207682 11.3646 0.128906 11.1676 0.128906 10.9385C0.128906 10.7165 0.207682 10.5267 0.365234 10.3691C0.522786 10.2116 0.712565 10.1328 0.93457 10.1328H21.0439C21.266 10.1328 21.4557 10.2116 21.6133 10.3691C21.778 10.5267 21.8604 10.7165 21.8604 10.9385C21.8604 11.1676 21.778 11.3646 21.6133 11.5293C21.4557 11.6868 21.266 11.7656 21.0439 11.7656H0.93457ZM0.93457 7.07129C0.712565 7.07129 0.522786 6.99251 0.365234 6.83496C0.207682 6.67741 0.128906 6.48763 0.128906 6.26562C0.128906 6.03646 0.207682 5.8431 0.365234 5.68555C0.522786 5.52083 0.712565 5.43848 0.93457 5.43848H21.0439C21.266 5.43848 21.4557 5.52083 21.6133 5.68555C21.778 5.8431 21.8604 6.03646 21.8604 6.26562C21.8604 6.48763 21.778 6.67741 21.6133 6.83496C21.4557 6.99251 21.266 7.07129 21.0439 7.07129H0.93457ZM0.93457 2.3877C0.712565 2.3877 0.522786 2.30892 0.365234 2.15137C0.207682 1.99382 0.128906 1.80404 0.128906 1.58203C0.128906 1.35286 0.207682 1.15951 0.365234 1.00195C0.522786 0.844401 0.712565 0.765625 0.93457 0.765625H21.0439C21.266 0.765625 21.4557 0.844401 21.6133 1.00195C21.778 1.15951 21.8604 1.35286 21.8604 1.58203C21.8604 1.80404 21.778 1.99382 21.6133 2.15137C21.4557 2.30892 21.266 2.3877 21.0439 2.3877H0.93457Z" fill="white"/>
</svg>
