<svg width="61" height="70" viewBox="0 0 61 70" fill="none" xmlns="http://www.w3.org/2000/svg">
<path d="M59.7729 14.8326C49.2737 11.2368 35.1754 4.03048 31.8311 0.548899C31.4974 0.202583 31.0418 0.00368421 30.5681 0C30.116 0 29.6352 0.187941 29.2944 0.530572C25.5985 4.27005 15.0922 11.2847 1.30617 15.2857C0.534696 15.5105 0 16.2326 0 17.0579C0 47.53 4.33464 62.3957 30.012 69.93C30.1735 69.9778 30.3384 70 30.5035 70C30.6686 70 30.8337 69.9778 30.9952 69.93C56.669 62.3994 61 47.3826 61 16.5789C61 15.7832 60.5049 15.0832 59.7729 14.8326ZM30.5035 66.2384C7.71462 59.3858 3.71374 46.3953 3.59174 18.4395C16.1219 14.5821 26.0003 8.33 30.5861 4.30316C35.4625 8.20473 47.5406 14.3573 57.4083 17.8942C57.2934 46.2331 53.3067 59.3784 30.5035 66.2384Z" fill="black"/>
<path d="M37.6 31.7818V28.0497C37.6 24.7143 34.6388 22 31 22C27.3612 22 24.4 24.7143 24.4 28.0497V31.7818C21.8451 32.6166 20 34.8349 20 37.4604V41.4936C20 44.829 22.9612 47.5433 26.6 47.5433H35.4C39.0388 47.5433 42 44.829 42 41.4936V37.4604C42 34.8349 40.1549 32.6166 37.6 31.7818ZM25.8667 28.0497C25.8667 25.4551 28.1693 23.3444 31 23.3444C33.8307 23.3444 36.1333 25.4551 36.1333 28.0497V31.4793C35.8899 31.4537 35.6508 31.4107 35.4 31.4107H26.6C26.3492 31.4107 26.1101 31.4537 25.8667 31.4793V28.0497ZM40.5333 41.4936C40.5333 44.0883 38.2307 46.199 35.4 46.199H26.6C23.7693 46.199 21.4667 44.0883 21.4667 41.4936V37.4604C21.4667 34.8658 23.7693 32.7551 26.6 32.7551H35.4C38.2307 32.7551 40.5333 34.8658 40.5333 37.4604V41.4936ZM31.7333 38.8048V41.4936C31.7333 41.8647 31.4048 42.1658 31 42.1658C30.5952 42.1658 30.2667 41.8647 30.2667 41.4936V38.8048C30.2667 38.4338 30.5952 38.1326 31 38.1326C31.4048 38.1326 31.7333 38.4324 31.7333 38.8048Z" fill="black" stroke="black" stroke-width="2"/>
</svg>
