<svg width="15" height="13" viewBox="0 0 15 13" fill="none" xmlns="http://www.w3.org/2000/svg">
<path d="M3.28857 12.542L4.46777 11.3628H13.8574C14.0186 11.3628 14.1553 11.4214 14.2676 11.5386C14.3848 11.6558 14.4434 11.7949 14.4434 11.9561C14.4434 12.1172 14.3848 12.2539 14.2676 12.3662C14.1553 12.4834 14.0186 12.542 13.8574 12.542H3.28857ZM2.55615 11.8682L0.864258 12.52C0.776367 12.5542 0.695801 12.5322 0.622559 12.4541C0.554199 12.3809 0.537109 12.3003 0.571289 12.2124L1.26709 10.5791L9.26514 2.5957L10.5469 3.88477L2.55615 11.8682ZM11.1914 3.25488L9.89502 1.96582L10.6348 1.2334C10.8203 1.05273 11.0083 0.955078 11.1987 0.94043C11.394 0.925781 11.5747 1.00146 11.7407 1.16748L11.9897 1.4165C12.1606 1.5874 12.2412 1.76807 12.2314 1.9585C12.2217 2.14893 12.1216 2.33936 11.9312 2.52979L11.1914 3.25488Z" fill="white"/>
</svg>
