<svg width="29" height="24" viewBox="0 0 29 24" fill="none" xmlns="http://www.w3.org/2000/svg">
<path d="M10.875 8.25H9.0625C8.34144 8.25 7.64992 8.48705 7.14005 8.90901C6.63019 9.33097 6.34375 9.90326 6.34375 10.5V19.5C6.34375 20.0967 6.63019 20.669 7.14005 21.091C7.64992 21.5129 8.34144 21.75 9.0625 21.75H19.9375C20.6586 21.75 21.3501 21.5129 21.8599 21.091C22.3698 20.669 22.6563 20.0967 22.6563 19.5V10.5C22.6563 9.90326 22.3698 9.33097 21.8599 8.90901C21.3501 8.48705 20.6586 8.25 19.9375 8.25H18.125M18.125 5.25L14.5 2.25M14.5 2.25L10.875 5.25M14.5 2.25V15" stroke="black" stroke-width="1.5" stroke-linecap="round" stroke-linejoin="round"/>
</svg>
