<svg width="82" height="82" viewBox="0 0 82 82" fill="none" xmlns="http://www.w3.org/2000/svg">
<path d="M9.04102 40.9994C9.04102 23.379 23.379 9.04102 40.9994 9.04102C58.6197 9.04102 72.9577 23.379 72.9577 40.9994C72.9577 58.6197 58.6197 72.9577 40.9994 72.9577C23.379 72.9577 9.04102 58.6197 9.04102 40.9994ZM11.4577 40.9994C11.4577 57.2894 24.7093 70.541 40.9994 70.541C57.2894 70.541 70.541 57.2894 70.541 40.9994C70.541 24.7093 57.2894 11.4577 40.9994 11.4577C24.7093 11.4577 11.4577 24.7093 11.4577 40.9994ZM43.0619 27.3327C43.0619 28.471 42.1377 29.3952 40.9994 29.3952C39.861 29.3952 38.9369 28.471 38.9369 27.3327C38.9369 26.1943 39.861 25.2702 40.9994 25.2702C42.1377 25.2702 43.0619 26.1943 43.0619 27.3327ZM42.2077 40.9994V54.666C42.2077 55.3329 41.6662 55.8744 40.9994 55.8744C40.3325 55.8744 39.791 55.3329 39.791 54.666V40.9994C39.791 40.3325 40.3325 39.791 40.9994 39.791C41.6669 39.791 42.2077 40.3297 42.2077 40.9994Z" fill="black" stroke="black"/>
</svg>
