<svg width="28" height="28" viewBox="0 0 28 28" fill="none" xmlns="http://www.w3.org/2000/svg">
<path d="M20.2782 9.99143H15.427C15.0502 9.99143 14.8251 9.90568 14.5321 9.65916L14.239 9.41265C13.8674 9.10182 13.5953 9 13.0458 9H11.5648C10.5809 9 10 9.5895 10 10.7203V12.2208H22V11.7385C22 10.5916 21.4086 9.99143 20.2782 9.99143ZM11.7218 19H20.4038C21.4139 19 22 18.3998 22 17.2529V12.9925H10V17.2529C10 18.4051 10.5914 19 11.7218 19Z" fill="#FAFAFA"/>
<path d="M4.02334 10.1754H5.9526V8.35283C5.9526 7.40741 6.44704 6.93957 7.33896 6.93957H9.14219V5H7.21293C5.11885 5 4.02334 6.08187 4.02334 8.17739V10.1754ZM27 10.1754V8.17739C27 6.08187 25.8948 5 23.8007 5H21.8715V6.93957H23.6747C24.5763 6.93957 25.061 7.40741 25.061 8.35283V10.1754H27ZM16.2194 6.93957H20.456V5H16.2194V6.93957ZM10.5673 6.93957H14.7943V5H10.5673V6.93957ZM27 16.6082V11.6082H25.061V16.6082H27ZM5.9526 13.655V11.6082H4.02334V13.6452C4.33357 13.5867 4.6535 13.5575 4.98312 13.5575C5.31275 13.5575 5.64237 13.5867 5.9526 13.655ZM4.99282 25C7.72675 25 9.98564 22.7193 9.98564 19.9708C9.98564 17.2222 7.71706 14.9513 4.98312 14.9513C2.24919 14.9513 0 17.2222 0 19.9708C0 22.7193 2.25889 25 4.99282 25ZM4.99282 23.7135C2.92783 23.7135 1.27971 22.0468 1.27971 19.9708C1.27971 17.9045 2.92783 16.2378 4.98312 16.2378C7.04811 16.2378 8.69623 17.9045 8.70592 19.9708C8.71562 22.0468 7.04811 23.7135 4.99282 23.7135ZM4.98312 22.8363C6.55368 22.8363 7.83339 21.54 7.83339 19.9805C7.83339 18.4113 6.54399 17.115 4.98312 17.115C3.42226 17.115 2.14255 18.4113 2.14255 19.9805C2.14255 21.54 3.43196 22.8363 4.98312 22.8363ZM23.8007 23.2164C25.8948 23.2164 27 22.1248 27 20.039V18.0312H25.061V19.8635C25.061 20.809 24.5763 21.2768 23.6747 21.2768H21.8715V23.2164H23.8007ZM16.2194 23.2164H20.456V21.2768H16.2194V23.2164ZM14.7943 21.2768H11.1878C11.0715 21.9688 10.8291 22.6218 10.4704 23.2066L14.7943 23.2164V21.2768Z" fill="#ECEDEE"/>
</svg>
