<svg width="15" height="16" viewBox="0 0 15 16" fill="none" xmlns="http://www.w3.org/2000/svg">
<path d="M3.89243 14.8557C3.74996 14.8556 3.61143 14.8078 3.49804 14.7196C3.38465 14.6314 3.30264 14.5076 3.26456 14.3672C3.22649 14.2268 3.23445 14.0775 3.28722 13.9421C3.33999 13.8068 3.43467 13.6928 3.55677 13.6178C5.86602 12.1992 5.86602 9.15273 5.86602 7.33286C5.86602 6.80246 6.07203 6.29379 6.43873 5.91874C6.80543 5.54369 7.30278 5.333 7.82137 5.333C8.33996 5.333 8.8373 5.54369 9.204 5.91874C9.5707 6.29379 9.77671 6.80246 9.77671 7.33286C9.77671 7.50965 9.70804 7.67921 9.58581 7.80423C9.46357 7.92924 9.29779 7.99948 9.12493 7.99948C8.95206 7.99948 8.78628 7.92924 8.66405 7.80423C8.54182 7.67921 8.47315 7.50965 8.47315 7.33286C8.47315 7.15606 8.40448 6.9865 8.28224 6.86148C8.16001 6.73647 7.99423 6.66624 7.82137 6.66624C7.6485 6.66624 7.48272 6.73647 7.36049 6.86148C7.23826 6.9865 7.16959 7.15606 7.16959 7.33286C7.16959 9.29739 7.16959 12.9551 4.22745 14.761C4.12621 14.823 4.01042 14.8557 3.89243 14.8557ZM7.12722 15.8029C8.61458 14.2697 9.48341 12.1139 9.70892 9.38938C9.71653 9.30198 9.70718 9.21391 9.68144 9.13021C9.65569 9.04652 9.61403 8.96884 9.55887 8.90165C9.50371 8.83445 9.43611 8.77905 9.35997 8.73863C9.28382 8.69821 9.20063 8.67356 9.11515 8.6661C9.02962 8.65713 8.9432 8.66585 8.86104 8.69176C8.77888 8.71766 8.70266 8.76022 8.63691 8.81688C8.57117 8.87355 8.51725 8.94317 8.47836 9.0216C8.43948 9.10003 8.41643 9.18566 8.41058 9.27339C8.20787 11.7112 7.4857 13.5398 6.20234 14.8603C6.08048 14.9858 6.01232 15.1556 6.01287 15.3324C6.01342 15.5093 6.08263 15.6786 6.20528 15.8033C6.32792 15.9279 6.49396 15.9976 6.66686 15.9971C6.83975 15.9965 7.00535 15.9257 7.12722 15.8003V15.8029ZM10.5165 15.6789C10.9118 15.0071 11.2411 14.2968 11.4994 13.5584C11.5534 13.3933 11.542 13.2131 11.4678 13.0564C11.3936 12.8997 11.2624 12.7789 11.1022 12.7199C10.9421 12.6608 10.7657 12.6682 10.6108 12.7405C10.4559 12.8127 10.3348 12.9441 10.2734 13.1065C10.0439 13.7611 9.75177 14.391 9.40128 14.987C9.35686 15.0619 9.32729 15.145 9.31428 15.2316C9.30126 15.3181 9.30504 15.4065 9.3254 15.4916C9.34577 15.5767 9.38232 15.6568 9.43297 15.7274C9.48362 15.7981 9.54738 15.8578 9.62061 15.9033C9.76849 15.995 9.94596 16.0229 10.114 15.9809C10.1972 15.96 10.2755 15.9226 10.3446 15.8708C10.4136 15.819 10.4721 15.7538 10.5165 15.6789ZM12.0579 11.4599C12.2994 10.0986 12.4086 8.71616 12.3838 7.33286C12.3832 6.38845 12.1024 5.46647 11.5786 4.68875C11.0548 3.91102 10.3125 3.31417 9.44998 2.97705C8.58743 2.63994 7.64517 2.57844 6.74773 2.80068C5.85028 3.02291 5.03988 3.51843 4.42363 4.22174C4.36362 4.2864 4.31689 4.36272 4.28623 4.44618C4.25556 4.52964 4.24158 4.61855 4.2451 4.70763C4.24863 4.79672 4.26959 4.88418 4.30675 4.96483C4.3439 5.04549 4.3965 5.1177 4.46143 5.17719C4.52636 5.23668 4.6023 5.28225 4.68475 5.3112C4.7672 5.34014 4.85449 5.35188 4.94146 5.34571C5.02842 5.33954 5.1133 5.31559 5.19105 5.27527C5.2688 5.23496 5.33786 5.1791 5.39414 5.11101C5.83427 4.60856 6.41311 4.25454 7.05416 4.09573C7.69521 3.93691 8.36829 3.98078 8.98444 4.22154C9.60059 4.4623 10.1308 4.88862 10.505 5.44414C10.8792 5.99967 11.0798 6.65825 11.0803 7.33286C11.1043 8.63063 11.0034 9.92768 10.7791 11.2053C10.7462 11.3787 10.782 11.5584 10.8785 11.7049C10.9751 11.8514 11.1245 11.9527 11.2941 11.9865C11.3355 11.995 11.3776 11.9992 11.4198 11.9992C11.5708 11.9988 11.717 11.9448 11.8333 11.8465C11.9497 11.7481 12.0291 11.6115 12.0579 11.4599ZM4.56246 7.33286C4.56227 7.1468 4.57732 6.96105 4.60744 6.77756C4.6269 6.68923 4.62856 6.59776 4.61232 6.50875C4.59608 6.41974 4.56228 6.33504 4.51298 6.25983C4.46369 6.18461 4.39992 6.12046 4.32558 6.07128C4.25125 6.02211 4.16789 5.98893 4.0806 5.97379C3.99332 5.95865 3.90393 5.96185 3.81789 5.9832C3.73185 6.00456 3.65097 6.04362 3.58018 6.09799C3.50939 6.15237 3.45017 6.22093 3.40614 6.29949C3.36211 6.37804 3.33419 6.46495 3.32408 6.55491C3.28106 6.8119 3.25925 7.07213 3.2589 7.33286C3.2589 10.4293 2.38161 11.9992 0.651781 11.9992C0.478918 11.9992 0.313135 12.0694 0.190902 12.1944C0.0686696 12.3195 0 12.489 0 12.6658C0 12.8426 0.0686696 13.0122 0.190902 13.1372C0.313135 13.2622 0.478918 13.3324 0.651781 13.3324C3.17352 13.3324 4.56246 11.1993 4.56246 7.33286ZM13.4919 15.6083C14.5645 12.9912 15.0757 10.1692 14.991 7.33286C14.994 6.22555 14.7487 5.13228 14.274 4.13708C14.2365 4.05829 14.1843 3.98782 14.1202 3.92968C14.0561 3.87155 13.9815 3.82689 13.9005 3.79827C13.8196 3.76964 13.7339 3.75759 13.6484 3.76283C13.5629 3.76806 13.4793 3.79047 13.4022 3.82877C13.3252 3.86707 13.2563 3.92051 13.1995 3.98604C13.1426 4.05158 13.099 4.12792 13.071 4.21072C13.043 4.29351 13.0312 4.38113 13.0363 4.46858C13.0414 4.55602 13.0633 4.64158 13.1008 4.72037C13.4886 5.53403 13.6893 6.42766 13.6874 7.33286C13.7694 9.97851 13.2986 12.6116 12.3063 15.0563C12.2709 15.1361 12.2513 15.2223 12.2486 15.3099C12.2459 15.3975 12.26 15.4847 12.2903 15.5667C12.3206 15.6487 12.3663 15.7238 12.425 15.7876C12.4837 15.8515 12.5541 15.9029 12.6322 15.9389C12.7166 15.9786 12.8084 15.9991 12.9013 15.9989C13.026 15.9984 13.1479 15.9613 13.2525 15.892C13.3572 15.8228 13.4403 15.7243 13.4919 15.6083ZM1.95534 9.33272V7.33286C1.95707 5.74221 2.57565 4.21722 3.67537 3.09246C4.77508 1.9677 6.26613 1.33504 7.82137 1.33327C9.09128 1.32895 10.3276 1.75043 11.341 2.53319C11.4793 2.63927 11.6531 2.68482 11.8242 2.65981C11.9954 2.63481 12.1498 2.54131 12.2535 2.39987C12.3572 2.25843 12.4017 2.08064 12.3773 1.90562C12.3528 1.7306 12.2614 1.57268 12.1231 1.4666C10.8843 0.51028 9.37342 -0.00482286 7.82137 3.40339e-05C5.92056 0.00232752 4.09825 0.775627 2.75418 2.1503C1.41011 3.52497 0.654023 5.38877 0.651781 7.33286V9.33272C0.651781 9.50951 0.72045 9.67907 0.842683 9.80409C0.964915 9.9291 1.1307 9.99934 1.30356 9.99934C1.47642 9.99934 1.64221 9.9291 1.76444 9.80409C1.88667 9.67907 1.95534 9.50951 1.95534 9.33272Z" fill="white"/>
</svg>
