<svg width="16" height="16" viewBox="0 0 16 16" fill="none" xmlns="http://www.w3.org/2000/svg">
<path d="M8 15.1826C6.96973 15.1826 6.00293 14.9873 5.09961 14.5967C4.19629 14.2109 3.40283 13.6763 2.71924 12.9927C2.03564 12.3042 1.49854 11.5107 1.10791 10.6123C0.722168 9.70898 0.529297 8.74219 0.529297 7.71191C0.529297 6.68164 0.722168 5.71484 1.10791 4.81152C1.49854 3.9082 2.03564 3.11475 2.71924 2.43115C3.40283 1.74756 4.19629 1.21289 5.09961 0.827148C6.00293 0.436523 6.96973 0.241211 8 0.241211C9.03027 0.241211 9.99707 0.436523 10.9004 0.827148C11.8037 1.21289 12.5972 1.74756 13.2808 2.43115C13.9644 3.11475 14.499 3.9082 14.8848 4.81152C15.2754 5.71484 15.4707 6.68164 15.4707 7.71191C15.4707 8.74219 15.2754 9.70898 14.8848 10.6123C14.499 11.5107 13.9644 12.3042 13.2808 12.9927C12.5972 13.6763 11.8037 14.2109 10.9004 14.5967C9.99707 14.9873 9.03027 15.1826 8 15.1826ZM3.89844 6.20312H12.1309C12.2969 6.20312 12.4336 6.1543 12.541 6.05664C12.6533 5.95898 12.7095 5.83203 12.7095 5.67578C12.7095 5.51465 12.6533 5.38525 12.541 5.2876C12.4336 5.18506 12.2969 5.13379 12.1309 5.13379H3.89844C3.73242 5.13379 3.59326 5.18506 3.48096 5.2876C3.37354 5.38525 3.31982 5.51465 3.31982 5.67578C3.31982 5.83203 3.37354 5.95898 3.48096 6.05664C3.59326 6.1543 3.73242 6.20312 3.89844 6.20312ZM5.01904 8.70801H11.0103C11.1812 8.70801 11.3203 8.65918 11.4277 8.56152C11.5352 8.46387 11.5889 8.33447 11.5889 8.17334C11.5889 8.01221 11.5352 7.88281 11.4277 7.78516C11.3203 7.68262 11.1812 7.63135 11.0103 7.63135H5.01904C4.84814 7.63135 4.70898 7.68262 4.60156 7.78516C4.49414 7.88281 4.44043 8.01221 4.44043 8.17334C4.44043 8.33447 4.49414 8.46387 4.60156 8.56152C4.70898 8.65918 4.84814 8.70801 5.01904 8.70801ZM6.19092 11.2129H9.8457C10.0117 11.2129 10.1484 11.1641 10.2559 11.0664C10.3633 10.9688 10.417 10.8394 10.417 10.6782C10.417 10.5171 10.3633 10.3877 10.2559 10.29C10.1484 10.1924 10.0117 10.1436 9.8457 10.1436H6.19092C6.02002 10.1436 5.88086 10.1924 5.77344 10.29C5.66602 10.3877 5.6123 10.5171 5.6123 10.6782C5.6123 10.8394 5.66602 10.9688 5.77344 11.0664C5.88086 11.1641 6.02002 11.2129 6.19092 11.2129Z" fill="white"/>
</svg>
