<svg width="20" height="19" viewBox="0 0 20 19" fill="none" xmlns="http://www.w3.org/2000/svg">
<path d="M10 18.7334C14.9658 18.7334 19.0791 14.6289 19.0791 9.6543C19.0791 4.68848 14.9658 0.575195 9.99121 0.575195C5.02539 0.575195 0.920898 4.68848 0.920898 9.6543C0.920898 14.6289 5.03418 18.7334 10 18.7334ZM10 17.3271C6.21191 17.3271 3.00391 14.4883 2.42383 10.8408C2.47656 10.8496 2.52051 10.8496 2.57324 10.8496C3.51367 10.8496 4.1377 10.0498 4.1377 8.82812C4.1377 8.44141 4.20801 8.32715 4.46289 8.2041L5.02539 7.94043C5.32422 7.79102 5.59668 7.90527 5.78125 8.16016L6.82715 9.68945C7.79395 11.0869 8.77832 11.6582 9.68359 11.6582C10.5537 11.6582 11.1426 11.1045 11.1426 10.252C11.1426 9.75098 10.8877 9.32031 10.4746 9.04785C10.2109 8.86328 10.29 8.65234 10.5273 8.65234C12.6719 8.65234 13.8057 7.87891 13.8057 6.32324C13.8057 4.2666 12.0654 4.15234 12.0654 3.625C12.0654 3.30859 12.4609 3.13281 12.7334 2.5C15.5986 3.61621 17.6729 6.41992 17.6729 9.6543C17.6729 10.4629 17.541 11.2451 17.3037 11.9834C16.8467 11.6055 16.4775 11.4473 16.0469 11.4473C15.7129 11.4473 15.5283 11.5352 15.3438 11.5967C15.1592 11.6494 15.0713 11.5703 15.0449 11.4121C14.957 10.7705 14.5527 10.5156 13.9023 10.5156H13.4453C12.9092 10.5156 12.4785 10.7969 12.1533 11.2979L12.0127 11.5176C11.793 11.8604 11.5996 12.1416 11.4062 12.3262C11.2217 12.4932 11.0811 12.5723 10.7207 12.6865L10.3164 12.8096C9.70117 13.0029 9.5166 13.5391 9.68359 14.1367L10.1055 15.6221C10.2637 16.167 10.5889 16.4482 11.1162 16.4482C11.3447 16.4482 11.626 16.3604 11.916 16.2197L12.0479 16.1582C12.25 16.0615 12.3994 16.0264 12.5488 16.0264C12.8916 16.0264 13.1201 16.1934 13.3838 16.5273C12.3643 17.0371 11.2129 17.3271 10 17.3271Z" fill="#1C1C1E"/>
</svg>
