<svg width="15" height="20" viewBox="0 0 15 20" fill="none" xmlns="http://www.w3.org/2000/svg">
<path d="M12.5 8.23999V5.25C12.5 2.49 10.26 0.25 7.5 0.25C4.74 0.25 2.5 2.49 2.5 5.25V8.23999C1.02 8.97999 0 10.49 0 12.25V15.25C0 17.73 2.02 19.75 4.5 19.75H10.5C12.98 19.75 15 17.73 15 15.25V12.25C15 10.49 13.98 8.97999 12.5 8.23999ZM8.5 14.25C8.5 14.8 8.05 15.25 7.5 15.25C6.95 15.25 6.5 14.8 6.5 14.25V13.25C6.5 12.7 6.95 12.25 7.5 12.25C8.05 12.25 8.5 12.7 8.5 13.25V14.25ZM10.5 7.75H4.5V5.25C4.5 3.6 5.85 2.25 7.5 2.25C9.15 2.25 10.5 3.6 10.5 5.25V7.75Z" fill="black"/>
</svg>
