<svg width="48" height="57" viewBox="0 0 48 57" fill="none" xmlns="http://www.w3.org/2000/svg">
<path d="M0.329664 16.5584L2.30767 13.0339L23.9998 25.9189L22.0218 29.4461L0.329664 16.5584Z" fill="white"/>
<path d="M45.8125 13.0312L47.7905 16.5558L25.9779 29.446L23.9999 25.9189L45.8125 13.0312Z" fill="white"/>
<path d="M0 14.2522L3.69228 16.1514V40.2988L0 42.7407V14.2522Z" fill="white"/>
<path d="M0 42.7407L3.69228 40.2988L23.9998 52.2368L23.9998 56.9849L0 42.7407Z" fill="white"/>
<path d="M23.9998 4.07767L23.9998 0.00787508L47.9997 14.2521L44.1755 16.287L23.9998 4.07767Z" fill="white"/>
<path d="M44.1759 40.3066L48 42.7485L24.0002 56.9902L24.0002 52.2368L44.1759 40.3066Z" fill="white"/>
<path d="M23.9999 0.00793558L23.9999 4.07772L3.69232 16.1514L3.5845e-05 14.2522L23.9999 0.00793558Z" fill="white"/>
<path d="M44.1755 16.2871L47.9997 14.2522V42.7407L44.1755 40.2988V16.2871Z" fill="white"/>
<path d="M35.736 20.6282H38.6371V36.9074L35.736 35.1438V20.6282Z" fill="white"/>
<path d="M9.36255 20.6282H12.2636V35.1438L9.36255 36.9074V20.6282Z" fill="white"/>
<path d="M9.36258 36.9073L12.2637 35.1438L24.5172 42.4694L23.0666 45.0541L9.36258 36.9073Z" fill="white"/>
<path d="M23.9998 14.5235L23.9998 11.4034L37.7039 19.5429L36.3852 21.8926L23.9998 14.5235Z" fill="white"/>
<path d="M35.736 35.1437L38.6371 36.9073L24.9229 45.0541L23.4724 42.4694L35.736 35.1437Z" fill="white"/>
<path d="M23.9998 11.4033L23.9998 14.5235L11.6144 21.8926L10.2958 19.5429L23.9998 11.4033Z" fill="white"/>
<path d="M22.0219 29.446L23.9999 25.9189L25.9779 29.446V55.764H22.0219V29.446Z" fill="white"/>
</svg>
