<svg width="10" height="9" viewBox="0 0 10 9" fill="none" xmlns="http://www.w3.org/2000/svg">
<path d="M4.99944 8.8185C4.41071 8.8185 3.85826 8.70689 3.34208 8.48368C2.82589 8.26325 2.37249 7.95773 1.98186 7.5671C1.59124 7.17369 1.28432 6.72028 1.0611 6.20689C0.84068 5.69071 0.730468 5.13825 0.730468 4.54953C0.730468 3.9608 0.84068 3.40834 1.0611 2.89216C1.28432 2.37598 1.59124 1.92257 1.98186 1.53195C2.37249 1.14132 2.82589 0.835798 3.34208 0.615374C3.85826 0.39216 4.41071 0.280553 4.99944 0.280553C5.58817 0.280553 6.14062 0.39216 6.65681 0.615374C7.17299 0.835798 7.62639 1.14132 8.01702 1.53195C8.40764 1.92257 8.71317 2.37598 8.93359 2.89216C9.15681 3.40834 9.26841 3.9608 9.26841 4.54953C9.26841 5.13825 9.15681 5.69071 8.93359 6.20689C8.71317 6.72028 8.40764 7.17369 8.01702 7.5671C7.62639 7.95773 7.17299 8.26325 6.65681 8.48368C6.14062 8.70689 5.58817 8.8185 4.99944 8.8185ZM5.00363 5.893C5.24916 5.893 5.47377 5.83301 5.67745 5.71303C5.88114 5.59305 6.04297 5.43122 6.16295 5.22754C6.28571 5.02386 6.3471 4.79785 6.3471 4.54953C6.3471 4.3012 6.28571 4.0752 6.16295 3.87151C6.04297 3.66783 5.88114 3.506 5.67745 3.38602C5.47377 3.26325 5.24916 3.20187 5.00363 3.20187C4.7553 3.20187 4.5293 3.26325 4.32561 3.38602C4.12193 3.506 3.9587 3.66783 3.83594 3.87151C3.71596 4.0752 3.65597 4.3012 3.65597 4.54953C3.65597 4.79785 3.71596 5.02386 3.83594 5.22754C3.9587 5.43122 4.12193 5.59305 4.32561 5.71303C4.5293 5.83301 4.7553 5.893 5.00363 5.893Z" fill="white"/>
</svg>
