<svg width="14" height="14" viewBox="0 0 14 14" fill="none" xmlns="http://www.w3.org/2000/svg">
<path d="M1.70581 4.17651L5.23522 9.82357" stroke="black" stroke-width="1.5" stroke-linecap="round"/>
<path d="M11.5881 13C12.6286 11.1758 13.1764 9.10642 13.1764 7C13.1764 4.89356 12.6286 2.82423 11.5881 1" stroke="black" stroke-width="1.5" stroke-linecap="round"/>
<path d="M8.41187 11.2352C9.2211 9.94757 9.64716 8.48681 9.64716 6.99994C9.64716 5.51304 9.2211 4.05234 8.41187 2.76465" stroke="black" stroke-width="1.5" stroke-linecap="round"/>
<path d="M5.23535 9.82357C5.81335 8.96508 6.1177 7.99131 6.1177 7.00004C6.1177 6.00877 5.81335 5.03497 5.23535 4.17651" stroke="black" stroke-width="1.5" stroke-linecap="round"/>
<path d="M1.88235 9.82357C1.30431 8.96508 1 7.99131 1 7.00004C1 6.00877 1.30431 5.03497 1.88235 4.17651" stroke="black" stroke-width="1.5" stroke-linecap="round"/>
</svg>
