<svg width="18" height="18" viewBox="0 0 18 18" fill="none" xmlns="http://www.w3.org/2000/svg">
<path d="M17.7781 9.2929C17.778 9.02774 17.6727 8.77344 17.4852 8.58594C17.2977 8.39844 17.0434 8.29309 16.7782 8.29305H10.2926L10.2926 1.80747C10.2926 1.5423 10.1872 1.28801 9.99974 1.10051C9.81224 0.913011 9.55795 0.807658 9.29279 0.807618C9.02762 0.807658 8.77333 0.913011 8.58583 1.10051C8.39833 1.28801 8.29298 1.5423 8.29294 1.80747L8.29294 8.29305H1.80735C1.54219 8.29309 1.2879 8.39844 1.1004 8.58594C0.912898 8.77344 0.807543 9.02774 0.807503 9.2929C0.807543 9.55806 0.912898 9.81236 1.1004 9.99985C1.2879 10.1874 1.54219 10.2927 1.80735 10.2927L8.29294 10.2927V16.7783C8.29298 17.0435 8.39833 17.2978 8.58583 17.4853C8.77333 17.6728 9.02762 17.7781 9.29279 17.7782C9.55795 17.7781 9.81224 17.6728 9.99974 17.4853C10.1872 17.2978 10.2926 17.0435 10.2926 16.7783V10.2927L16.7782 10.2927C17.0434 10.2927 17.2977 10.1874 17.4852 9.99985C17.6727 9.81236 17.778 9.55806 17.7781 9.2929V9.2929Z" fill="black"/>
</svg>
