<svg width="14" height="18" viewBox="0 0 14 18" fill="none" xmlns="http://www.w3.org/2000/svg">
<path d="M11.3027 12.3365H1.68V17.1818C1.68 17.6337 1.30392 18 0.84 18C0.376081 18 0 17.6337 0 17.1818V0.818182C0 0.366313 0.376081 0 0.84 0H11.3027C12.4037 0 13.2506 0.659259 13.6739 1.48207C14.0965 2.30334 14.1414 3.35681 13.6123 4.28021L13.1096 5.15756C12.757 5.77312 12.757 6.56335 13.1096 7.17891L13.6123 8.05626C14.1414 8.97966 14.0965 10.0331 13.6739 10.8544C13.2506 11.6772 12.4037 12.3365 11.3027 12.3365Z" fill="#363853"/>
</svg>
