<svg width="14" height="14" viewBox="0 0 14 14" fill="none" xmlns="http://www.w3.org/2000/svg">
<path d="M1.75 9.25V10.75H0.25V9.25H1.75ZM0.25 13.75H1.75V12.25H0.25V13.75ZM1.75 10.75V12.25H3.25V10.75H1.75ZM4.75 6.25H3.25V7.75H1.75V9.25H4.75V6.25ZM0.25 6.25V7.75H1.75V6.25H0.25ZM4.75 12.25H3.25V13.75H7V12.25H6.25V10.75H4.75V12.25ZM7.75 1H6.25V2.5H7.75V1ZM6.25 6.25H7.75V4H6.25V6.25ZM1 4.75C0.801088 4.75 0.610322 4.67098 0.46967 4.53033C0.329018 4.38968 0.25 4.19891 0.25 4V1C0.25 0.801088 0.329018 0.610322 0.46967 0.46967C0.610322 0.329018 0.801088 0.25 1 0.25H4C4.19891 0.25 4.38968 0.329018 4.53033 0.46967C4.67098 0.610322 4.75 0.801088 4.75 1V4C4.75 4.19891 4.67098 4.38968 4.53033 4.53033C4.38968 4.67098 4.19891 4.75 4 4.75H1ZM1.75 3.25H3.25V1.75H1.75V3.25ZM13.75 1V7H12.25V4.75H10C9.80109 4.75 9.61032 4.67098 9.46967 4.53033C9.32902 4.38968 9.25 4.19891 9.25 4V1C9.25 0.801088 9.32902 0.610322 9.46967 0.46967C9.61032 0.329018 9.80109 0.25 10 0.25H13C13.1989 0.25 13.3897 0.329018 13.5303 0.46967C13.671 0.610322 13.75 0.801088 13.75 1ZM12.25 1.75H10.75V3.25H12.25V1.75ZM13.75 10V13C13.75 13.1989 13.671 13.3897 13.5303 13.5303C13.3897 13.671 13.1989 13.75 13 13.75H10C9.80109 13.75 9.61032 13.671 9.46967 13.5303C9.32902 13.3897 9.25 13.1989 9.25 13V10.75H6.25V7.75H7.75V9.25H8.5V6.25H10V9.25H13C13.1989 9.25 13.3897 9.32902 13.5303 9.46967C13.671 9.61032 13.75 9.80109 13.75 10ZM12.25 10.75H10.75V12.25H12.25V10.75Z" fill="black"/>
</svg>
