<svg width="12" height="12" viewBox="0 0 12 12" fill="none" xmlns="http://www.w3.org/2000/svg">
<circle cx="6" cy="6" r="5.6" transform="rotate(180 6 6)" fill="#EFF1F3" stroke="#1A2CF5" stroke-width="0.8"/>
<path d="M7.68635 5.17499L6.49102 3.97966C6.39722 3.8859 6.27002 3.83325 6.1374 3.83328C6.00478 3.83331 5.8776 3.88603 5.78385 3.97982C5.6901 4.07362 5.63744 4.20082 5.63747 4.33344C5.6375 4.46606 5.69022 4.59324 5.78402 4.68699L6.59702 5.49999L3.66602 5.49999C3.53341 5.49999 3.40623 5.55267 3.31246 5.64644C3.21869 5.74021 3.16602 5.86738 3.16602 5.99999C3.16602 6.1326 3.21869 6.25978 3.31246 6.35354C3.40623 6.44731 3.53341 6.49999 3.66602 6.49999L6.59702 6.49999L5.78402 7.31299C5.69022 7.40675 5.63751 7.53392 5.63747 7.66654C5.63744 7.79916 5.6901 7.92636 5.78385 8.02016C5.8776 8.11396 6.00478 8.16667 6.1374 8.1667C6.27002 8.16673 6.39722 8.11408 6.49102 8.02032L7.68635 6.82499C7.90476 6.60598 8.02741 6.3093 8.02741 5.99999C8.02741 5.69069 7.90476 5.394 7.68635 5.17499V5.17499Z" fill="#1A2CF5"/>
</svg>
