<svg width="15" height="15" viewBox="0 0 15 15" fill="none" xmlns="http://www.w3.org/2000/svg">
<g clip-path="url(#clip0_1111_16179)">
<path d="M15 10V15H10C9.12319 14.9991 8.26203 14.7676 7.50291 14.3288C6.74379 13.89 6.11341 13.2593 5.675 12.5C6.14617 12.4966 6.61573 12.4447 7.07625 12.345C7.42697 12.7835 7.87187 13.1375 8.37799 13.3807C8.88411 13.6239 9.43847 13.7502 10 13.75H13.75V10C13.7499 9.43827 13.6233 8.88378 13.3796 8.37765C13.1359 7.87151 12.7815 7.42672 12.3425 7.07625C12.443 6.61582 12.4958 6.14626 12.5 5.675C13.2593 6.11341 13.89 6.74379 14.3288 7.50291C14.7676 8.26203 14.9991 9.12319 15 10ZM11.25 5.625C11.25 4.13316 10.6574 2.70242 9.60248 1.64752C8.54758 0.592632 7.11684 0 5.625 0C4.13316 0 2.70242 0.592632 1.64752 1.64752C0.592632 2.70242 0 4.13316 0 5.625L0 11.25H5.625C7.11634 11.2483 8.54611 10.6552 9.60065 9.60065C10.6552 8.54611 11.2483 7.11634 11.25 5.625V5.625ZM1.25 5.625C1.25 4.75971 1.50659 3.91385 1.98732 3.19438C2.46805 2.47492 3.15133 1.91416 3.95076 1.58303C4.75019 1.25189 5.62985 1.16525 6.47852 1.33406C7.32719 1.50287 8.10674 1.91955 8.71859 2.53141C9.33045 3.14326 9.74713 3.92281 9.91594 4.77148C10.0847 5.62015 9.99811 6.49981 9.66697 7.29924C9.33584 8.09867 8.77508 8.78195 8.05562 9.26268C7.33615 9.74341 6.49029 10 5.625 10H1.25V5.625Z" fill="#697A8C"/>
</g>
<defs>
<clipPath id="clip0_1111_16179">
<rect width="15" height="15" fill="white"/>
</clipPath>
</defs>
</svg>
