<svg width="12" height="12" viewBox="0 0 12 12" fill="none" xmlns="http://www.w3.org/2000/svg">
<circle cx="6" cy="6" r="5.6" fill="#EFF1F3" stroke="#1A2CF5" stroke-width="0.8"/>
<path d="M4.31365 6.82501L5.50898 8.02034C5.60278 8.1141 5.72998 8.16675 5.8626 8.16672C5.99522 8.16669 6.1224 8.11397 6.21615 8.02018C6.3099 7.92638 6.36256 7.79918 6.36253 7.66656C6.3625 7.53394 6.30978 7.40676 6.21598 7.31301L5.40298 6.50001H8.33398C8.46659 6.50001 8.59377 6.44733 8.68754 6.35356C8.78131 6.25979 8.83398 6.13262 8.83398 6.00001C8.83398 5.8674 8.78131 5.74022 8.68754 5.64646C8.59377 5.55269 8.46659 5.50001 8.33398 5.50001H5.40298L6.21598 4.68701C6.30978 4.59325 6.3625 4.46608 6.36253 4.33346C6.36256 4.20084 6.3099 4.07364 6.21615 3.97984C6.1224 3.88604 5.99522 3.83333 5.8626 3.8333C5.72998 3.83327 5.60278 3.88592 5.50898 3.97968L4.31365 5.17501C4.09524 5.39402 3.97259 5.6907 3.97259 6.00001C3.97259 6.30931 4.09524 6.606 4.31365 6.82501V6.82501Z" fill="#1A2CF5"/>
</svg>
