<svg width="18" height="18" viewBox="0 0 18 18" fill="none" xmlns="http://www.w3.org/2000/svg">
<circle cx="9" cy="9" r="8.6" fill="#F3B4B4" stroke="black" stroke-width="0.8"/>
<path d="M7.76256 6.4695L5.96956 8.2625C5.82893 8.4032 5.74995 8.594 5.75 8.79293C5.75005 8.99186 5.82912 9.18262 5.96981 9.32325C6.11051 9.46388 6.30131 9.54286 6.50024 9.54281C6.69917 9.54277 6.88993 9.4637 7.03056 9.323L8.25006 8.1035L8.25006 12.5C8.25006 12.6989 8.32908 12.8897 8.46973 13.0303C8.61039 13.171 8.80115 13.25 9.00006 13.25C9.19898 13.25 9.38974 13.171 9.53039 13.0303C9.67105 12.8897 9.75006 12.6989 9.75006 12.5L9.75006 8.1035L10.9696 9.323C11.1102 9.4637 11.301 9.54277 11.4999 9.54281C11.6988 9.54286 11.8896 9.46388 12.0303 9.32325C12.171 9.18262 12.2501 8.99186 12.2501 8.79293C12.2502 8.594 12.1712 8.4032 12.0306 8.2625L10.2376 6.4695C9.90905 6.14188 9.46402 5.95791 9.00006 5.95791C8.53611 5.95791 8.09108 6.14188 7.76256 6.4695Z" fill="#F51A1A"/>
</svg>
