<svg width="18" height="18" viewBox="0 0 18 18" fill="none" xmlns="http://www.w3.org/2000/svg">
<circle cx="9" cy="9" r="8.6" fill="#ACE9AA" stroke="black" stroke-width="0.8"/>
<path d="M10.2374 11.5305L12.0304 9.7375C12.1711 9.5968 12.25 9.406 12.25 9.20707C12.25 9.00814 12.1709 8.81738 12.0302 8.67675C11.8895 8.53612 11.6987 8.45714 11.4998 8.45719C11.3008 8.45723 11.1101 8.5363 10.9694 8.677L9.74994 9.8965L9.74994 5.5C9.74994 5.30109 9.67092 5.11032 9.53027 4.96967C9.38961 4.82902 9.19885 4.75 8.99994 4.75C8.80102 4.75 8.61026 4.82902 8.46961 4.96967C8.32895 5.11032 8.24994 5.30109 8.24994 5.5L8.24994 9.8965L7.03044 8.677C6.88981 8.5363 6.69904 8.45723 6.50011 8.45719C6.30118 8.45714 6.11038 8.53612 5.96969 8.67675C5.82899 8.81738 5.74992 9.00814 5.74987 9.20707C5.74983 9.406 5.8288 9.5968 5.96944 9.7375L7.76244 11.5305C8.09095 11.8581 8.53598 12.0421 8.99994 12.0421C9.46389 12.0421 9.90892 11.8581 10.2374 11.5305V11.5305Z" fill="#0E920C"/>
</svg>
