<svg width="16" height="18" viewBox="0 0 16 18" fill="none" xmlns="http://www.w3.org/2000/svg">
<path d="M3.48535 17.9136C2.61654 17.9136 1.96354 17.6978 1.52637 17.2661C1.09473 16.84 0.878906 16.1981 0.878906 15.3403V7.14746C0.878906 6.28971 1.09473 5.64779 1.52637 5.22168C1.96354 4.79004 2.61654 4.57422 3.48535 4.57422H13.0063C13.8752 4.57422 14.5254 4.79004 14.957 5.22168C15.3942 5.64779 15.6128 6.28971 15.6128 7.14746V15.3403C15.6128 16.1981 15.3942 16.84 14.957 17.2661C14.5254 17.6978 13.8752 17.9136 13.0063 17.9136H3.48535ZM8.25 0.158203C8.06738 0.158203 7.90967 0.221842 7.77686 0.349121C7.64958 0.4764 7.58594 0.625814 7.58594 0.797363V9.23926L7.63574 10.4844L7.1709 9.99463L5.88428 8.625C5.76807 8.49219 5.61589 8.42578 5.42773 8.42578C5.25618 8.42578 5.1123 8.48112 4.99609 8.5918C4.88542 8.70247 4.83008 8.84082 4.83008 9.00684C4.83008 9.16732 4.89648 9.31396 5.0293 9.44678L7.76855 12.0864C7.85156 12.1694 7.92904 12.2275 8.00098 12.2607C8.07845 12.2884 8.16146 12.3022 8.25 12.3022C8.33301 12.3022 8.41048 12.2884 8.48242 12.2607C8.5599 12.2275 8.64014 12.1694 8.72314 12.0864L11.4624 9.44678C11.5952 9.31396 11.6616 9.16732 11.6616 9.00684C11.6616 8.84082 11.6035 8.70247 11.4873 8.5918C11.3711 8.48112 11.2272 8.42578 11.0557 8.42578C10.8675 8.42578 10.7181 8.49219 10.6074 8.625L9.3208 9.99463L8.85596 10.4844L8.90576 9.23926V0.797363C8.90576 0.625814 8.83936 0.4764 8.70654 0.349121C8.57926 0.221842 8.42708 0.158203 8.25 0.158203Z" fill="white"/>
</svg>
