<svg width="20" height="24" viewBox="0 0 20 24" fill="none" xmlns="http://www.w3.org/2000/svg">
<path d="M8.70103 11.1894L0.80797 6.49994L1.11673 5.94978L9.01002 10.6384L8.70103 11.1894Z" fill="#23282F" stroke="black"/>
<path d="M10.3596 10.6409L18.3004 5.94924L18.6092 6.4994L10.6686 11.1919L10.3596 10.6409Z" fill="#23282F" stroke="black"/>
<path d="M0.989858 15.9912L0.5 16.3152V6.56945L0.989858 6.82142V15.9912Z" fill="#23282F" stroke="black"/>
<path d="M9.18942 21.367L9.18942 22.1189L0.945575 17.226L1.51021 16.8526L9.18942 21.367Z" fill="#23282F" stroke="black"/>
<path d="M17.8339 5.99349L10.1774 1.36012L10.1774 0.877563L18.3417 5.72325L17.8339 5.99349Z" fill="#23282F" stroke="black"/>
<path d="M10.1806 21.3679L17.812 16.8553L18.4119 17.2384L10.1806 22.1229L10.1806 21.3679Z" fill="#23282F" stroke="black"/>
<path d="M1.4775 5.94267L1.03717 5.71617L9.18878 0.878051L9.18878 1.35797L1.4775 5.94267Z" fill="#23282F" stroke="black"/>
<path d="M18.3242 15.9861V6.87143L18.8673 6.58245V16.3328L18.3242 15.9861Z" fill="#23282F" stroke="black"/>
<path d="M14.9199 8.82617H15.0905V14.0058L14.9199 13.9021V8.82617Z" fill="#23282F" stroke="black"/>
<path d="M4.2793 8.82617H4.4499V13.9021L4.2793 14.0058V8.82617Z" fill="#23282F" stroke="black"/>
<path d="M9.21768 17.3181L9.12118 17.4901L4.75189 14.8926L4.95454 14.7694L9.21768 17.3181Z" fill="#23282F" stroke="black"/>
<path d="M14.497 8.14151L10.1791 5.57241L10.1791 5.47588L14.5395 8.06578L14.497 8.14151Z" fill="#23282F" stroke="black"/>
<path d="M10.1451 17.317L14.4122 14.7681L14.6147 14.8912L10.2416 17.489L10.1451 17.317Z" fill="#23282F" stroke="black"/>
<path d="M9.19089 5.57327L4.87297 8.14237L4.83047 8.06664L9.19089 5.47674L9.19089 5.57327Z" fill="#23282F" stroke="black"/>
<path d="M9.38477 21.9998V12.0109L9.6829 11.4793L9.98104 12.0109V21.9998H9.38477Z" fill="#23282F" stroke="black"/>
</svg>
