<svg width="21" height="21" viewBox="0 0 21 21" fill="none" xmlns="http://www.w3.org/2000/svg">
<g clip-path="url(#clip0_1215_17041)">
<path d="M16.2584 1.87271L10.7765 0.0448357C10.597 -0.0149452 10.403 -0.0149452 10.2235 0.0448357L4.74163 1.87271C3.87004 2.16223 3.11186 2.71906 2.57481 3.46408C2.03776 4.2091 1.74916 5.10442 1.75 6.02284V10.5002C1.75 17.1178 9.8 20.7727 10.1448 20.925C10.2566 20.9746 10.3776 21.0003 10.5 21.0003C10.6224 21.0003 10.7434 20.9746 10.8553 20.925C11.2 20.7727 19.25 17.1178 19.25 10.5002V6.02284C19.2508 5.10442 18.9622 4.2091 18.4252 3.46408C17.8881 2.71906 17.13 2.16223 16.2584 1.87271V1.87271ZM14.6283 8.50259L10.8903 12.2406C10.7373 12.3946 10.5553 12.5166 10.3547 12.5997C10.1542 12.6828 9.93918 12.7252 9.72213 12.7245H9.69325C9.47178 12.7211 9.2533 12.6728 9.05102 12.5826C8.84873 12.4923 8.66685 12.362 8.51638 12.1995L6.49863 10.0995C6.41124 10.0184 6.34134 9.92031 6.29322 9.81125C6.2451 9.7022 6.21977 9.58445 6.21879 9.46526C6.2178 9.34606 6.24118 9.22791 6.28749 9.11807C6.3338 9.00824 6.40207 8.90902 6.4881 8.82651C6.57413 8.744 6.67612 8.67994 6.78779 8.63826C6.89947 8.59657 7.01849 8.57815 7.13754 8.58412C7.2566 8.59008 7.37317 8.62031 7.48013 8.67295C7.58708 8.72558 7.68215 8.79952 7.7595 8.89021L9.723 10.9377L13.3875 7.26271C13.5525 7.10332 13.7736 7.01513 14.003 7.01712C14.2324 7.01912 14.4519 7.11114 14.6141 7.27337C14.7763 7.4356 14.8683 7.65506 14.8703 7.88449C14.8723 8.11391 14.7841 8.33493 14.6248 8.49996L14.6283 8.50259Z" fill="#23282F"/>
</g>
<defs>
<clipPath id="clip0_1215_17041">
<rect width="21" height="21" fill="white"/>
</clipPath>
</defs>
</svg>
