<svg width="20" height="20" viewBox="0 0 20 20" fill="none" xmlns="http://www.w3.org/2000/svg">
<g clip-path="url(#clip0_473_14283)">
<path d="M16.1144 12.2221C15.4851 12.2226 14.8653 12.3764 14.3087 12.6703C13.7519 12.9641 13.275 13.3891 12.919 13.9087L7.50101 11.4596C7.88583 10.5294 7.88732 9.48441 7.50517 8.55313L12.9156 6.09155C13.4432 6.85548 14.2269 7.40479 15.1244 7.63984C16.0219 7.87489 16.9739 7.78013 17.8076 7.37273C18.6413 6.96533 19.3016 6.27229 19.6685 5.41931C20.0356 4.56633 20.0851 3.60991 19.808 2.72355C19.5309 1.83717 18.9457 1.07956 18.1585 0.588139C17.3713 0.0967131 16.4343 -0.0959784 15.5172 0.0450173C14.6003 0.186012 13.7641 0.651356 13.1605 1.35664C12.5569 2.06192 12.2258 2.96043 12.2273 3.88916C12.2308 4.10899 12.2531 4.32811 12.2939 4.54413L6.54211 7.16067C5.98969 6.64253 5.29812 6.29724 4.55237 6.16719C3.80661 6.03713 3.03915 6.12799 2.34427 6.42859C1.64939 6.72919 1.05734 7.22644 0.640881 7.85927C0.224419 8.49205 0.00167256 9.23293 9.38311e-06 9.99072C-0.00165387 10.7485 0.217837 11.4903 0.631519 12.1249C1.0452 12.7597 1.63505 13.2595 2.3286 13.5631C3.02217 13.8668 3.78923 13.9611 4.53553 13.8343C5.28187 13.7075 5.97493 13.3652 6.52963 12.8496L12.2963 15.4561C12.2563 15.6719 12.2343 15.8907 12.2306 16.1103C12.2304 16.8795 12.4582 17.6315 12.8849 18.2711C13.3117 18.9108 13.9184 19.4093 14.6283 19.7037C15.3381 19.9983 16.1193 20.0753 16.8729 19.9253C17.6265 19.7753 18.3188 19.4049 18.8621 18.8609C19.4055 18.3171 19.7755 17.624 19.9255 16.8695C20.0752 16.1151 19.9983 15.3331 19.7041 14.6224C19.41 13.9117 18.9119 13.3044 18.2729 12.8771C17.634 12.4498 16.8828 12.2219 16.1144 12.2221ZM16.1144 1.66679C16.5536 1.66663 16.9828 1.79681 17.348 2.04092C17.7132 2.28501 17.9979 2.63205 18.166 3.03812C18.3341 3.4442 18.3781 3.89107 18.2927 4.32223C18.2072 4.75337 17.9957 5.14945 17.6853 5.46033C17.3748 5.77123 16.9793 5.98297 16.5487 6.06879C16.118 6.1546 15.6716 6.11065 15.266 5.94247C14.8603 5.77428 14.5135 5.48943 14.2695 5.12395C14.0255 4.75847 13.8953 4.32875 13.8953 3.88916C13.8957 3.30004 14.1296 2.73515 14.5457 2.31849C14.9617 1.90183 15.526 1.66745 16.1144 1.66679ZM3.9068 12.2221C3.46769 12.2223 3.03841 12.092 2.67324 11.848C2.30805 11.6038 2.02339 11.2568 1.85524 10.8508C1.68708 10.4447 1.64301 9.9978 1.72857 9.56665C1.81413 9.13543 2.02549 8.73937 2.33593 8.42855C2.64636 8.11763 3.04192 7.90588 3.47257 7.82005C3.90323 7.73425 4.34961 7.7782 4.75531 7.94639C5.161 8.11457 5.50776 8.39939 5.75173 8.76487C5.99569 9.13043 6.12592 9.56008 6.12592 9.99972C6.12525 10.5888 5.89127 11.1535 5.47528 11.5701C5.05928 11.9867 4.49521 12.2212 3.9068 12.2221ZM16.1144 18.3327C15.6753 18.3327 15.2463 18.2023 14.8811 17.958C14.516 17.7139 14.2315 17.3668 14.0635 16.9607C13.8955 16.5545 13.8515 16.1077 13.9371 15.6765C14.0228 15.2455 14.2343 14.8496 14.5447 14.5387C14.8552 14.2279 15.2507 14.0163 15.6813 13.9305C16.112 13.8448 16.5584 13.8888 16.964 14.0571C17.3696 14.2252 17.7164 14.5101 17.9603 14.8755C18.2043 15.2409 18.3344 15.6707 18.3344 16.1103C18.3339 16.6995 18.0999 17.2645 17.6836 17.6812C17.2675 18.0979 16.7031 18.3321 16.1144 18.3327Z" fill="white"/>
</g>
<defs>
<clipPath id="clip0_473_14283">
<rect width="20" height="20" fill="white"/>
</clipPath>
</defs>
</svg>
