<svg width="25" height="29" viewBox="0 0 25 29" fill="none" xmlns="http://www.w3.org/2000/svg">
<path d="M24.4971 6.14495C20.1941 4.65526 14.4161 1.66977 13.0455 0.227401C12.9088 0.0839273 12.722 0.00152632 12.5279 0C12.3426 0 12.1456 0.0778611 12.0059 0.219808C10.4912 1.76902 6.18531 4.67509 0.535314 6.33266C0.219138 6.42577 0 6.72496 0 7.06685C0 19.691 1.77649 25.8497 12.3 28.971C12.3662 28.9908 12.4338 29 12.5014 29C12.5691 29 12.6368 28.9908 12.7029 28.971C23.225 25.8512 25 19.6299 25 6.86842C25 6.53874 24.7971 6.24874 24.4971 6.14495ZM12.5014 27.4416C3.16173 24.6027 1.52202 19.2209 1.47202 7.63922C6.60732 6.04117 10.6559 3.451 12.5353 1.78274C14.5338 3.3991 19.4839 5.94804 23.528 7.41331C23.4809 19.1537 21.847 24.5996 12.5014 27.4416Z" fill="black"/>
<path d="M15.2 12.8295V11.3684C15.2 10.0626 13.9886 9 12.5 9C11.0114 9 9.8 10.0626 9.8 11.3684V12.8295C8.7548 13.1563 8 14.0247 8 15.0526V16.6316C8 17.9374 9.2114 19 10.7 19H14.3C15.7886 19 17 17.9374 17 16.6316V15.0526C17 14.0247 16.2452 13.1563 15.2 12.8295ZM10.4 11.3684C10.4 10.3526 11.342 9.52632 12.5 9.52632C13.658 9.52632 14.6 10.3526 14.6 11.3684V12.7111C14.5004 12.7011 14.4026 12.6842 14.3 12.6842H10.7C10.5974 12.6842 10.4996 12.7011 10.4 12.7111V11.3684ZM16.4 16.6316C16.4 17.6474 15.458 18.4737 14.3 18.4737H10.7C9.542 18.4737 8.6 17.6474 8.6 16.6316V15.0526C8.6 14.0368 9.542 13.2105 10.7 13.2105H14.3C15.458 13.2105 16.4 14.0368 16.4 15.0526V16.6316ZM12.8 15.5789V16.6316C12.8 16.7768 12.6656 16.8947 12.5 16.8947C12.3344 16.8947 12.2 16.7768 12.2 16.6316V15.5789C12.2 15.4337 12.3344 15.3158 12.5 15.3158C12.6656 15.3158 12.8 15.4332 12.8 15.5789Z" fill="black" stroke="black"/>
</svg>
