<svg width="16" height="19" viewBox="0 0 16 19" fill="none" xmlns="http://www.w3.org/2000/svg">
<path d="M0.878906 16.332V8.14746C0.878906 7.28971 1.09473 6.64779 1.52637 6.22168C1.96354 5.79004 2.61654 5.57422 3.48535 5.57422H13.0063C13.8752 5.57422 14.5254 5.79004 14.957 6.22168C15.3942 6.64779 15.6128 7.28971 15.6128 8.14746V16.332C15.6128 17.1898 15.3942 17.8317 14.957 18.2578C14.5254 18.6895 13.8752 18.9053 13.0063 18.9053H3.48535C2.61654 18.9053 1.96354 18.6895 1.52637 18.2578C1.09473 17.8317 0.878906 17.1898 0.878906 16.332ZM8.2417 12.4058C8.42432 12.4058 8.57926 12.3421 8.70654 12.2148C8.83936 12.0876 8.90576 11.9382 8.90576 11.7666V3.31641L8.85596 2.07959L9.3208 2.56934L10.5991 3.93896C10.7153 4.07178 10.8647 4.13818 11.0474 4.13818C11.2189 4.13818 11.3628 4.08285 11.479 3.97217C11.5952 3.86149 11.6533 3.72314 11.6533 3.55713C11.6533 3.39665 11.5897 3.25 11.4624 3.11719L8.72314 0.477539C8.64014 0.394531 8.5599 0.339193 8.48242 0.311523C8.41048 0.27832 8.33024 0.261719 8.2417 0.261719C8.15869 0.261719 8.07845 0.27832 8.00098 0.311523C7.92904 0.339193 7.8488 0.394531 7.76025 0.477539L5.0293 3.11719C4.89648 3.25 4.83008 3.39665 4.83008 3.55713C4.83008 3.72314 4.88542 3.86149 4.99609 3.97217C5.1123 4.08285 5.25618 4.13818 5.42773 4.13818C5.61589 4.13818 5.76807 4.07178 5.88428 3.93896L7.1709 2.56934L7.63574 2.07959L7.58594 3.31641V11.7666C7.58594 11.9382 7.64958 12.0876 7.77686 12.2148C7.90967 12.3421 8.06462 12.4058 8.2417 12.4058Z" fill="white"/>
</svg>
