<svg width="30" height="30" viewBox="0 0 30 30" fill="none" xmlns="http://www.w3.org/2000/svg">
<path d="M3.625 15C3.625 8.72864 8.72864 3.625 15 3.625C21.2714 3.625 26.375 8.72864 26.375 15C26.375 21.2714 21.2714 26.375 15 26.375C8.72864 26.375 3.625 21.2714 3.625 15ZM3.875 15C3.875 21.1349 8.86511 26.125 15 26.125C21.1349 26.125 26.125 21.1349 26.125 15C26.125 8.86511 21.1349 3.875 15 3.875C8.86511 3.875 3.875 8.86511 3.875 15ZM15.4375 10C15.4375 10.2414 15.2414 10.4375 15 10.4375C14.7586 10.4375 14.5625 10.2414 14.5625 10C14.5625 9.75864 14.7586 9.5625 15 9.5625C15.2414 9.5625 15.4375 9.75864 15.4375 10ZM15.125 15V20C15.125 20.0689 15.0689 20.125 15 20.125C14.9311 20.125 14.875 20.0689 14.875 20V15C14.875 14.9311 14.9311 14.875 15 14.875C15.0695 14.875 15.125 14.9305 15.125 15Z" fill="black" stroke="black"/>
</svg>
