<svg width="21" height="21" viewBox="0 0 21 21" fill="none" xmlns="http://www.w3.org/2000/svg">
<g clip-path="url(#clip0_1215_17045)">
<path d="M16.1866 8.3125C16.5347 8.3125 16.8686 8.17422 17.1147 7.92808C17.3608 7.68194 17.4991 7.3481 17.4991 7V6.39888C17.4975 5.16641 17.0072 3.9849 16.1357 3.11341C15.2642 2.24193 14.0827 1.75162 12.8503 1.75H11.8116V1.3125C11.8116 0.964403 11.6733 0.630564 11.4272 0.384422C11.1811 0.138281 10.8472 0 10.4991 0C10.151 0 9.81719 0.138281 9.57105 0.384422C9.32491 0.630564 9.18663 0.964403 9.18663 1.3125V1.75H8.148C7.03192 1.74834 5.95249 2.14825 5.1069 2.87668C4.26131 3.60511 3.70599 4.61344 3.54241 5.71747C3.37882 6.8215 3.61788 7.94753 4.2159 8.88987C4.81393 9.83221 5.73102 10.528 6.79963 10.85L9.18663 11.5028V16.625H8.148C7.61145 16.6243 7.09707 16.4109 6.71767 16.0315C6.33827 15.6521 6.12482 15.1377 6.12413 14.6011V14C6.12413 13.6519 5.98585 13.3181 5.7397 13.0719C5.49356 12.8258 5.15972 12.6875 4.81163 12.6875C4.46353 12.6875 4.12969 12.8258 3.88355 13.0719C3.63741 13.3181 3.49913 13.6519 3.49913 14V14.6011C3.50075 15.8336 3.99106 17.0151 4.86254 17.8866C5.73402 18.7581 6.91554 19.2484 8.148 19.25H9.18663V19.6875C9.18663 20.0356 9.32491 20.3694 9.57105 20.6156C9.81719 20.8617 10.151 21 10.4991 21C10.8472 21 11.1811 20.8617 11.4272 20.6156C11.6733 20.3694 11.8116 20.0356 11.8116 19.6875V19.25H12.8503C13.9663 19.2517 15.0458 18.8518 15.8914 18.1233C16.7369 17.3949 17.2923 16.3866 17.4558 15.2825C17.6194 14.1785 17.3804 13.0525 16.7823 12.1101C16.1843 11.1678 15.2672 10.472 14.1986 10.15L11.8116 9.499V4.375H12.8503C13.3868 4.37569 13.9012 4.58915 14.2806 4.96855C14.66 5.34795 14.8734 5.86232 14.8741 6.39888V7C14.8741 7.3481 15.0124 7.68194 15.2586 7.92808C15.5047 8.17422 15.8385 8.3125 16.1866 8.3125ZM13.4584 12.6691C13.92 12.8146 14.3142 13.1206 14.5696 13.5317C14.8251 13.9428 14.9248 14.4318 14.8507 14.9101C14.7767 15.3883 14.5337 15.8243 14.166 16.1389C13.7982 16.4535 13.3299 16.6259 12.8459 16.625H11.8116V12.2194L13.4584 12.6691ZM9.18663 8.78062L7.53988 8.33088C7.07863 8.18552 6.68465 7.87987 6.42921 7.46924C6.17377 7.0586 6.07373 6.57009 6.14721 6.0921C6.22069 5.61412 6.46283 5.17821 6.82982 4.86326C7.1968 4.54831 7.6644 4.37511 8.148 4.375H9.18663V8.78062Z" fill="#23282F"/>
</g>
<defs>
<clipPath id="clip0_1215_17045">
<rect width="21" height="21" fill="white"/>
</clipPath>
</defs>
</svg>
