<svg width="20" height="20" viewBox="0 0 20 20" fill="none" xmlns="http://www.w3.org/2000/svg">
<g clip-path="url(#clip0_1215_17051)">
<path d="M9.16667 14.165H5.07167L0.0375 9.13086C0.0133333 9.41503 0 9.70586 0 9.99836C5.44925e-05 12.5062 0.942417 14.9225 2.64027 16.7683C4.33813 18.614 6.66752 19.7544 9.16667 19.9634V14.165Z" fill="#23282F"/>
<path d="M15.9377 15.9368C15.375 15.3773 14.9288 14.7119 14.6247 13.979C14.3206 13.2461 14.1647 12.4602 14.166 11.6668H10.8327C10.1696 11.6668 9.53376 11.4034 9.06491 10.9345C8.59607 10.4657 8.33268 9.82981 8.33268 9.16677V6.66677H10.8327V3.33344H14.2377L15.7493 1.81927C14.4517 0.907682 12.9559 0.317776 11.3853 0.0982409C9.8148 -0.121294 8.21455 0.0358386 6.7167 0.556668C5.21884 1.0775 3.86633 1.94709 2.7708 3.09367C1.67527 4.24025 0.868136 5.63093 0.416016 7.15094L5.76102 12.5001H8.33268C8.99572 12.5001 9.63161 12.7635 10.1004 13.2323C10.5693 13.7012 10.8327 14.3371 10.8327 15.0001V19.9651C13.2727 19.7633 15.5532 18.6712 17.2402 16.8968L15.9377 15.9368Z" fill="#23282F"/>
<path d="M17.0742 14.7154L18.2858 15.6004C19.5911 13.6689 20.1806 11.342 19.9524 9.02201C19.7241 6.702 18.6925 4.53463 17.0358 2.89453L14.9283 5.0012H12.5V8.33453H10V10.0012H15.8333V11.6595C15.8368 12.8002 16.2815 13.8952 17.0742 14.7154V14.7154Z" fill="#23282F"/>
</g>
<defs>
<clipPath id="clip0_1215_17051">
<rect width="20" height="20" fill="white"/>
</clipPath>
</defs>
</svg>
