<svg width="22" height="16" viewBox="0 0 22 16" fill="none" xmlns="http://www.w3.org/2000/svg">
<path d="M0.731934 11.8335V4.18018C0.731934 3.98649 0.770671 3.82878 0.848145 3.70703C0.925618 3.57975 1.04736 3.47738 1.21338 3.3999C1.67822 3.16748 2.05729 2.89909 2.35059 2.59473C2.64941 2.28483 2.93994 1.85042 3.22217 1.2915C3.39925 0.976074 3.65658 0.818359 3.99414 0.818359H17.9976C18.3351 0.818359 18.5897 0.976074 18.7612 1.2915C19.049 1.85042 19.3395 2.28483 19.6328 2.59473C19.9316 2.89909 20.3135 3.16748 20.7783 3.3999C20.9443 3.47738 21.0661 3.57975 21.1436 3.70703C21.221 3.82878 21.2598 3.98649 21.2598 4.18018V11.8335C21.2598 12.0272 21.221 12.1877 21.1436 12.3149C21.0661 12.4367 20.9443 12.5363 20.7783 12.6138C20.3135 12.8407 19.9316 13.109 19.6328 13.4189C19.3395 13.7233 19.049 14.1577 18.7612 14.7222C18.5897 15.0321 18.3351 15.187 17.9976 15.187H3.99414C3.65658 15.187 3.39925 15.0321 3.22217 14.7222C2.93994 14.1577 2.64941 13.7233 2.35059 13.4189C2.05729 13.109 1.67822 12.8407 1.21338 12.6138C1.04736 12.5363 0.925618 12.4367 0.848145 12.3149C0.770671 12.1877 0.731934 12.0272 0.731934 11.8335ZM4.14355 11.792C4.14355 12.0244 4.21273 12.2098 4.35107 12.3481C4.48942 12.481 4.67204 12.5474 4.89893 12.5474H17.0845C17.3114 12.5474 17.494 12.481 17.6323 12.3481C17.7707 12.2098 17.8398 12.0244 17.8398 11.792V4.22168C17.8398 3.99479 17.7707 3.81217 17.6323 3.67383C17.494 3.53548 17.3114 3.46631 17.0845 3.46631H4.89893C4.67204 3.46631 4.48942 3.53548 4.35107 3.67383C4.21273 3.81217 4.14355 3.99479 4.14355 4.22168V11.792ZM5.19775 6.15576V4.69482C5.19775 4.56755 5.25863 4.50391 5.38037 4.50391H6.31006V6.15576H5.19775ZM5.19775 8.82861V7.19336H6.31006V8.82861H5.19775ZM5.19775 11.3188V9.86621H6.31006V11.5098H5.38037C5.25863 11.5098 5.19775 11.4461 5.19775 11.3188ZM15.6816 6.15576V4.50391H16.6113C16.7331 4.50391 16.7939 4.56755 16.7939 4.69482V6.15576H15.6816ZM15.6816 8.82861V7.19336H16.7939V8.82861H15.6816ZM15.6816 11.5098V9.86621H16.7939V11.3188C16.7939 11.4461 16.7331 11.5098 16.6113 11.5098H15.6816ZM7.35596 11.5098V4.50391H14.6357V11.5098H7.35596Z" fill="white"/>
</svg>
