<svg width="41" height="41" viewBox="0 0 41 41" fill="none" xmlns="http://www.w3.org/2000/svg">
<path fill-rule="evenodd" clip-rule="evenodd" d="M37.5827 13.5293V27.4864C37.5827 33.5168 33.7031 37.5827 27.9135 37.5827H13.1023C7.31102 37.5827 3.41602 33.5168 3.41602 27.4864V13.5293C3.41602 7.48185 7.31102 3.41602 13.1023 3.41602H27.9135C33.7031 3.41602 37.5827 7.48185 37.5827 13.5293ZM19.2181 16.6214V27.4693C19.2181 28.1868 19.7989 28.7506 20.4993 28.7506C21.2168 28.7506 21.7806 28.1868 21.7806 27.4693V16.6214L26.0002 20.8581C26.2393 21.0973 26.581 21.2339 26.9056 21.2339C27.2285 21.2339 27.5548 21.0973 27.811 20.8581C28.3064 20.3627 28.3064 19.5427 27.811 19.0473L21.4048 12.6068C20.9264 12.1285 20.0723 12.1285 19.5939 12.6068L13.1877 19.0473C12.6923 19.5427 12.6923 20.3627 13.1877 20.8581C13.7002 21.3535 14.5031 21.3535 15.0156 20.8581L19.2181 16.6214Z" fill="white"/>
</svg>
