<svg width="20" height="20" viewBox="0 0 20 20" fill="none" xmlns="http://www.w3.org/2000/svg">
<path d="M9.58691 13.3019L10.9316 11.9396C9.89453 11.8517 9.14746 11.5089 8.61133 10.9728C7.12598 9.48743 7.12598 7.38684 8.60254 5.91907L11.5205 2.99231C13.0059 1.51575 15.0977 1.50696 16.583 2.99231C18.0771 4.48645 18.0596 6.57825 16.5918 8.05481L15.0977 9.54016C15.3789 10.1906 15.4756 10.9816 15.3174 11.6671L17.8311 9.16223C19.9932 7.00891 20.002 3.93274 17.8223 1.75305C15.6338 -0.435423 12.5752 -0.417845 10.4131 1.74426L7.35449 4.80286C5.19238 6.96497 5.18359 10.0324 7.36328 12.212C7.87305 12.7306 8.57617 13.1173 9.58691 13.3019ZM10.4043 5.87512L9.05957 7.23743C10.0967 7.33411 10.8438 7.66809 11.3799 8.20423C12.874 9.68958 12.8652 11.7902 11.3887 13.2667L8.4707 16.1847C6.98535 17.67 4.89355 17.67 3.41699 16.1847C1.92285 14.6906 1.93164 12.6075 3.4082 11.131L4.89355 9.63684C4.6123 8.99524 4.52441 8.20423 4.67383 7.50989L2.16016 10.0236C-0.00195312 12.1769 -0.0107422 15.2443 2.16895 17.424C4.35742 19.6124 7.41602 19.5949 9.57812 17.4415L12.6367 14.3741C14.7988 12.212 14.8076 9.14466 12.6279 6.96497C12.1182 6.4552 11.4238 6.06848 10.4043 5.87512Z" fill="#1C1C1E"/>
</svg>
