<svg width="20" height="18" viewBox="0 0 20 18" fill="none" xmlns="http://www.w3.org/2000/svg">
<path d="M2.72852 17.5981C1.90397 17.5981 1.28418 17.3934 0.869141 16.9839C0.459635 16.5744 0.254883 15.9657 0.254883 15.1577V6.5415C0.254883 5.72803 0.459635 5.1193 0.869141 4.71533C1.28418 4.30583 1.90397 4.10107 2.72852 4.10107H16.1592C16.9837 4.10107 17.6007 4.30583 18.0103 4.71533C18.4253 5.12484 18.6328 5.73356 18.6328 6.5415V7.76172H15.5615C14.8919 7.76172 14.3136 7.89176 13.8267 8.15186C13.3397 8.41195 12.9634 8.77441 12.6978 9.23926C12.4377 9.69857 12.3076 10.2326 12.3076 10.8413C12.3076 11.4445 12.4377 11.9785 12.6978 12.4434C12.9634 12.9082 13.3397 13.2707 13.8267 13.5308C14.3136 13.7909 14.8919 13.9209 15.5615 13.9209H18.6328V15.1577C18.6328 15.9657 18.4253 16.5744 18.0103 16.9839C17.6007 17.3934 16.9837 17.5981 16.1592 17.5981H2.72852ZM15.4204 11.688C15.6584 11.688 15.8604 11.605 16.0264 11.439C16.1924 11.2729 16.2754 11.0737 16.2754 10.8413C16.2754 10.6034 16.1924 10.4041 16.0264 10.2437C15.8604 10.0776 15.6584 9.99463 15.4204 9.99463C15.188 9.99463 14.9888 10.0776 14.8228 10.2437C14.6567 10.4041 14.5737 10.6034 14.5737 10.8413C14.5737 11.0737 14.6567 11.2729 14.8228 11.439C14.9888 11.605 15.188 11.688 15.4204 11.688ZM15.5615 12.8418C14.9085 12.8418 14.3828 12.673 13.9844 12.3354C13.5859 11.9979 13.3867 11.4998 13.3867 10.8413C13.3867 10.1828 13.5859 9.68473 13.9844 9.34717C14.3828 9.00407 14.9085 8.83252 15.5615 8.83252H18.5166C18.8984 8.83252 19.1973 8.9515 19.4131 9.18945C19.6344 9.42741 19.7451 9.71517 19.7451 10.0527V11.6299C19.7451 11.9674 19.6344 12.2552 19.4131 12.4932C19.1973 12.7256 18.8984 12.8418 18.5166 12.8418H15.5615ZM5.7832 2.96387L12.6978 0.97168C13.2788 0.80013 13.799 0.750326 14.2583 0.822266C14.7176 0.888672 15.0828 1.08236 15.354 1.40332C15.6252 1.72428 15.7746 2.18083 15.8022 2.77295C15.8022 2.80615 15.8022 2.83936 15.8022 2.87256C15.8022 2.90023 15.8022 2.93066 15.8022 2.96387H5.7832Z" fill="white"/>
</svg>
