<svg width="36" height="36" viewBox="0 0 36 36" fill="none" xmlns="http://www.w3.org/2000/svg">
<path d="M12.3945 28.9277C11.3724 28.9277 10.6042 28.6738 10.0898 28.166C9.58203 27.6647 9.32812 26.9095 9.32812 25.9004V16.2617C9.32812 15.2526 9.58203 14.4974 10.0898 13.9961C10.6042 13.4883 11.3724 13.2344 12.3945 13.2344H23.5957C24.6178 13.2344 25.3828 13.4883 25.8906 13.9961C26.4049 14.4974 26.6621 15.2526 26.6621 16.2617V25.9004C26.6621 26.9095 26.4049 27.6647 25.8906 28.166C25.3828 28.6738 24.6178 28.9277 23.5957 28.9277H12.3945ZM18 8.03906C17.7852 8.03906 17.5996 8.11393 17.4434 8.26367C17.2936 8.41341 17.2188 8.58919 17.2188 8.79102V18.7227L17.2773 20.1875L16.7305 19.6113L15.2168 18C15.0801 17.8438 14.901 17.7656 14.6797 17.7656C14.4779 17.7656 14.3086 17.8307 14.1719 17.9609C14.0417 18.0911 13.9766 18.2539 13.9766 18.4492C13.9766 18.638 14.0547 18.8105 14.2109 18.9668L17.4336 22.0723C17.5312 22.1699 17.6224 22.2383 17.707 22.2773C17.7982 22.3099 17.8958 22.3262 18 22.3262C18.0977 22.3262 18.1888 22.3099 18.2734 22.2773C18.3646 22.2383 18.459 22.1699 18.5566 22.0723L21.7793 18.9668C21.9355 18.8105 22.0137 18.638 22.0137 18.4492C22.0137 18.2539 21.9453 18.0911 21.8086 17.9609C21.6719 17.8307 21.5026 17.7656 21.3008 17.7656C21.0794 17.7656 20.9036 17.8438 20.7734 18L19.2598 19.6113L18.7129 20.1875L18.7715 18.7227V8.79102C18.7715 8.58919 18.6934 8.41341 18.5371 8.26367C18.3874 8.11393 18.2083 8.03906 18 8.03906Z" fill="white"/>
</svg>
