<svg width="13" height="16" viewBox="0 0 13 16" fill="none" xmlns="http://www.w3.org/2000/svg">
<path d="M6.36579 15.6666C6.5014 15.6666 6.7048 15.6214 6.90067 15.5159C11.2324 13.1579 12.7391 12.0656 12.7391 9.32338V3.6356C12.7391 2.73158 12.3926 2.40765 11.6317 2.08371C10.803 1.72963 7.98549 0.750279 7.17188 0.47154C6.91574 0.388672 6.62946 0.335938 6.36579 0.335938C6.10965 0.335938 5.81585 0.403739 5.56724 0.47154C4.75363 0.705078 1.9361 1.73717 1.10742 2.08371C0.34654 2.40011 0 2.73158 0 3.6356V9.32338C0 12.0656 1.5067 13.1429 5.83845 15.5159C6.03432 15.6214 6.23772 15.6666 6.36579 15.6666ZM6.36579 14.0695C6.26032 14.0695 6.15485 14.0318 5.93638 13.8962C2.50112 11.8019 1.43136 11.2369 1.43136 9.04464V3.87667C1.43136 3.60547 1.4841 3.5 1.69503 3.4096C2.80999 2.96512 4.9721 2.24944 5.96652 1.8577C6.13979 1.79743 6.26032 1.77483 6.36579 1.77483C6.47879 1.77483 6.59933 1.79743 6.7726 1.8577C7.76702 2.24944 9.91406 3.01032 11.0366 3.4096C11.255 3.49247 11.3078 3.60547 11.3078 3.87667V9.04464C11.3078 11.252 10.1928 11.8471 6.80273 13.8962C6.58426 14.0318 6.47879 14.0695 6.36579 14.0695ZM3.66881 10.4383C3.66881 11.0109 3.92494 11.2746 4.45982 11.2746H8.2793C8.81417 11.2746 9.07031 11.0109 9.07031 10.4383V7.50028C9.07031 6.988 8.85938 6.72433 8.4375 6.67913V5.83538C8.4375 4.44922 7.60128 3.5226 6.37333 3.5226C5.13784 3.5226 4.30915 4.44922 4.30915 5.83538V6.67913C3.87974 6.72433 3.66881 6.988 3.66881 7.50028V10.4383ZM5.1981 6.66406V5.76004C5.1981 4.93136 5.66518 4.38142 6.37333 4.38142C7.08147 4.38142 7.54855 4.93136 7.54855 5.76004V6.66406H5.1981Z" fill="#FAFAFA"/>
</svg>
