<svg width="22" height="22" viewBox="0 0 22 22" fill="none" xmlns="http://www.w3.org/2000/svg">
<path d="M6.53045 14.0925C6.24041 14.3825 6.2266 14.9004 6.53735 15.1974C6.8343 15.5081 7.35913 15.4943 7.64917 15.2043L10.9984 11.855L14.3477 15.2043C14.6446 15.5012 15.1557 15.5081 15.4526 15.1974C15.7634 14.9004 15.7565 14.3825 15.4595 14.0856L12.1102 10.7363L15.4595 7.39394C15.7565 7.09009 15.7634 6.57907 15.4526 6.28212C15.1557 5.97137 14.6446 5.97827 14.3477 6.27522L10.9984 9.62448L7.64917 6.27522C7.35913 5.98518 6.8343 5.97137 6.53735 6.28212C6.2266 6.57907 6.24041 7.09699 6.53045 7.38703L9.87971 10.7363L6.53045 14.0925Z" fill="#A5A8AD"/>
</svg>
