<svg width="22" height="22" viewBox="0 0 22 22" fill="none" xmlns="http://www.w3.org/2000/svg">
<path d="M3.24609 10.1347C3.24609 10.6112 3.63281 10.9979 4.10931 10.9979C4.5927 10.9979 4.97252 10.6112 4.97252 10.1347V9.68583C4.97252 8.5602 5.74595 7.8351 6.91992 7.8351H12.1061V9.27839C12.1061 9.69273 12.3685 9.95515 12.7898 9.95515C12.9762 9.95515 13.1489 9.88609 13.287 9.7756L16.0078 7.51053C16.3462 7.24121 16.3393 6.78544 16.0078 6.50921L13.287 4.23723C13.1489 4.11984 12.9762 4.05078 12.7898 4.05078C12.3685 4.05078 12.1061 4.3132 12.1061 4.72754V6.1363H7.05804C4.71701 6.1363 3.24609 7.44148 3.24609 9.52009V10.1347ZM9.89628 12.0269C9.89628 11.6125 9.63386 11.3432 9.21952 11.3432C9.03306 11.3432 8.85352 11.4192 8.7154 11.5296L6.00146 13.7947C5.66309 14.064 5.66309 14.5129 6.00146 14.796L8.7154 17.068C8.85352 17.1854 9.03306 17.2545 9.21952 17.2545C9.63386 17.2545 9.89628 16.992 9.89628 16.5777V15.162H14.9512C17.2923 15.162 18.7563 13.85 18.7563 11.7783V11.1636C18.7563 10.6802 18.3765 10.2935 17.8931 10.2935C17.4166 10.2935 17.0299 10.6802 17.0299 11.1636V11.6125C17.0299 12.7312 16.2633 13.4632 15.0824 13.4632H9.89628V12.0269Z" fill="#A5A8AD"/>
</svg>
