<svg width="20" height="21" viewBox="0 0 20 21" fill="none" xmlns="http://www.w3.org/2000/svg">
<path d="M1.2207 7.11914C0.69987 7.11914 0.439453 6.85221 0.439453 6.31836V3.92578C0.439453 2.92318 0.693359 2.17122 1.20117 1.66992C1.71549 1.16211 2.48372 0.908203 3.50586 0.908203H5.88867C6.42253 0.908203 6.68945 1.16862 6.68945 1.68945C6.68945 2.2168 6.42253 2.48047 5.88867 2.48047H3.52539C3.03711 2.48047 2.66276 2.61068 2.40234 2.87109C2.14193 3.125 2.01172 3.50586 2.01172 4.01367V6.31836C2.01172 6.85221 1.74805 7.11914 1.2207 7.11914ZM18.7695 7.11914C18.2487 7.11914 17.9883 6.85221 17.9883 6.31836V4.01367C17.9883 3.50586 17.8548 3.125 17.5879 2.87109C17.321 2.61068 16.9466 2.48047 16.4648 2.48047H14.1016C13.5742 2.48047 13.3105 2.2168 13.3105 1.68945C13.3105 1.16862 13.5742 0.908203 14.1016 0.908203H16.4941C17.5163 0.908203 18.2812 1.16211 18.7891 1.66992C19.3034 2.17122 19.5605 2.92318 19.5605 3.92578V6.31836C19.5605 6.85221 19.2969 7.11914 18.7695 7.11914ZM3.50586 20.0195C2.48372 20.0195 1.71549 19.7656 1.20117 19.2578C0.693359 18.7565 0.439453 18.0013 0.439453 16.9922V14.6094C0.439453 14.0755 0.69987 13.8086 1.2207 13.8086C1.74805 13.8086 2.01172 14.0755 2.01172 14.6094V16.9141C2.01172 17.4219 2.14193 17.8027 2.40234 18.0566C2.66276 18.3171 3.03711 18.4473 3.52539 18.4473H5.88867C6.42253 18.4473 6.68945 18.7109 6.68945 19.2383C6.68945 19.7591 6.42253 20.0195 5.88867 20.0195H3.50586ZM14.1016 20.0195C13.5742 20.0195 13.3105 19.7591 13.3105 19.2383C13.3105 18.7109 13.5742 18.4473 14.1016 18.4473H16.4648C16.9466 18.4473 17.321 18.3171 17.5879 18.0566C17.8548 17.8027 17.9883 17.4219 17.9883 16.9141V14.6094C17.9883 14.0755 18.2487 13.8086 18.7695 13.8086C19.2969 13.8086 19.5605 14.0755 19.5605 14.6094V16.9922C19.5605 18.0013 19.3034 18.7565 18.7891 19.2578C18.2812 19.7656 17.5163 20.0195 16.4941 20.0195H14.1016ZM5.74219 15.1465C5.625 15.1465 5.52409 15.1074 5.43945 15.0293C5.35482 14.9447 5.3125 14.8405 5.3125 14.7168V11.3184C5.3125 11.1947 5.35482 11.0938 5.43945 11.0156C5.52409 10.931 5.625 10.8887 5.74219 10.8887H9.14062C9.26432 10.8887 9.36523 10.931 9.44336 11.0156C9.52799 11.0938 9.57031 11.1947 9.57031 11.3184V14.7168C9.57031 14.8405 9.52799 14.9447 9.44336 15.0293C9.36523 15.1074 9.26432 15.1465 9.14062 15.1465H5.74219ZM6.16211 14.2969H8.7207V11.7383H6.16211V14.2969ZM6.91406 13.5449V12.4805H7.97852V13.5449H6.91406ZM5.74219 10.0391C5.625 10.0391 5.52409 10 5.43945 9.92188C5.35482 9.83724 5.3125 9.73633 5.3125 9.61914V6.21094C5.3125 6.09375 5.35482 5.99284 5.43945 5.9082C5.52409 5.82357 5.625 5.78125 5.74219 5.78125H9.14062C9.26432 5.78125 9.36523 5.82357 9.44336 5.9082C9.52799 5.99284 9.57031 6.09375 9.57031 6.21094V9.61914C9.57031 9.73633 9.52799 9.83724 9.44336 9.92188C9.36523 10 9.26432 10.0391 9.14062 10.0391H5.74219ZM6.16211 9.18945H8.7207V6.63086H6.16211V9.18945ZM6.91406 8.44727V7.37305H7.97852V8.44727H6.91406ZM10.8398 10.0391C10.7227 10.0391 10.6217 10 10.5371 9.92188C10.4525 9.83724 10.4102 9.73633 10.4102 9.61914V6.21094C10.4102 6.09375 10.4525 5.99284 10.5371 5.9082C10.6217 5.82357 10.7227 5.78125 10.8398 5.78125H14.248C14.3652 5.78125 14.4629 5.82357 14.541 5.9082C14.6257 5.99284 14.668 6.09375 14.668 6.21094V9.61914C14.668 9.73633 14.6257 9.83724 14.541 9.92188C14.4629 10 14.3652 10.0391 14.248 10.0391H10.8398ZM11.2598 9.18945H13.8184V6.63086H11.2598V9.18945ZM12.0117 8.44727V7.37305H13.0762V8.44727H12.0117ZM10.5371 15.0195V13.9551H11.6016V15.0195H10.5371ZM13.4766 15.0195V13.9551H14.5508V15.0195H13.4766ZM12.0117 13.5449V12.4805H13.0762V13.5449H12.0117ZM10.5371 12.0703V11.0059H11.6016V12.0703H10.5371ZM13.4766 12.0703V11.0059H14.5508V12.0703H13.4766Z" fill="white"/>
</svg>
