<svg width="18" height="22" viewBox="0 0 18 22" fill="none" xmlns="http://www.w3.org/2000/svg">
<path d="M9.72949 20.7485L16.541 16.811C17.4639 16.2748 17.7188 15.7651 17.7188 14.7543V6.65959C17.7188 5.23577 16.4707 4.85784 15.4775 5.42913L13.9482 6.30803V4.45354C13.9482 3.02971 12.7002 2.64299 11.707 3.21428L10.3711 3.98772V2.38811C10.3711 0.964282 9.13184 0.586352 8.13867 1.15764L1.19531 5.17424C0.307617 5.68401 0 6.22014 0 7.24846V15.1235C0 16.7319 1.03711 17.2592 2.39062 16.477L3.57715 15.7914V17.1801C3.57715 18.7885 4.60547 19.3158 5.95898 18.5336L7.33887 17.7338V19.3862C7.33887 20.9946 8.37598 21.5219 9.72949 20.7485ZM1.69629 14.7455V7.28362C1.69629 6.94084 1.79297 6.82659 2.05664 6.66838L8.53418 2.92424C8.61328 2.8803 8.6748 2.92424 8.6748 3.00334V4.97209L4.76367 7.23088C3.87598 7.74944 3.57715 8.27678 3.57715 9.3051V13.8051L1.82812 14.8158C1.74902 14.8598 1.69629 14.8246 1.69629 14.7455ZM7.33887 11.5112V15.7563L5.40527 16.8725C5.32617 16.9164 5.27344 16.8901 5.27344 16.8022V9.34026C5.27344 8.99749 5.36133 8.88323 5.625 8.72502L12.1025 4.98088C12.1904 4.93694 12.252 4.98088 12.252 5.05999V7.29241L8.53418 9.43694C7.64648 9.95549 7.33887 10.4916 7.33887 11.5112ZM9.39551 10.9311L15.873 7.19573C15.9609 7.14299 16.0225 7.18694 16.0225 7.26604V14.6928C16.0225 15.0092 15.9521 15.1498 15.6709 15.3168L9.17578 19.0873C9.09668 19.1313 9.03516 19.0961 9.03516 19.0082V11.5551C9.03516 11.2035 9.13184 11.0893 9.39551 10.9311Z" fill="#D4D4D8" fill-opacity="0.78"/>
</svg>
