<svg width="24" height="24" viewBox="0 0 24 24" fill="none" xmlns="http://www.w3.org/2000/svg">
<path d="M12.0014 12.8502C12.3931 12.8502 12.7095 12.5338 12.7095 12.1571V4.91741L12.6493 3.80246L13.1164 4.3524L14.171 5.47489C14.2916 5.61049 14.4648 5.67829 14.6381 5.67829C14.9847 5.67829 15.2709 5.42969 15.2709 5.07561C15.2709 4.88728 15.1956 4.75167 15.0675 4.62361L12.5438 2.19029C12.3555 2.00949 12.1897 1.94922 12.0014 1.94922C11.8206 1.94922 11.6473 2.00949 11.4665 2.19029L8.93527 4.62361C8.8072 4.75167 8.7394 4.88728 8.7394 5.07561C8.7394 5.42969 9.01814 5.67829 9.36468 5.67829C9.53795 5.67829 9.71875 5.61049 9.83929 5.47489L10.8864 4.3524L11.3535 3.79492L11.3008 4.91741V12.1571C11.3008 12.5338 11.6172 12.8502 12.0014 12.8502ZM5.55273 19.7056H18.4425C20.0773 19.7056 20.9286 18.8619 20.9286 17.2497V12.8276C20.9286 12.029 20.8532 11.5921 20.469 11.1325L18.2768 8.43555C17.2748 7.20759 16.8982 6.91378 15.5195 6.91378H14.1032V8.16434H15.5572C16.077 8.16434 16.4085 8.26981 16.8379 8.79715L19.1657 11.6825C19.4294 12.0215 19.3239 12.1646 18.9397 12.1646H14.2162C13.8245 12.1646 13.6437 12.4434 13.6437 12.7372V12.7673C13.6437 13.5809 13.0109 14.4473 12.0014 14.4473C10.9844 14.4473 10.3516 13.5809 10.3516 12.7673V12.7372C10.3516 12.4434 10.1783 12.1646 9.77902 12.1646H5.06306C4.67132 12.1646 4.58845 11.9989 4.83705 11.6825L7.14983 8.81976C7.59431 8.27734 7.91825 8.16434 8.44559 8.16434H9.89955V6.91378H8.48326C7.10463 6.91378 6.73549 7.20006 5.71094 8.45061L3.52623 11.1325C3.15709 11.5845 3.07422 12.029 3.07422 12.8276V17.2497C3.07422 18.8619 3.9255 19.7056 5.55273 19.7056ZM5.62807 18.1989C4.93499 18.1989 4.55831 17.8373 4.55831 17.1141V13.4905H9.07087C9.31194 14.8315 10.4796 15.8259 12.0014 15.8259C13.5232 15.8259 14.6908 14.8315 14.9319 13.4905H19.4445V17.1141C19.4445 17.8373 19.0603 18.1989 18.3672 18.1989H5.62807Z" fill="#FAFAFA"/>
</svg>
