<svg width="36" height="36" viewBox="0 0 36 36" fill="none" xmlns="http://www.w3.org/2000/svg">
<path d="M9.44531 28.5566C8.47526 28.5566 7.74609 28.3158 7.25781 27.834C6.77604 27.3522 6.53516 26.6361 6.53516 25.6855V15.5488C6.53516 14.5918 6.77604 13.8757 7.25781 13.4004C7.74609 12.9186 8.47526 12.6777 9.44531 12.6777H25.2461C26.2161 12.6777 26.9421 12.9186 27.4238 13.4004C27.9121 13.8822 28.1562 14.5983 28.1562 15.5488V16.9844H24.543C23.7552 16.9844 23.0749 17.1374 22.502 17.4434C21.929 17.7493 21.4863 18.1758 21.1738 18.7227C20.8678 19.263 20.7148 19.8913 20.7148 20.6074C20.7148 21.3171 20.8678 21.9453 21.1738 22.4922C21.4863 23.0391 21.929 23.4655 22.502 23.7715C23.0749 24.0775 23.7552 24.2305 24.543 24.2305H28.1562V25.6855C28.1562 26.6361 27.9121 27.3522 27.4238 27.834C26.9421 28.3158 26.2161 28.5566 25.2461 28.5566H9.44531ZM24.377 21.6035C24.6569 21.6035 24.8945 21.5059 25.0898 21.3105C25.2852 21.1152 25.3828 20.8809 25.3828 20.6074C25.3828 20.3275 25.2852 20.0931 25.0898 19.9043C24.8945 19.709 24.6569 19.6113 24.377 19.6113C24.1035 19.6113 23.8691 19.709 23.6738 19.9043C23.4785 20.0931 23.3809 20.3275 23.3809 20.6074C23.3809 20.8809 23.4785 21.1152 23.6738 21.3105C23.8691 21.5059 24.1035 21.6035 24.377 21.6035ZM24.543 22.9609C23.7747 22.9609 23.1562 22.7624 22.6875 22.3652C22.2188 21.9681 21.9844 21.3822 21.9844 20.6074C21.9844 19.8327 22.2188 19.2467 22.6875 18.8496C23.1562 18.446 23.7747 18.2441 24.543 18.2441H28.0195C28.4688 18.2441 28.8203 18.3841 29.0742 18.6641C29.3346 18.944 29.4648 19.2826 29.4648 19.6797V21.5352C29.4648 21.9323 29.3346 22.2708 29.0742 22.5508C28.8203 22.8242 28.4688 22.9609 28.0195 22.9609H24.543ZM13.0391 11.3398L21.1738 8.99609C21.8574 8.79427 22.4694 8.73568 23.0098 8.82031C23.5501 8.89844 23.9798 9.1263 24.2988 9.50391C24.6178 9.88151 24.7936 10.4186 24.8262 11.1152C24.8262 11.1543 24.8262 11.1934 24.8262 11.2324C24.8262 11.265 24.8262 11.3008 24.8262 11.3398H13.0391Z" fill="white"/>
</svg>
