<svg width="257" height="256" viewBox="0 0 257 256" fill="none" xmlns="http://www.w3.org/2000/svg">
<path d="M17.9895 192.627C6.8725 173.659 0.5 151.573 0.5 128C0.5 68.3527 41.298 18.2352 96.511 4.02973C98.2595 3.57973 100.023 8.75123 101.799 8.37423C110.411 6.54673 119.343 5.58523 128.5 5.58523C162.12 5.58523 192.712 12.9617 215.553 34.1597C240.74 57.5352 256.5 90.9267 256.5 128C256.5 160.476 244.405 190.128 224.473 212.696C223.527 213.767 18.3365 193.219 17.9895 192.627Z" fill="#067744"/>
<path d="M236.943 120.888C236.943 178.002 190.643 224.303 133.528 224.303C76.4138 224.303 30.1133 178.002 30.1133 120.888C30.1133 63.7732 76.4138 17.4727 133.528 17.4727C190.643 17.4727 236.943 63.7732 236.943 120.888Z" fill="#0CAA63"/>
<path d="M220.723 11.25V214.622C219.66 215.727 218.577 216.812 217.475 217.878C217.308 218.039 217.141 220.341 216.973 220.501C201.01 235.773 181.101 246.954 158.929 252.361C156.997 252.832 155.047 246.009 153.081 246.392C145.126 247.939 136.908 248.75 128.5 248.75C123.005 248.75 117.59 248.404 112.277 247.732V11.25C112.277 7.108 115.635 3.75 119.777 3.75H213.224C217.365 3.75 220.723 7.108 220.723 11.25Z" fill="#FDEFB5"/>
<path d="M125.436 248.75H102.276C98.1344 248.75 94.7764 245.392 94.7764 241.25V11.25C94.7764 7.108 98.1344 3.75 102.276 3.75H125.436C121.294 3.75 117.936 7.108 117.936 11.25V241.25C117.936 245.392 121.294 248.75 125.436 248.75Z" fill="#FDD844"/>
<path d="M127.139 22.25H112.139C110.068 22.25 108.389 20.571 108.389 18.5C108.389 16.429 110.068 14.75 112.139 14.75H127.139C129.21 14.75 130.889 16.429 130.889 18.5C130.889 20.571 129.21 22.25 127.139 22.25ZM205.25 18.5C205.25 16.429 203.571 14.75 201.5 14.75H201.383C199.312 14.75 197.633 16.429 197.633 18.5C197.633 20.571 199.312 22.25 201.383 22.25H201.5C203.571 22.25 205.25 20.571 205.25 18.5ZM190.016 18.5C190.016 16.429 188.337 14.75 186.266 14.75H186.149C184.078 14.75 182.399 16.429 182.399 18.5C182.399 20.571 184.078 22.25 186.149 22.25H186.266C188.337 22.25 190.016 20.571 190.016 18.5Z" fill="#93E300"/>
<path d="M205.25 42.5V73.932L204.362 74.734L204.234 81.798L205.25 84.5385V108.769L204.575 109.086L204.543 116.905C204.543 117.25 205.18 118.175 205.054 118.474C204.674 119.371 203.786 120.001 202.75 120.001H123.245C121.864 120.001 120.745 118.881 120.745 117.501V42.5C120.745 41.1195 121.864 40 123.245 40H202.75C204.131 40 205.25 41.1195 205.25 42.5Z" fill="#D8F469"/>
<path d="M125.516 120H112.75C111.369 120 110.25 118.881 110.25 117.5V97.3245L111.468 93.7125L110.957 87.968L110.25 86.718V52.854L111.553 51.202V45.5L110.25 43.138V42.5C110.25 41.1195 111.369 40 112.75 40H125.516C124.135 40 123.016 41.1195 123.016 42.5V117.5C123.016 118.881 124.135 120 125.516 120Z" fill="#93E300"/>
<path d="M202.75 158.75H112.75C111.37 158.75 110.25 157.631 110.25 156.25V136.25C110.25 134.87 111.37 133.75 112.75 133.75H202.75C204.131 133.75 205.25 134.87 205.25 136.25V156.25C205.25 157.631 204.131 158.75 202.75 158.75ZM202.75 193.75H112.75C111.37 193.75 110.25 192.631 110.25 191.25V171.25C110.25 169.869 111.37 168.75 112.75 168.75H202.75C204.131 168.75 205.25 169.869 205.25 171.25V191.25C205.25 192.631 204.131 193.75 202.75 193.75ZM202.75 228.75H112.75C111.37 228.75 110.25 227.631 110.25 226.25V206.25C110.25 204.869 111.37 203.75 112.75 203.75H202.75C204.131 203.75 205.25 204.869 205.25 206.25V226.25C205.25 227.631 204.131 228.75 202.75 228.75Z" fill="#D8F469"/>
<path d="M79.7447 75.8992C79.7447 77.9702 78.0657 79.6492 75.9947 79.6492H13.5602L21.2217 87.3107C22.6862 88.7752 22.6862 91.1497 21.2217 92.6137C20.4897 93.3457 19.5297 93.7122 18.5702 93.7122C17.6107 93.7122 16.6507 93.3462 15.9187 92.6137L2.02416 78.7187C0.559656 77.2542 0.559656 74.8797 2.02416 73.4157L15.9187 59.5212C17.3832 58.0567 19.7577 58.0567 21.2217 59.5212C22.6862 60.9857 22.6862 63.3602 21.2217 64.8242L13.8972 72.1487H75.9947C78.0657 72.1492 79.7447 73.8282 79.7447 75.8992Z" fill="#FF7117"/>
<path d="M78.6463 108.719L64.7518 122.614C64.0198 123.346 63.0598 123.713 62.1003 123.713C61.1408 123.713 60.1808 123.347 59.4488 122.614C57.9843 121.15 57.9843 118.775 59.4488 117.311L66.7733 109.987H4.67578C2.60478 109.987 0.925781 108.308 0.925781 106.237C0.925781 104.166 2.60478 102.487 4.67578 102.487H67.1103L59.4488 94.8252C57.9843 93.3607 57.9843 90.9862 59.4488 89.5222C60.9133 88.0577 63.2878 88.0577 64.7518 89.5222L78.6463 103.417C80.1113 104.881 80.1113 107.255 78.6463 108.719Z" fill="#FDEFB5"/>
<path d="M205.25 108.768V117.5C205.25 117.864 205.172 118.21 205.032 118.522L169.464 87.5602L163.258 93.1482C161.868 94.3997 159.769 94.4362 158.337 93.2332L110.25 52.8532V43.1377C110.441 43.2472 110.625 43.3752 110.799 43.5217L160.663 85.3927L166.913 79.7652C168.32 78.4972 170.455 78.4787 171.885 79.7237L205.25 108.768Z" fill="#FF7117"/>
<path d="M169 18.5C169 20.571 167.321 22.25 165.25 22.25H150.25C148.179 22.25 146.5 20.571 146.5 18.5C146.5 16.429 148.179 14.75 150.25 14.75H165.25C167.321 14.75 169 16.429 169 18.5ZM225.5 37.25C227.571 37.25 229.25 35.571 229.25 33.5V18.5C229.25 16.429 227.571 14.75 225.5 14.75C225.144 14.75 224.799 14.7995 224.473 14.8925V11.25C224.473 5.0465 219.427 0 213.223 0H102.276C96.073 0 91.0265 5.0465 91.0265 11.25V14.8925C90.7 14.8 90.356 14.75 90 14.75C87.929 14.75 86.25 16.429 86.25 18.5V33.5C86.25 35.571 87.929 37.25 90 37.25C90.356 37.25 90.7005 37.2005 91.0265 37.1075V250.427C93.4955 251.182 95.9965 251.864 98.5265 252.471V11.25C98.5265 9.182 100.209 7.5 102.276 7.5H213.223C215.291 7.5 216.973 9.182 216.973 11.25V220.501C219.581 218.006 222.083 215.402 224.473 212.696V64.3735C224.8 64.466 225.144 64.516 225.5 64.516C227.571 64.516 229.25 62.837 229.25 60.766V45.766C229.25 43.695 227.571 42.016 225.5 42.016C225.144 42.016 224.799 42.0655 224.473 42.1585V37.1075C224.799 37.2005 225.144 37.25 225.5 37.25Z" fill="#00DA26"/>
<path d="M205.25 73.9318V84.5383L194.533 73.8218L187.801 80.5543C186.336 82.0188 183.962 82.0188 182.498 80.5543L166.249 64.3058L138.913 91.6418C137.449 93.1063 135.075 93.1063 133.611 91.6418L124.771 82.8028L110.25 97.3243V86.7178L122.119 74.8483C123.584 73.3838 125.959 73.3838 127.423 74.8483L136.262 83.6873L163.598 56.3513C165.062 54.8868 167.436 54.8868 168.9 56.3513L185.149 72.5998L191.882 65.8673C193.346 64.4028 195.72 64.4023 197.184 65.8673L205.25 73.9318Z" fill="#00DA26"/>
<path d="M195.117 149.981H121.771C119.7 149.981 118.021 148.302 118.021 146.231C118.021 144.16 119.7 142.481 121.771 142.481H195.117C197.188 142.481 198.867 144.16 198.867 146.231C198.867 148.302 197.188 149.981 195.117 149.981ZM195.117 212.519H174.622C172.551 212.519 170.872 214.198 170.872 216.269C170.872 218.34 172.551 220.019 174.622 220.019H195.117C197.188 220.019 198.867 218.34 198.867 216.269C198.867 214.198 197.188 212.519 195.117 212.519ZM195.117 177.5H183.303C181.232 177.5 179.553 179.179 179.553 181.25C179.553 183.321 181.232 185 183.303 185H195.117C197.188 185 198.867 183.321 198.867 181.25C198.867 179.179 197.188 177.5 195.117 177.5Z" fill="#00DA26"/>
<path d="M158.929 252.361C149.176 254.739 138.986 256 128.5 256C91.562 256 58.278 240.354 34.915 215.327C34.344 214.715 33.7785 209.247 33.2195 208.624C32.101 207.378 31.006 206.109 29.9365 204.82V140C29.9365 134.477 34.4135 130 39.9365 130H151.213C156.736 130 161.213 134.477 161.213 140V246C161.213 248.417 160.356 250.632 158.929 252.361Z" fill="#FF7117"/>
<path d="M27.9893 130H44.9148C39.3918 130 34.9148 134.477 34.9148 140V215.327C28.4758 208.429 22.7903 200.818 17.9893 192.627V140C17.9893 134.477 22.4663 130 27.9893 130Z" fill="#FF5F00"/>
<path d="M178.138 193C178.138 201.974 170.863 209.25 161.888 209.25H103.292C94.318 209.25 87.0425 201.974 87.0425 193C87.0425 184.026 94.318 176.75 103.292 176.75H161.888C170.863 176.75 178.138 184.026 178.138 193Z" fill="#FF9D5C"/>
<path d="M111.027 209.25H98.3882C89.4137 209.25 82.1382 201.974 82.1382 193C82.1382 184.026 89.4137 176.75 98.3882 176.75H111.027C102.052 176.75 94.7767 184.026 94.7767 193C94.7767 201.974 102.052 209.25 111.027 209.25Z" fill="#FF8835"/>
<path d="M108.389 193C108.389 198.523 103.912 203 98.3887 203C92.8657 203 88.3887 198.523 88.3887 193C88.3887 187.477 92.8657 183 98.3887 183C103.911 183 108.389 187.477 108.389 193Z" fill="#FFC143"/>
</svg>
