<svg width="257" height="256" viewBox="0 0 257 256" fill="none" xmlns="http://www.w3.org/2000/svg">
<path d="M221.569 135.346H2.54209C1.51459 135.346 0.660589 134.54 0.617089 133.514C0.534089 131.553 0.495089 129.58 0.501089 127.597C0.719089 56.875 57.7781 0 128.501 0C185.246 0 233.367 36.926 250.146 88.0595C237.439 101.39 227.591 117.473 221.569 135.346Z" fill="#FDD844"/>
<path d="M242.085 124.973C242.085 183.968 194.26 231.792 135.266 231.792C76.2713 231.792 28.4468 183.968 28.4468 124.973C28.4468 65.9788 76.2713 18.1543 135.266 18.1543C194.26 18.1543 242.085 65.9788 242.085 124.973Z" fill="#FDEFB5"/>
<path d="M211.687 50.0296C210.883 50.0296 210.1 49.7711 209.454 49.2921L192.163 36.4786L146.946 85.6076C146.234 86.3811 145.232 86.8181 144.186 86.8181C144.123 86.8181 144.06 86.8166 143.996 86.8131C142.883 86.7566 141.852 86.2076 141.184 85.3151L91.5963 19.0686L54.6213 65.5526C53.4743 66.9956 51.4483 67.3901 49.8428 66.4836L25.1118 52.5201C26.6048 50.4786 28.1573 48.4821 29.7658 46.5346L50.7438 58.3791L88.7523 10.5971C89.4643 9.70214 90.5448 9.18164 91.6868 9.18164C91.7048 9.18164 91.7233 9.18164 91.7418 9.18214C92.9038 9.19914 93.9923 9.75414 94.6888 10.6846L144.484 77.2076L188.928 28.9191C190.226 27.5086 192.379 27.3036 193.92 28.4461L212.925 42.5301L211.687 50.0296Z" fill="#FF7117"/>
<path d="M243.307 184.661C225.309 221.059 190.512 247.669 149.045 254.36C145.702 254.899 142.29 254.899 138.947 254.36C82.2353 245.209 37.9968 198.8 32.1493 141.048C31.7368 136.975 34.9673 133.447 39.0613 133.447H237.684C233.59 133.447 230.359 136.975 230.772 141.048C232.344 156.573 236.69 171.278 243.307 184.661Z" fill="#0CAA63"/>
<path d="M150.016 254.199C143.021 255.383 135.832 256 128.5 256C59.6323 256 3.46777 201.613 0.61377 133.447H43.6458C46.1963 194.355 91.3093 244.262 150.016 254.199Z" fill="#067744"/>
<path d="M240.287 113.563L65.39 187.8C61.577 189.419 57.174 187.64 55.556 183.827L18.7075 97.0149C17.089 93.2024 18.868 88.7989 22.681 87.1809L197.578 12.9439C201.391 11.3254 205.794 13.1044 207.412 16.9174L244.26 103.729C245.879 107.542 244.1 111.945 240.287 113.563Z" fill="#00B44B"/>
<path d="M232.148 156.773L63.4546 188.829C59.3856 189.602 55.4596 186.931 54.6866 182.861L37.0801 90.2105C36.3066 86.141 38.9786 82.2155 43.0481 81.442L229.708 45.972C233.777 45.199 237.703 47.8705 238.476 51.94L252.668 126.624C255.327 140.616 246.14 154.115 232.148 156.773Z" fill="#00DA26"/>
<path d="M72.234 88.1914V182.5C72.234 186.642 68.876 190 64.734 190H44C39.858 190 36.5 186.642 36.5 182.5V88.1914C36.5 84.0494 39.858 80.6914 44 80.6914H64.734C68.876 80.6914 72.234 84.0494 72.234 88.1914Z" fill="#8AD303"/>
<path d="M256.5 88.1914V182.5C256.5 186.642 253.142 190 249 190H59C54.858 190 51.5 186.642 51.5 182.5V88.1914C51.5 84.0494 54.858 80.6914 59 80.6914H249C253.142 80.6914 256.5 84.0494 256.5 88.1914Z" fill="#93E300"/>
<path d="M91.6641 135.346C91.6641 114.249 108.767 97.1466 129.864 97.1466H170.477C191.574 97.1466 208.676 114.249 208.676 135.346C208.676 156.443 191.574 173.546 170.477 173.546H129.864C108.767 173.546 91.6641 156.443 91.6641 135.346ZM231.975 102.474H241.975C244.736 102.474 246.975 100.235 246.975 97.4736C246.975 94.7121 244.736 92.4736 241.975 92.4736H231.975C229.213 92.4736 226.975 94.7121 226.975 97.4736C226.975 100.235 229.213 102.474 231.975 102.474ZM226.975 173.218C226.975 170.457 229.213 168.218 231.975 168.218H241.975C244.736 168.218 246.975 170.457 246.975 173.218C246.975 175.98 244.736 178.218 241.975 178.218H231.975C229.213 178.218 226.975 175.98 226.975 173.218Z" fill="#00DA26"/>
<path d="M46.5 97.4736C46.5 94.7121 48.7385 92.4736 51.5 92.4736H61.5C64.2615 92.4736 66.5 94.7121 66.5 97.4736C66.5 100.235 64.2615 102.474 61.5 102.474H51.5C48.7385 102.474 46.5 100.235 46.5 97.4736Z" fill="#00DA26"/>
<path d="M221.675 69.8508L211.851 71.7173C209.138 72.2328 206.521 70.4518 206.005 67.7388C205.49 65.0258 207.271 62.4088 209.984 61.8933L219.808 60.0263C222.521 59.5108 225.138 61.2923 225.653 64.0053C226.169 66.7183 224.388 69.3353 221.675 69.8508Z" fill="#00B44B"/>
<path d="M179.709 36.5783C178.715 34.0018 179.998 31.1078 182.574 30.1133L191.904 26.5133C194.48 25.5193 197.374 26.8018 198.368 29.3783C199.362 31.9548 198.08 34.8488 195.503 35.8433L186.174 39.4433C183.598 40.4373 180.703 39.1548 179.709 36.5783Z" fill="#067744"/>
<path d="M108.075 133.75V156.033C108.075 158.087 106.493 159.877 104.44 159.939C102.317 160.002 100.575 158.3 100.575 156.19V133.75C100.575 131.679 102.254 130 104.325 130C106.396 130 108.075 131.679 108.075 133.75ZM74.1211 133.75V156.033C74.1211 158.087 75.7036 159.877 77.7561 159.939C79.8796 160.002 81.6211 158.3 81.6211 156.19V133.75C81.6211 131.679 79.9421 130 77.8711 130C75.8001 130 74.1211 131.679 74.1211 133.75ZM140.798 133.75V144.765C140.798 149.411 136.997 153.367 132.352 153.29C127.837 153.214 124.187 149.518 124.187 144.986V133.75C124.187 131.679 122.508 130 120.437 130C118.366 130 116.687 131.679 116.687 133.75V144.65C116.687 153.25 123.418 160.529 132.014 160.784C140.947 161.049 148.298 153.86 148.298 144.986V133.75C148.298 131.679 146.619 130 144.548 130C142.477 130 140.798 131.679 140.798 133.75ZM220.289 133.75V156.033C220.289 158.087 221.872 159.877 223.924 159.939C226.048 160.002 227.789 158.3 227.789 156.19V133.75C227.789 131.679 226.11 130 224.039 130C221.968 130 220.289 131.679 220.289 133.75ZM161.395 133.75V156.033C161.395 158.087 162.977 159.877 165.03 159.939C167.153 160.002 168.895 158.3 168.895 156.19V133.75C168.895 131.679 167.216 130 165.145 130C163.074 130 161.395 131.679 161.395 133.75ZM201.764 133.75V144.765C201.764 149.411 197.962 153.367 193.317 153.29C188.802 153.214 185.153 149.518 185.153 144.986V133.75C185.153 131.679 183.474 130 181.403 130C179.332 130 177.653 131.679 177.653 133.75V144.65C177.653 153.25 184.383 160.529 192.98 160.784C201.912 161.049 209.263 153.86 209.263 144.986V133.75C209.263 131.679 207.584 130 205.513 130C203.442 130 201.764 131.679 201.764 133.75Z" fill="#FDEFB5"/>
<path d="M148.298 126.043V137.61C148.298 139.681 146.619 141.36 144.548 141.36C142.477 141.36 140.798 139.681 140.798 137.61V125.706C140.798 121.174 137.148 117.477 132.633 117.402C127.988 117.325 124.187 121.281 124.187 125.926V137.611C124.187 139.682 122.508 141.361 120.437 141.361C118.366 141.361 116.687 139.682 116.687 137.611V125.707C116.687 116.832 124.039 109.643 132.972 109.908C141.568 110.164 148.298 117.443 148.298 126.043ZM193.937 109.908C185.005 109.642 177.653 116.832 177.653 125.706V137.61C177.653 139.681 179.332 141.36 181.403 141.36C183.474 141.36 185.153 139.681 185.153 137.61V125.926C185.153 121.28 188.954 117.324 193.599 117.402C198.114 117.477 201.764 121.173 201.764 125.706V137.61C201.764 139.681 203.443 141.36 205.514 141.36C207.585 141.36 209.264 139.681 209.264 137.61V126.042C209.264 117.443 202.533 110.164 193.937 109.908ZM224.039 110.752H215.286C213.233 110.752 211.442 112.334 211.381 114.386C211.317 116.51 213.019 118.252 215.129 118.252H220.289V137.61C220.289 139.681 221.968 141.36 224.039 141.36C226.11 141.36 227.789 139.681 227.789 137.61V114.502C227.789 112.431 226.11 110.752 224.039 110.752ZM165.145 110.752H156.391C154.338 110.752 152.547 112.334 152.486 114.386C152.422 116.51 154.124 118.252 156.234 118.252H161.395V137.61C161.395 139.681 163.074 141.36 165.145 141.36C167.216 141.36 168.895 139.681 168.895 137.61V114.502C168.895 112.431 167.216 110.752 165.145 110.752ZM104.325 110.752H95.5717C93.5187 110.752 91.7277 112.334 91.6662 114.386C91.6027 116.51 93.3047 118.252 95.4147 118.252H100.575V137.61C100.575 139.681 102.254 141.36 104.325 141.36C106.396 141.36 108.075 139.681 108.075 137.61V114.502C108.075 112.431 106.396 110.752 104.325 110.752ZM77.8712 110.752H69.1177C67.0647 110.752 65.2737 112.334 65.2122 114.386C65.1487 116.51 66.8507 118.252 68.9607 118.252H74.1212V137.61C74.1212 139.681 75.8002 141.36 77.8712 141.36C79.9422 141.36 81.6212 139.681 81.6212 137.61V114.502C81.6212 112.431 79.9427 110.752 77.8712 110.752Z" fill="white"/>
<path d="M131.824 231.03C129.695 234.887 125.589 237.5 120.872 237.5C113.99 237.5 108.372 231.882 108.372 225C108.372 220.283 110.985 216.177 114.842 214.048C115.008 213.957 115.193 214.126 115.117 214.3C114.451 215.829 114.081 217.517 114.081 219.291C114.081 226.2 119.672 231.791 126.581 231.791C128.355 231.791 130.043 231.422 131.572 230.755C131.746 230.679 131.916 230.864 131.824 231.03Z" fill="#FF7117"/>
<path d="M133.372 225C133.372 227.187 132.81 229.242 131.824 231.03C130.036 232.017 127.98 232.578 125.793 232.578C118.89 232.578 113.293 226.982 113.293 220.078C113.293 217.892 113.855 215.836 114.842 214.048C116.63 213.061 118.686 212.499 120.872 212.499C127.775 212.5 133.372 218.096 133.372 225Z" fill="#FF8835"/>
<path d="M93.9459 223.732C93.4329 224.514 92.7694 225.188 91.9959 225.714C83.8549 231.244 74.0259 234.477 63.4419 234.477C35.4399 234.477 12.8194 212.067 12.5709 184.066C12.4804 173.852 15.4004 164.325 20.4969 156.32C21.2439 155.146 22.2294 154.146 23.3904 153.38C31.4179 148.084 41.0349 145 51.3724 145C79.3744 145 101.994 167.41 102.243 195.411C102.336 205.871 99.2719 215.609 93.9459 223.732Z" fill="#FFC143"/>
<path d="M94.007 223.638C84.9285 237.55 69.2245 246.745 51.3725 246.745C23.2765 246.746 0.5 223.969 0.5 195.873C0.5 178.021 9.695 162.317 23.607 153.238C18.397 161.222 15.3685 170.759 15.3685 181.004C15.3685 209.1 38.145 231.876 66.241 231.876C76.486 231.877 86.023 228.848 94.007 223.638Z" fill="#FFAA00"/>
<path d="M51.3731 152.057C27.2131 152.057 7.55713 171.713 7.55713 195.873C7.55713 220.033 27.2131 239.689 51.3731 239.689C75.5331 239.689 95.1891 220.033 95.1891 195.873C95.1886 171.713 75.5331 152.057 51.3731 152.057ZM27.9971 223.645L31.4976 215.843H40.1121C42.1836 215.843 43.8621 214.164 43.8621 212.093C43.8621 210.022 42.1836 208.343 40.1121 208.343H29.0701C27.5931 208.343 26.2536 209.21 25.6486 210.558L22.4141 217.765C18.5096 212.612 15.9461 206.39 15.2486 199.623H40.1116C42.1831 199.623 43.8616 197.944 43.8616 195.873C43.8616 193.802 42.1831 192.123 40.1116 192.123H15.2491C15.9466 185.355 18.5096 179.133 22.4146 173.981L25.6491 181.188C26.2541 182.536 27.5936 183.403 29.0706 183.403H40.1126C42.1841 183.403 43.8626 181.724 43.8626 179.653C43.8626 177.582 42.1841 175.903 40.1126 175.903H31.4976L27.9971 168.101C34.3181 162.772 42.4771 159.557 51.3731 159.557C60.2686 159.557 68.4276 162.772 74.7486 168.101L71.2481 175.902H62.6336C60.5621 175.902 58.8836 177.581 58.8836 179.652C58.8836 181.723 60.5621 183.402 62.6336 183.402H73.6756C75.1526 183.402 76.4926 182.535 77.0971 181.187L80.3311 173.98C84.2361 179.132 86.7996 185.355 87.4966 192.122H62.6336C60.5621 192.122 58.8836 193.801 58.8836 195.872C58.8836 197.943 60.5621 199.622 62.6336 199.622H87.4966C86.7991 206.39 84.2361 212.612 80.3311 217.765L77.0971 210.557C76.4926 209.21 75.1526 208.342 73.6756 208.342H62.6336C60.5621 208.342 58.8836 210.021 58.8836 212.092C58.8836 214.163 60.5621 215.842 62.6336 215.842H71.2481L74.7486 223.644C68.4276 228.973 60.2686 232.188 51.3731 232.188C42.4771 232.189 34.3181 228.974 27.9971 223.645Z" fill="#FFE7BF"/>
</svg>
