<svg width="257" height="246" viewBox="0 0 257 246" fill="none" xmlns="http://www.w3.org/2000/svg">
<path d="M211.564 213.029L219.654 204.831C239.141 183.138 251.001 154.456 251.001 123C251.001 55.3445 196.156 0.499023 128.5 0.499023C60.8445 0.499023 5.99902 55.3445 5.99902 123C5.99902 154.456 17.8595 183.138 37.346 204.83L45.4355 213.028C67.2685 233.183 96.4435 245.501 128.5 245.501C160.556 245.501 189.731 233.183 211.564 213.029Z" fill="#067744"/>
<path d="M240.213 31.1699H215.416C214.016 31.1699 212.68 31.7569 211.733 32.7879L195.876 50.0544C194.008 52.0884 194.143 55.2514 196.177 57.1189C198.211 58.9869 201.374 58.8524 203.241 56.8184L217.613 41.1699H240.042C242.705 41.1699 245.03 39.1604 245.202 36.5024C245.39 33.5904 243.084 31.1699 240.213 31.1699Z" fill="#0CAA63"/>
<path d="M217.613 204.83L203.241 189.182C201.373 187.148 198.211 187.013 196.177 188.881C194.143 190.749 194.008 193.912 195.876 195.946L211.565 213.029C214.387 210.423 217.087 207.688 219.654 204.831H217.613V204.83Z" fill="#0CAA63"/>
<path d="M128.5 94.502C120.207 94.502 112.33 96.2745 105.222 99.4585C104.699 101.064 103.689 105.127 105.506 108.495C106.661 110.635 108.727 112.079 111.656 112.794C111.274 114.609 110.651 119.239 112.996 123.413C114.674 126.402 117.519 128.521 121.46 129.72C120.951 131.344 120.053 135.169 121.593 138.37C122.565 140.392 124.328 141.797 126.831 142.545C134.535 144.847 132.096 158.361 131.941 159.178C131.785 159.678 130.723 163.408 132.755 166.596C134.128 168.751 136.563 170.121 140 170.678C139.389 172.593 138.33 177.187 140.469 181.374C142.115 184.597 145.281 186.842 149.886 188.053C149.453 189.674 148.77 193.442 150.666 196.517C151.992 198.666 154.303 200.016 157.524 200.56C174.269 190.632 185.498 172.379 185.498 151.5C185.497 120.02 159.978 94.502 128.5 94.502Z" fill="#FEF156"/>
<path d="M150.833 187.514C135.167 183.905 141.017 170.06 141.017 170.06C129.534 168.748 132.668 159.364 132.668 159.364C132.668 159.364 135.708 144.414 127.046 141.826C118.383 139.238 122.429 129.215 122.429 129.215C108.608 125.558 112.566 112.224 112.566 112.224C101.591 110.118 106.166 99.0449 106.166 99.0449C85.7884 107.732 71.5029 127.946 71.5029 151.498C71.5029 182.977 97.0214 208.495 128.5 208.495C139.517 208.495 149.801 205.366 158.52 199.953C146.775 198.601 150.833 187.514 150.833 187.514Z" fill="#FFC242"/>
<path d="M111.656 112.794C111.274 114.609 110.651 119.239 112.996 123.413C114.674 126.402 117.519 128.521 121.46 129.72C120.951 131.344 120.053 135.169 121.593 138.37C122.565 140.392 124.328 141.797 126.831 142.545C134.535 144.847 132.096 158.361 131.941 159.178C131.785 159.678 130.723 163.408 132.755 166.596C134.128 168.751 136.563 170.121 140 170.678C139.389 172.593 138.33 177.187 140.469 181.374C142.115 184.597 145.281 186.842 149.886 188.053C149.883 188.062 149.881 188.073 149.878 188.082C162.436 180.727 170.875 167.103 170.875 151.499C170.875 128.096 151.903 109.124 128.5 109.124C122.417 109.124 116.638 110.416 111.409 112.724C111.493 112.746 111.571 112.773 111.656 112.794Z" fill="#FFC242"/>
<path d="M150.827 187.512C135.169 183.901 141.017 170.061 141.017 170.061C129.534 168.749 132.669 159.365 132.669 159.365C132.669 159.365 135.708 144.414 127.046 141.826C118.383 139.238 122.429 129.216 122.429 129.216C108.71 125.586 112.508 112.428 112.564 112.234C97.061 118.533 86.125 133.735 86.125 151.499C86.125 174.902 105.097 193.874 128.5 193.874C136.695 193.874 144.343 191.541 150.827 187.512Z" fill="#FC753F"/>
<path d="M121.592 138.369C122.565 140.392 124.328 141.796 126.831 142.544C134.534 144.846 132.096 158.36 131.941 159.178C131.785 159.677 130.723 163.407 132.754 166.595C134.123 168.742 136.545 170.109 139.961 170.67L146.544 166.87C149.198 165.337 150.833 162.505 150.833 159.441V143.558C150.833 140.493 149.198 137.661 146.544 136.129L132.789 128.187C130.135 126.655 126.865 126.655 124.211 128.187L121.439 129.787C120.927 131.446 120.072 135.21 121.592 138.369Z" fill="#FEF156"/>
<path d="M132.789 174.811L141.017 170.061C129.534 168.749 132.668 159.365 132.668 159.365C132.668 159.365 135.708 144.414 127.046 141.826C118.383 139.238 122.429 129.216 122.429 129.216L110.456 136.129C107.802 137.661 106.167 140.493 106.167 143.558V159.441C106.167 162.505 107.802 165.337 110.456 166.87L124.211 174.811C126.865 176.343 130.135 176.343 132.789 174.811Z" fill="#FFC242"/>
<path d="M128.5 141.623C125.558 141.623 123.151 144.03 123.151 146.972V156.024C123.151 158.966 125.558 161.373 128.5 161.373C131.442 161.373 133.849 158.966 133.849 156.024V146.972C133.849 144.03 131.442 141.623 128.5 141.623Z" fill="#FFFBB3"/>
<path d="M176.223 85.5924C171.908 86.1114 168.454 82.5219 168.425 82.4909C168.281 82.3349 153.932 66.7794 148.592 56.4869C147.242 53.8849 147.003 51.4774 147.882 49.3309C149.079 46.4099 152.087 44.5239 154.07 43.5529C146.38 39.6854 137.695 37.5049 128.5 37.5049C120.207 37.5049 112.33 39.2774 105.222 42.4614C104.699 44.0674 103.689 48.1304 105.506 51.4979C106.661 53.6384 108.727 55.0824 111.656 55.7974C111.274 57.6124 110.651 62.2419 112.996 66.4164C114.674 69.4054 117.519 71.5239 121.46 72.7229C120.951 74.3474 120.053 78.1724 121.593 81.3729C122.565 83.3954 124.328 84.7999 126.831 85.5479C134.535 87.8499 132.096 101.364 131.941 102.181C131.785 102.681 130.723 106.411 132.755 109.599C134.128 111.754 136.563 113.124 140 113.681C139.389 115.596 138.33 120.19 140.469 124.377C142.115 127.6 145.281 129.844 149.886 131.056C149.453 132.677 148.77 136.445 150.666 139.52C151.992 141.669 154.303 143.019 157.524 143.563C174.269 133.635 185.498 115.382 185.498 94.5029C185.498 89.5479 184.864 84.7409 183.676 80.1574C181.414 83.4409 178.914 85.2709 176.223 85.5924Z" fill="#93E300"/>
<path d="M153.229 43.1338C149.69 44.9893 144.028 49.3183 147.926 56.8318C153.375 67.3333 167.875 82.9998 167.875 82.9998C167.875 82.9998 176.123 91.7633 183.913 81.1208C179.878 64.3498 168.432 50.4663 153.229 43.1338Z" fill="#D8F469"/>
<path d="M150.833 130.516C135.167 126.908 141.017 113.063 141.017 113.063C129.534 111.751 132.668 102.367 132.668 102.367C132.668 102.367 135.708 87.4164 127.046 84.8284C118.383 82.2403 122.429 72.2179 122.429 72.2179C108.608 68.5609 112.566 55.2274 112.566 55.2274C101.591 53.1214 106.166 42.0479 106.166 42.0479C85.7884 50.7354 71.5029 70.9494 71.5029 94.5014C71.5029 125.98 97.0214 151.498 128.5 151.498C139.517 151.498 149.801 148.369 158.52 142.956C146.775 141.603 150.833 130.516 150.833 130.516Z" fill="#00DA26"/>
<path d="M111.656 55.797C111.274 57.612 110.651 62.2415 112.996 66.416C114.674 69.405 117.519 71.5235 121.46 72.7225C120.951 74.347 120.053 78.172 121.593 81.3725C122.565 83.395 124.328 84.7995 126.831 85.5475C134.535 87.8495 132.096 101.363 131.941 102.181C131.785 102.68 130.723 106.411 132.755 109.598C134.128 111.753 136.563 113.124 140 113.681C139.389 115.596 138.33 120.19 140.469 124.377C142.115 127.599 145.281 129.844 149.886 131.056C149.883 131.065 149.881 131.075 149.878 131.084C162.436 123.73 170.875 110.105 170.875 94.502C170.875 71.099 151.903 52.127 128.5 52.127C122.417 52.127 116.638 53.4185 111.409 55.727C111.493 55.7485 111.571 55.776 111.656 55.797Z" fill="#00DA26"/>
<path d="M150.827 130.515C135.169 126.904 141.017 113.064 141.017 113.064C129.534 111.752 132.669 102.368 132.669 102.368C132.669 102.368 135.708 87.4173 127.046 84.8293C118.383 82.2413 122.429 72.2188 122.429 72.2188C108.71 68.5888 112.508 55.4308 112.564 55.2373C97.061 61.5358 86.125 76.7378 86.125 94.5023C86.125 117.905 105.097 136.877 128.5 136.877C136.695 136.877 144.343 134.544 150.827 130.515Z" fill="#00B44B"/>
<path d="M121.592 81.3719C122.565 83.3944 124.328 84.7989 126.831 85.5469C134.534 87.8489 132.096 101.363 131.941 102.18C131.785 102.68 130.723 106.41 132.754 109.598C134.123 111.744 136.545 113.112 139.961 113.673L146.544 109.872C149.198 108.34 150.833 105.508 150.833 102.443V86.5599C150.833 83.4949 149.198 80.6634 146.544 79.1309L132.789 71.1894C130.135 69.6569 126.865 69.6569 124.211 71.1894L121.439 72.7894C120.927 74.4479 120.072 78.2124 121.592 81.3719Z" fill="#93E300"/>
<path d="M132.789 117.813L141.017 113.063C129.534 111.751 132.668 102.367 132.668 102.367C132.668 102.367 135.708 87.4163 127.046 84.8283C118.383 82.2403 122.429 72.2178 122.429 72.2178L110.456 79.1308C107.802 80.6633 106.167 83.4953 106.167 86.5598V102.443C106.167 105.508 107.802 108.339 110.456 109.872L124.211 117.813C126.865 119.346 130.135 119.346 132.789 117.813Z" fill="#00DA26"/>
<path d="M128.5 84.627C125.558 84.627 123.151 87.034 123.151 89.976V99.0279C123.151 101.97 125.558 104.377 128.5 104.377C131.442 104.377 133.849 101.97 133.849 99.0279V89.976C133.849 87.034 131.442 84.627 128.5 84.627Z" fill="#D8F469"/>
<path d="M250.28 128H206.542C203.78 128 201.542 125.761 201.542 123C201.542 120.239 203.78 118 206.542 118H250.28C253.041 118 255.28 120.239 255.28 123C255.28 125.761 253.041 128 250.28 128Z" fill="#0CAA63"/>
<path d="M245.28 134.22C251.476 134.22 256.5 129.197 256.5 123C256.5 116.803 251.476 111.779 245.28 111.779C239.083 111.779 234.059 116.803 234.059 123C234.059 129.197 239.083 134.22 245.28 134.22Z" fill="#00DA26"/>
<path d="M245.28 47.3902C251.476 47.3902 256.5 42.3666 256.5 36.1697C256.5 29.9728 251.476 24.9492 245.28 24.9492C239.083 24.9492 234.059 29.9728 234.059 36.1697C234.059 42.3666 239.083 47.3902 245.28 47.3902Z" fill="#00DA26"/>
<path d="M250.28 85.3359H206.542C203.78 85.3359 201.542 83.0974 201.542 80.3359C201.542 77.5744 203.78 75.3359 206.542 75.3359H250.28C253.041 75.3359 255.28 77.5744 255.28 80.3359C255.28 83.0974 253.041 85.3359 250.28 85.3359Z" fill="#0CAA63"/>
<path d="M250.28 170.664H206.542C203.78 170.664 201.542 168.425 201.542 165.664C201.542 162.903 203.78 160.664 206.542 160.664H250.28C253.041 160.664 255.28 162.903 255.28 165.664C255.28 168.425 253.041 170.664 250.28 170.664Z" fill="#0CAA63"/>
<path d="M245.28 91.5562C251.476 91.5562 256.5 86.5326 256.5 80.3357C256.5 74.1388 251.476 69.1152 245.28 69.1152C239.083 69.1152 234.059 74.1388 234.059 80.3357C234.059 86.5326 239.083 91.5562 245.28 91.5562Z" fill="#FEF156"/>
<path d="M245.28 176.884C251.476 176.884 256.5 171.861 256.5 165.664C256.5 159.467 251.476 154.443 245.28 154.443C239.083 154.443 234.059 159.467 234.059 165.664C234.059 171.861 239.083 176.884 245.28 176.884Z" fill="#FEF156"/>
<path d="M6.72021 128H50.4587C53.2197 128 55.4587 125.761 55.4587 123C55.4587 120.239 53.2197 118 50.4587 118H6.72021C3.95921 118 1.72021 120.239 1.72021 123C1.72021 125.761 3.95921 128 6.72021 128Z" fill="#0CAA63"/>
<path d="M11.7205 134.22C17.9174 134.22 22.941 129.197 22.941 123C22.941 116.803 17.9174 111.779 11.7205 111.779C5.52359 111.779 0.5 116.803 0.5 123C0.5 129.197 5.52359 134.22 11.7205 134.22Z" fill="#00DA26"/>
<path d="M6.72021 85.3359H50.4587C53.2197 85.3359 55.4587 83.0974 55.4587 80.3359C55.4587 77.5744 53.2197 75.3359 50.4587 75.3359H6.72021C3.95921 75.3359 1.72021 77.5744 1.72021 80.3359C1.72021 83.0974 3.95921 85.3359 6.72021 85.3359Z" fill="#0CAA63"/>
<path d="M6.72021 170.664H50.4587C53.2197 170.664 55.4587 168.425 55.4587 165.664C55.4587 162.903 53.2197 160.664 50.4587 160.664H6.72021C3.95921 160.664 1.72021 162.903 1.72021 165.664C1.72021 168.425 3.95921 170.664 6.72021 170.664Z" fill="#0CAA63"/>
<path d="M11.7205 91.5562C17.9174 91.5562 22.941 86.5326 22.941 80.3357C22.941 74.1388 17.9174 69.1152 11.7205 69.1152C5.52359 69.1152 0.5 74.1388 0.5 80.3357C0.5 86.5326 5.52359 91.5562 11.7205 91.5562Z" fill="#FEF156"/>
<path d="M11.7205 176.884C17.9174 176.884 22.941 171.861 22.941 165.664C22.941 159.467 17.9174 154.443 11.7205 154.443C5.52359 154.443 0.5 159.467 0.5 165.664C0.5 171.861 5.52359 176.884 11.7205 176.884Z" fill="#FEF156"/>
<path d="M45.2669 32.7879C44.3199 31.7569 42.9844 31.1699 41.5844 31.1699H16.9589C14.2959 31.1699 11.9704 33.1799 11.7984 35.8374C11.6099 38.7494 13.9164 41.1699 16.7874 41.1699H39.3874L53.7589 56.8184C55.6269 58.8524 58.7899 58.9869 60.8234 57.1189C62.8574 55.2509 62.9919 52.0879 61.1239 50.0544L45.2669 32.7879Z" fill="#0CAA63"/>
<path d="M53.7597 189.182L39.3877 204.83H37.3462C39.9132 207.688 42.6132 210.423 45.4357 213.028L61.1242 195.945C62.9922 193.911 62.8572 190.748 60.8237 188.881C58.7902 187.013 55.6272 187.148 53.7597 189.182Z" fill="#0CAA63"/>
<path d="M11.7205 47.3902C17.9174 47.3902 22.941 42.3666 22.941 36.1697C22.941 29.9728 17.9174 24.9492 11.7205 24.9492C5.52359 24.9492 0.5 29.9728 0.5 36.1697C0.5 42.3666 5.52359 47.3902 11.7205 47.3902Z" fill="#00DA26"/>
</svg>
