<svg width="18" height="18" viewBox="0 0 18 18" fill="none" xmlns="http://www.w3.org/2000/svg">
<path d="M8.25001 8.25001H5.72205e-06V2.25001C5.72205e-06 1.65327 0.237059 1.08097 0.659015 0.659015C1.08097 0.237059 1.65327 5.72205e-06 2.25001 5.72205e-06H8.25001V8.25001Z" fill="#4F5B69"/>
<path d="M17.9999 8.25H9.7499V0H15.7499C16.3466 0 16.9189 0.237053 17.3409 0.65901C17.7628 1.08097 17.9999 1.65326 17.9999 2.25V8.25Z" fill="#4F5B69"/>
<path d="M8.25 18H2.25C1.65326 18 1.08097 17.7629 0.65901 17.341C0.237053 16.919 0 16.3467 0 15.75V9.74998H8.25V18Z" fill="#4F5B69"/>
<path d="M15.7499 18H9.7499V9.74998H17.9999V15.75C17.9999 16.3467 17.7628 16.919 17.3409 17.341C16.9189 17.7629 16.3466 18 15.7499 18Z" fill="#4F5B69"/>
</svg>
