<svg width="18" height="18" viewBox="0 0 18 18" fill="none" xmlns="http://www.w3.org/2000/svg">
<g clip-path="url(#clip0_1215_16757)">
<path d="M8.25 8.25H0V2.25C0 1.65326 0.237053 1.08097 0.65901 0.65901C1.08097 0.237053 1.65326 0 2.25 0L8.25 0V8.25ZM1.5 6.75H6.75V1.5H2.25C2.05109 1.5 1.86032 1.57902 1.71967 1.71967C1.57902 1.86032 1.5 2.05109 1.5 2.25V6.75Z" fill="#4F5B69"/>
<path d="M18 8.25H9.75V0H15.75C16.3467 0 16.919 0.237053 17.341 0.65901C17.7629 1.08097 18 1.65326 18 2.25V8.25ZM11.25 6.75H16.5V2.25C16.5 2.05109 16.421 1.86032 16.2803 1.71967C16.1397 1.57902 15.9489 1.5 15.75 1.5H11.25V6.75Z" fill="#4F5B69"/>
<path d="M8.25 18H2.25C1.65326 18 1.08097 17.7629 0.65901 17.341C0.237053 16.919 0 16.3467 0 15.75L0 9.75H8.25V18ZM1.5 11.25V15.75C1.5 15.9489 1.57902 16.1397 1.71967 16.2803C1.86032 16.421 2.05109 16.5 2.25 16.5H6.75V11.25H1.5Z" fill="#4F5B69"/>
<path d="M15.75 18H9.75V9.75H18V15.75C18 16.3467 17.7629 16.919 17.341 17.341C16.919 17.7629 16.3467 18 15.75 18ZM11.25 16.5H15.75C15.9489 16.5 16.1397 16.421 16.2803 16.2803C16.421 16.1397 16.5 15.9489 16.5 15.75V11.25H11.25V16.5Z" fill="#4F5B69"/>
</g>
<defs>
<clipPath id="clip0_1215_16757">
<rect width="18" height="18" fill="white"/>
</clipPath>
</defs>
</svg>
