<svg width="18" height="18" viewBox="0 0 18 18" fill="none" xmlns="http://www.w3.org/2000/svg">
<path d="M18 8.06193V13.741C18 16.0904 16.0873 18 13.7368 18V18C12.4288 18 11.3684 16.9396 11.3684 15.6316V13.7398C11.3684 12.4357 10.3055 11.3753 9 11.3753C7.69453 11.3753 6.63158 12.4357 6.63158 13.7398V15.6316C6.63158 16.9396 5.5712 18 4.26316 18V18C1.91274 18 0 16.0895 0 13.741V8.06193C0 6.76638 0.579784 5.55616 1.58968 4.743L6.32652 0.933996C7.87452 -0.311332 10.1226 -0.311332 11.6725 0.933996L16.4094 4.743C17.4202 5.55616 18 6.76543 18 8.06193Z" fill="black"/>
</svg>
