<svg width="18" height="18" viewBox="0 0 18 18" fill="none" xmlns="http://www.w3.org/2000/svg">
<path d="M6.79651 1.51847L6.79663 1.51837C8.06996 0.494012 9.92708 0.493648 11.2028 1.51865L15.9393 5.32738C16.7734 5.99837 17.25 6.99287 17.25 8.06193V13.741C17.25 15.6754 15.6739 17.25 13.7368 17.25C12.843 17.25 12.1184 16.5254 12.1184 15.6316V13.7398C12.1184 12.0202 10.7183 10.6253 9 10.6253C7.28165 10.6253 5.88158 12.0202 5.88158 13.7398V15.6316C5.88158 16.5254 5.15699 17.25 4.26316 17.25C2.32623 17.25 0.75 15.6745 0.75 13.741V8.06193C0.75 6.99383 1.2266 5.99844 2.05967 5.32747C2.05979 5.32737 2.05992 5.32727 2.06005 5.32717L6.79651 1.51847Z" stroke="black" stroke-width="1.5"/>
</svg>
