<svg width="24" height="20" viewBox="0 0 24 20" fill="none" xmlns="http://www.w3.org/2000/svg">
<path d="M1 16.6477C7.01966 16.6429 13.0131 17.4188 18.8223 18.9548C19.6425 19.1722 20.4615 18.5792 20.4615 17.7513V16.6477M2.69231 1V1.82356C2.69231 2.04198 2.60316 2.25146 2.44448 2.40591C2.28579 2.56036 2.07057 2.64712 1.84615 2.64712H1M1 2.64712V2.23534C1 1.55343 1.56862 1 2.26923 1H21.3077M1 2.64712V12.5299M21.3077 1V1.82356C21.3077 2.27817 21.6868 2.64712 22.1538 2.64712H23M21.3077 1H21.7308C22.4314 1 23 1.55343 23 2.23534V12.9417C23 13.6236 22.4314 14.177 21.7308 14.177H21.3077M23 12.5299H22.1538C21.9294 12.5299 21.7142 12.6166 21.5555 12.7711C21.3968 12.9255 21.3077 13.135 21.3077 13.3534V14.177M21.3077 14.177H2.69231M2.69231 14.177H2.26923C1.93261 14.177 1.60978 14.0468 1.37175 13.8152C1.13372 13.5835 1 13.2693 1 12.9417V12.5299M2.69231 14.177V13.3534C2.69231 13.135 2.60316 12.9255 2.44448 12.7711C2.28579 12.6166 2.07057 12.5299 1.84615 12.5299H1M15.3846 7.5885C15.3846 8.46219 15.028 9.30009 14.3933 9.91788C13.7585 10.5357 12.8977 10.8827 12 10.8827C11.1023 10.8827 10.2415 10.5357 9.60672 9.91788C8.97198 9.30009 8.61538 8.46219 8.61538 7.5885C8.61538 6.71481 8.97198 5.8769 9.60672 5.25911C10.2415 4.64132 11.1023 4.29425 12 4.29425C12.8977 4.29425 13.7585 4.64132 14.3933 5.25911C15.028 5.8769 15.3846 6.71481 15.3846 7.5885V7.5885ZM18.7692 7.5885H18.7783V7.59728H18.7692V7.5885ZM5.23077 7.5885H5.23979V7.59728H5.23077V7.5885Z" stroke="#232931" stroke-width="1.5" stroke-linecap="round" stroke-linejoin="round"/>
</svg>
