<svg width="22" height="25" viewBox="0 0 22 25" fill="none" xmlns="http://www.w3.org/2000/svg">
    <path d="M0.152116 7.2625L1.05855 5.71634L10.9991 11.3688L10.0927 12.9161L0.152116 7.2625Z"
        fill="#353D46" />
    <path d="M20.991 5.71378L21.8974 7.25994L11.9016 12.9147L10.9952 11.3674L20.991 5.71378Z"
        fill="#353D46" />
    <path d="M0 6.24947L1.69202 7.08263V17.6758L0 18.747V6.24947Z" fill="#353D46" />
    <path d="M0 18.747L1.69202 17.6758L10.9981 22.9126V24.9956L0 18.747Z" fill="#353D46" />
    <path d="M11.0002 1.78536V0L21.9983 6.24874L20.2459 7.14143L11.0002 1.78536Z" fill="#353D46" />
    <path d="M20.2476 17.6812L22 18.7524L11.0019 25V22.9148L20.2476 17.6812Z" fill="#353D46" />
    <path d="M11.0002 0V1.78536L1.69328 7.08234L0.00125927 6.24918L11.0002 0Z" fill="#353D46" />
    <path d="M20.2423 7.14217L21.9947 6.24947V18.747L20.2423 17.6758V7.14217Z" fill="#353D46" />
    <path d="M16.3788 9.04762H17.7083V16.189L16.3788 15.4154V9.04762Z" fill="#353D46" />
    <path d="M4.29077 9.04762H5.6202V15.4154L4.29077 16.189V9.04762Z" fill="#353D46" />
    <path d="M4.29215 16.1888L5.62159 15.4152L11.2368 18.6288L10.5721 19.7627L4.29215 16.1888Z"
        fill="#353D46" />
    <path d="M11.0031 6.36809V4.99932L17.2831 8.57003L16.6788 9.6008L11.0031 6.36809Z"
        fill="#353D46" />
    <path d="M16.3745 15.4158L17.704 16.1894L11.4193 19.7633L10.7546 18.6295L16.3745 15.4158Z"
        fill="#353D46" />
    <path d="M10.9991 5.00051V6.36929L5.32344 9.60201L4.71915 8.57123L10.9991 5.00051Z"
        fill="#353D46" />
    <path d="M10.0887 12.9158L10.9952 11.3685L11.9016 12.9158V24.4611H10.0887V12.9158Z"
        fill="#353D46" />
</svg>
    