<?xml version="1.0" encoding="UTF-8"?>
<svg id="Layer_2" data-name="Layer 2" xmlns="http://www.w3.org/2000/svg" xmlns:xlink="http://www.w3.org/1999/xlink" viewBox="0 0 13.22 15.68">
  <defs>
    <style>
      .cls-1 {
        fill: url(#linear-gradient-2);
      }

      .cls-2 {
        fill: url(#linear-gradient-15);
      }

      .cls-3 {
        fill: url(#linear-gradient-14);
      }

      .cls-4 {
        fill: url(#linear-gradient-6);
      }

      .cls-5 {
        fill: url(#linear-gradient-11);
      }

      .cls-6 {
        fill: url(#linear-gradient-10);
      }

      .cls-7 {
        fill: url(#linear-gradient-5);
      }

      .cls-8 {
        fill: url(#linear-gradient-7);
      }

      .cls-9 {
        fill: url(#linear-gradient-9);
      }

      .cls-10 {
        fill: url(#linear-gradient-3);
      }

      .cls-11 {
        fill: url(#linear-gradient);
      }

      .cls-12 {
        fill: url(#linear-gradient-4);
      }

      .cls-13 {
        fill: url(#linear-gradient-8);
      }

      .cls-14 {
        fill: url(#linear-gradient-12);
      }

      .cls-15 {
        fill: url(#linear-gradient-13);
      }
    </style>
    <linearGradient id="linear-gradient" x1=".09" y1="5.85" x2="6.6" y2="5.85" gradientUnits="userSpaceOnUse">
      <stop offset="0" stop-color="#00b1bf"/>
      <stop offset="1" stop-color="#00126a"/>
    </linearGradient>
    <linearGradient id="linear-gradient-2" x1="6.6" y1="5.84" x2="13.15" y2="5.84" xlink:href="#linear-gradient"/>
    <linearGradient id="linear-gradient-3" x1="0" y1="7.84" x2="1.02" y2="7.84" xlink:href="#linear-gradient"/>
    <linearGradient id="linear-gradient-4" x1="0" y1="13.39" x2="6.61" y2="13.39" xlink:href="#linear-gradient"/>
    <linearGradient id="linear-gradient-5" x1="6.61" y1="2.24" x2="13.22" y2="2.24" xlink:href="#linear-gradient"/>
    <linearGradient id="linear-gradient-6" x1="6.61" y1="13.39" x2="13.22" y2="13.39" xlink:href="#linear-gradient"/>
    <linearGradient id="linear-gradient-7" x1="0" y1="2.22" x2="6.61" y2="2.22" xlink:href="#linear-gradient"/>
    <linearGradient id="linear-gradient-8" x1="12.16" y1="7.84" x2="13.21" y2="7.84" xlink:href="#linear-gradient"/>
    <linearGradient id="linear-gradient-9" x1="9.84" y1="7.92" x2="10.64" y2="7.92" xlink:href="#linear-gradient"/>
    <linearGradient id="linear-gradient-10" x1="2.58" y1="7.92" x2="3.38" y2="7.92" xlink:href="#linear-gradient"/>
    <linearGradient id="linear-gradient-11" x1="2.58" y1="11.03" x2="6.75" y2="11.03" xlink:href="#linear-gradient"/>
    <linearGradient id="linear-gradient-12" x1="6.61" y1="4.58" x2="10.38" y2="4.58" xlink:href="#linear-gradient"/>
    <linearGradient id="linear-gradient-13" x1="6.46" y1="11.03" x2="10.64" y2="11.03" xlink:href="#linear-gradient"/>
    <linearGradient id="linear-gradient-14" x1="2.84" y1="4.58" x2="6.61" y2="4.58" xlink:href="#linear-gradient"/>
    <linearGradient id="linear-gradient-15" x1="6.05" y1="11.24" x2="7.14" y2="11.24" xlink:href="#linear-gradient"/>
  </defs>
  <g id="Layer_1-2" data-name="Layer 1">
    <path class="cls-11" d="m.09,4.56l.54-.97,5.97,3.55-.54.97L.09,4.56Z"/>
    <path class="cls-1" d="m12.61,3.58l.54.97-6.01,3.55-.54-.97s6.01-3.55,6.01-3.55Z"/>
    <path class="cls-10" d="m0,3.92l1.02.52v6.64l-1.02.67V3.92Z"/>
    <path class="cls-12" d="m0,11.76l1.02-.67,5.59,3.28v1.31L0,11.76Z"/>
    <path class="cls-7" d="m6.61,1.12V0l6.61,3.92-1.05.56L6.61,1.12Z"/>
    <path class="cls-4" d="m12.17,11.09l1.05.67-6.61,3.92v-1.31s5.56-3.28,5.56-3.28Z"/>
    <path class="cls-8" d="m6.61,0v1.12L1.02,4.44l-1.02-.52L6.61,0Z"/>
    <path class="cls-13" d="m12.16,4.48l1.05-.56v7.84l-1.05-.67v-6.61Z"/>
    <path class="cls-9" d="m9.84,5.68h.8v4.48l-.8-.49v-3.99Z"/>
    <path class="cls-6" d="m2.58,5.68h.8v3.99l-.8.49v-4.48Z"/>
    <path class="cls-5" d="m2.58,10.15l.8-.49,3.37,2.02-.4.71s-3.77-2.24-3.77-2.24Z"/>
    <path class="cls-14" d="m6.61,3.99v-.86l3.77,2.24-.36.65s-3.41-2.03-3.41-2.03Z"/>
    <path class="cls-15" d="m9.84,9.67l.8.49-3.78,2.24-.4-.71,3.38-2.02Z"/>
    <path class="cls-3" d="m6.61,3.14v.86l-3.41,2.03-.36-.65s3.77-2.24,3.77-2.24Z"/>
    <path class="cls-2" d="m6.06,8.1l.54-.97.54.97v7.24h-1.09v-7.24h.01Z"/>
  </g>
</svg>