<?xml version="1.0" encoding="UTF-8"?>
<svg id="Layer_1" data-name="Layer 1" xmlns="http://www.w3.org/2000/svg" viewBox="0 0 13.22 15.68">
  <defs>
    <style>
      .cls-1 {
        fill: #353d46;
      }
    </style>
  </defs>
  <path class="cls-1" d="m.09,4.56l.54-.97,5.97,3.55-.54.97L.09,4.56Z"/>
  <path class="cls-1" d="m12.61,3.58l.54.97-6.01,3.55-.54-.97,6.01-3.55Z"/>
  <path class="cls-1" d="m0,3.92l1.02.52v6.64l-1.02.67V3.92Z"/>
  <path class="cls-1" d="m0,11.76l1.02-.67,5.59,3.28v1.31L0,11.76Z"/>
  <path class="cls-1" d="m6.61,1.12V0l6.61,3.92-1.05.56L6.61,1.12Z"/>
  <path class="cls-1" d="m12.17,11.09l1.05.67-6.61,3.92v-1.31l5.56-3.28Z"/>
  <path class="cls-1" d="m6.61,0v1.12L1.02,4.44,0,3.92,6.61,0Z"/>
  <path class="cls-1" d="m12.16,4.48l1.05-.56v7.84l-1.05-.67v-6.61Z"/>
  <path class="cls-1" d="m9.84,5.68h.8v4.48l-.8-.49v-3.99Z"/>
  <path class="cls-1" d="m2.58,5.68h.8v3.99l-.8.49v-4.48Z"/>
  <path class="cls-1" d="m2.58,10.15l.8-.49,3.37,2.02-.4.71-3.77-2.24Z"/>
  <path class="cls-1" d="m6.61,3.99v-.86l3.77,2.24-.36.65-3.41-2.03Z"/>
  <path class="cls-1" d="m9.84,9.67l.8.49-3.78,2.24-.4-.71,3.38-2.02Z"/>
  <path class="cls-1" d="m6.61,3.14v.86l-3.41,2.03-.36-.65,3.77-2.24Z"/>
  <path class="cls-1" d="m6.06,8.1l.54-.97.54.97v7.24h-1.09v-7.24Z"/>
</svg>