<svg width="16" height="18" viewBox="0 0 16 18" fill="none" xmlns="http://www.w3.org/2000/svg">
<path fill-rule="evenodd" clip-rule="evenodd" d="M8.45455 0.695337C8.45455 0.311313 8.13911 0 7.75 0C7.36089 0 7.04545 0.311313 7.04545 0.695337V0.968783C6.62505 1.01728 6.20883 1.1062 5.80367 1.2352C3.69323 1.90718 2.04399 3.59279 1.45994 5.71011L1.41783 5.86277C1.06888 7.12783 0.992595 8.45038 1.19311 9.74515C0.47265 10.2443 0 11.0715 0 12.0085C0 13.3231 0.938323 14.4558 2.24379 14.717L2.58911 14.7861C3.16503 14.9014 3.74392 14.9971 4.32478 15.0734C4.33018 15.0968 4.3358 15.1202 4.34164 15.1436L4.41864 15.4512C4.72314 16.6676 5.69054 17.6143 6.9256 17.9045C7.46762 18.0318 8.03238 18.0318 8.5744 17.9045C9.80946 17.6143 10.7769 16.6676 11.0814 15.4512L11.1584 15.1436C11.1642 15.1202 11.1698 15.0968 11.1752 15.0734C11.7561 14.9971 12.335 14.9014 12.9109 14.7861L13.2562 14.717C14.5617 14.4558 15.5 13.3231 15.5 12.0085C15.5 11.0717 15.0275 10.2447 14.3074 9.74548C14.5106 8.46234 14.4425 7.15103 14.1068 5.89421L14.0482 5.67469C13.4901 3.58522 11.8978 1.91682 9.81786 1.24206C9.37359 1.09794 8.91614 1.00318 8.45455 0.957378V0.695337ZM7.25196 16.5516C6.56724 16.3907 6.02327 15.8846 5.81716 15.2262C7.10392 15.321 8.39607 15.321 9.68283 15.2262C9.47673 15.8846 8.93276 16.3907 8.24804 16.5516C7.92059 16.6286 7.57941 16.6286 7.25196 16.5516Z" fill="black"/>
</svg>
