<svg width="20" height="20" viewBox="0 0 20 20" fill="none" xmlns="http://www.w3.org/2000/svg">
<path d="M12.9443 6.61914L7.06445 6.61914C5.80762 6.61914 5.13086 7.33984 5.13086 8.52637V9.9502H2.01074C1.2373 9.9502 0.630859 10.416 0.630859 11.1279C0.630859 11.5498 0.841797 11.9102 1.25488 12.2617L8.76953 18.8184C9.21777 19.2051 9.56933 19.416 10 19.416C10.4307 19.416 10.791 19.2051 11.2393 18.8184L18.7539 12.2617C19.1758 11.8926 19.3779 11.5498 19.3779 11.1279C19.3779 10.416 18.7715 9.9502 17.998 9.9502H14.8691V8.52637C14.8691 7.33984 14.1924 6.61914 12.9443 6.61914ZM12.6191 8.17481C12.9092 8.17481 13.1113 8.36816 13.1113 8.6582V11.207C13.1113 11.418 13.1816 11.4971 13.4014 11.4971H16.9082C16.9697 11.4971 16.9961 11.5234 16.9961 11.5674C16.9961 11.6025 16.9785 11.6289 16.9346 11.6729L10.167 17.4561C10.1055 17.5176 10.0527 17.5439 10 17.5439C9.94726 17.5439 9.89453 17.5176 9.83301 17.4561L3.06543 11.6729C3.02148 11.6289 3.00391 11.6025 3.00391 11.5674C3.00391 11.5234 3.03027 11.4971 3.0918 11.4971H6.59863C6.81836 11.4971 6.88867 11.418 6.88867 11.207V8.6582C6.88867 8.37695 7.09961 8.1748 7.38086 8.1748L12.6191 8.17481ZM13.2432 0.748047L6.81836 0.748047C5.75488 0.748047 5.12207 1.35449 5.12207 2.43555L5.12207 3.73633C5.12207 4.7998 5.75488 5.44141 6.81836 5.44141L13.2432 5.44141C14.3066 5.44141 14.9482 4.79102 14.9482 3.73633V2.43555C14.9482 1.36328 14.3066 0.748048 13.2432 0.748047ZM12.874 2.2334C13.1377 2.2334 13.2871 2.38281 13.2871 2.64648V3.52539C13.2871 3.78906 13.1377 3.95606 12.874 3.95606L7.19629 3.95605C6.93262 3.95605 6.7832 3.78906 6.7832 3.52539L6.7832 2.64648C6.7832 2.38281 6.93262 2.2334 7.19629 2.2334L12.874 2.2334Z" fill="#1C1C1E"/>
</svg>
