<svg width="14" height="14" viewBox="0 0 14 14" fill="none" xmlns="http://www.w3.org/2000/svg">
<path d="M13.472 12.5293L10.446 9.50334C11.208 8.538 11.6673 7.32265 11.6673 6.00065C11.6673 2.87598 9.12532 0.333984 6.00065 0.333984C2.87598 0.333984 0.333984 2.87598 0.333984 6.00065C0.333984 9.12532 2.87598 11.6673 6.00065 11.6673C7.32332 11.6673 8.53798 11.2086 9.50332 10.446L12.5293 13.472C12.6593 13.602 12.83 13.6673 13.0007 13.6673C13.1713 13.6673 13.342 13.602 13.472 13.472C13.7327 13.2113 13.7327 12.79 13.472 12.5293ZM1.66732 6.00065C1.66732 3.61132 3.61132 1.66732 6.00065 1.66732C8.38998 1.66732 10.334 3.61132 10.334 6.00065C10.334 8.38998 8.38998 10.334 6.00065 10.334C3.61132 10.334 1.66732 8.38998 1.66732 6.00065Z" fill="#697A8C"/>
</svg>
