<svg width="17" height="20" viewBox="0 0 17 20" fill="none" xmlns="http://www.w3.org/2000/svg">
<path d="M9.10156 0.129883C8.49512 0.129883 8.00293 0.62207 8.00293 1.22852C8.00293 1.84375 8.49512 2.32715 9.10156 2.32715H9.67285C11.1055 2.32715 12.0283 3.31152 12.0283 4.80566V11.4062H10.1914C9.66406 11.4062 9.33008 11.7402 9.33008 12.2764C9.33008 12.5137 9.41797 12.7334 9.55859 12.9092L12.4414 16.3721C12.7842 16.8027 13.3643 16.7939 13.7158 16.3721L16.6074 12.9092C16.7568 12.7334 16.8447 12.5137 16.8447 12.2764C16.8447 11.7402 16.5107 11.4063 15.9834 11.4062H14.1904V4.98145C14.1904 2.00195 12.5293 0.129883 9.88379 0.129883L9.10156 0.129883ZM6.69336 8.59375C7.2207 8.59375 7.56348 8.25977 7.56348 7.73242C7.56348 7.49512 7.4668 7.2666 7.32617 7.09082L4.44336 3.63672C4.10059 3.20605 3.5293 3.20605 3.16895 3.63672L0.277344 7.09082C0.12793 7.2666 0.0400391 7.49512 0.0400391 7.73242C0.040039 8.25977 0.374023 8.59375 0.901367 8.59375H2.70312L2.70312 15.0273C2.70312 18.0068 4.37305 19.8701 7.00977 19.8701H7.79199C8.40723 19.8701 8.89941 19.3867 8.89941 18.7715C8.89941 18.165 8.40723 17.6729 7.79199 17.6729H7.2207C5.79687 17.6729 4.86523 16.6973 4.86523 15.1943L4.86523 8.59375H6.69336Z" fill="#1C1C1E"/>
</svg>
