<svg width="18" height="20" viewBox="0 0 18 20" fill="none" xmlns="http://www.w3.org/2000/svg">
<path d="M1.30078 15.3142L8.09473 19.1111C8.70996 19.4539 9.27246 19.4539 9.8877 19.1111L16.6816 15.3142C17.5342 14.8484 17.9561 14.3474 17.9561 13.1082V5.98022C17.9561 5.04858 17.6045 4.45093 16.8135 4.01147L10.6348 0.548584C9.55371 -0.0578613 8.4375 -0.0578613 7.34766 0.548584L1.16895 4.01147C0.386719 4.45093 0.0351562 5.04858 0.0351562 5.98022V13.1082C0.0351562 14.3474 0.457031 14.8484 1.30078 15.3142ZM8.99121 8.78394L2.52246 5.17163L8.05957 2.05151C8.69238 1.69116 9.29004 1.68237 9.93164 2.05151L15.4688 5.17163L8.99121 8.78394ZM2.26758 13.9519C1.78418 13.6882 1.61719 13.407 1.61719 12.9412V6.5603L8.16504 10.2517V17.2742L2.26758 13.9519ZM15.7236 13.9519L9.81738 17.2742V10.2517L16.3652 6.5603V12.9412C16.3652 13.407 16.1982 13.6882 15.7236 13.9519Z" fill="#1C1C1E"/>
</svg>
