<svg width="343" height="48" viewBox="0 0 343 48" fill="none" xmlns="http://www.w3.org/2000/svg">
<path d="M343 0H0V48H9.94518C10.0728 43.1451 14.0286 39.2488 18.8898 39.2488C23.7511 39.2488 27.7069 43.1451 27.8345 48H35.7945C35.9221 43.1451 39.8779 39.2488 44.7391 39.2488C49.6004 39.2488 53.5562 43.1451 53.6838 48H61.6437C61.7713 43.1451 65.7271 39.2488 70.5884 39.2488C75.4496 39.2488 79.4055 43.1451 79.533 48H87.493C87.6206 43.1451 91.5764 39.2488 96.4377 39.2488C101.299 39.2488 105.255 43.1451 105.382 48H113.342C113.47 43.1451 117.426 39.2488 122.287 39.2488C127.148 39.2488 131.104 43.1451 131.232 48H139.192C139.319 43.1451 143.275 39.2488 148.136 39.2488C152.997 39.2488 156.953 43.1451 157.081 48H165.041C165.168 43.1451 169.124 39.2488 173.985 39.2488C178.847 39.2488 182.803 43.1451 182.93 48H190.89C191.018 43.1451 194.974 39.2488 199.835 39.2488C204.696 39.2488 208.652 43.1451 208.779 48H216.739C216.867 43.1451 220.823 39.2488 225.684 39.2488C230.545 39.2488 234.501 43.1451 234.629 48H242.589C242.716 43.1451 246.672 39.2488 251.533 39.2488C256.395 39.2488 260.35 43.1451 260.478 48H268.438C268.566 43.1451 272.521 39.2488 277.383 39.2488C282.244 39.2488 286.2 43.1451 286.327 48H294.287C294.415 43.1451 298.371 39.2488 303.232 39.2488C308.093 39.2488 312.049 43.1451 312.177 48H320.136C320.264 43.1451 324.22 39.2488 329.081 39.2488C333.942 39.2488 337.898 43.1451 338.026 48H343V0Z" fill="#1A1A1C"/>
</svg>
