<svg width="375" height="32" viewBox="0 0 375 32" fill="none" xmlns="http://www.w3.org/2000/svg">
<path d="M32 0C14.3269 0 0 14.3269 0 32H375C375 14.3269 360.673 0 343 0H209.472C207.957 0 207 0.75293 205.894 1.66486L202.106 5.4881C201 6.40002 199.5 7.15295 197.528 7.15295H177.472C175.5 7.15295 174 6.40002 172.894 5.4881L169.106 1.66486C168 0.75293 167.043 0 165.528 0H32Z" fill="#0F0F10"/>
<path d="M180.5 0C179.672 0 179 0.505676 179 1.12939C179 1.75317 179.672 2.25885 180.5 2.25885H194.5C195.328 2.25885 196 1.75317 196 1.12939C196 0.505676 195.328 0 194.5 0H180.5Z" fill="#0F0F10"/>
</svg>
