<svg width="28" height="28" viewBox="0 0 28 28" fill="none" xmlns="http://www.w3.org/2000/svg">
<path d="M6.9668 19.4648H21.0205C21.9258 19.4648 22.4795 18.9727 22.4795 18.2344C22.4795 17.3027 21.6357 16.5029 20.8447 15.7471C20.2207 15.1406 20.0801 13.875 19.9658 12.7061C19.8252 9.48926 18.8848 7.22168 16.6084 6.4043C16.248 5.24414 15.29 4.34766 13.9893 4.34766C12.6973 4.34766 11.7393 5.24414 11.3701 6.4043C9.10254 7.22168 8.15332 9.48926 8.02148 12.7061C7.90723 13.875 7.75781 15.1406 7.14258 15.7471C6.35156 16.5029 5.50781 17.3027 5.50781 18.2344C5.50781 18.9727 6.06152 19.4648 6.9668 19.4648ZM13.9893 23.0859C15.5537 23.0859 16.6875 21.9697 16.8018 20.6953H11.1855C11.2998 21.9697 12.4336 23.0859 13.9893 23.0859Z" fill="#FAFAFA"/>
</svg>
