<svg width="28" height="28" viewBox="0 0 28 28" fill="none" xmlns="http://www.w3.org/2000/svg">
<path d="M7.375 16.7061C7.375 20.6523 10.0293 23.0078 13.6064 23.0078C16.2871 23.0078 18.0273 21.918 19.2227 19.7295C20.0752 18.3672 20.6729 16.4951 21.165 14.8779C21.4287 14.043 21.7891 12.9883 21.8154 12.5225C21.8506 11.9951 21.5078 11.6172 20.9805 11.582C20.374 11.5381 19.9961 11.8896 19.6182 12.6807L18.3877 15.3262C18.2734 15.5898 18.1504 15.6777 18.0098 15.6777C17.8516 15.6777 17.7373 15.5898 17.7373 15.2998V6.00977C17.7373 5.43848 17.2891 4.99023 16.7178 4.99023C16.1553 4.99023 15.707 5.43848 15.707 6.00977V12.7686C15.4785 12.6895 15.2324 12.6191 14.9775 12.5664V4.76172C14.9775 4.19043 14.5293 3.74219 13.958 3.74219C13.3955 3.74219 12.9473 4.19043 12.9473 4.76172V12.4697C12.6836 12.4961 12.4287 12.5312 12.1738 12.5752V5.49121C12.1738 4.92871 11.7256 4.48047 11.1631 4.48047C10.5918 4.48047 10.1436 4.92871 10.1436 5.49121V13.1729C9.87988 13.2959 9.63379 13.4365 9.40527 13.5859V8.2334C9.40527 7.6709 8.95703 7.22266 8.39453 7.22266C7.82324 7.22266 7.375 7.6709 7.375 8.2334V16.7061Z" fill="#FAFAFA"/>
</svg>
