<svg width="28" height="28" viewBox="0 0 28 28" fill="none" xmlns="http://www.w3.org/2000/svg">
<path d="M2.39844 16.0527C2.39844 17.9424 3.38281 18.918 5.29004 18.918H5.7207V11.2539C5.7207 8.64355 7.1709 7.20215 9.79883 7.20215H21.0664V7.08789C21.0664 5.20703 20.0732 4.22266 18.1748 4.22266H5.29004C3.38281 4.22266 2.39844 5.20703 2.39844 7.08789V16.0527ZM9.9043 23.1104H22.7012C24.5996 23.1104 25.6016 22.126 25.6016 20.2451V11.3594C25.6016 9.47852 24.5996 8.49414 22.7012 8.49414H9.9043C7.99707 8.49414 7.0127 9.46973 7.0127 11.3594V20.2451C7.0127 22.126 7.99707 23.1104 9.9043 23.1104ZM13.1475 19.2432V15.6924C13.1475 15.0684 13.4023 14.7432 13.9121 14.6904V13.6709C13.9121 11.9922 14.9229 10.8584 16.417 10.8584C17.9111 10.8584 18.9219 11.9922 18.9219 13.6709V14.6904C19.4316 14.7432 19.6865 15.0684 19.6865 15.6924V19.2432C19.6865 19.9463 19.3789 20.2627 18.7373 20.2627H14.1055C13.4551 20.2627 13.1475 19.9463 13.1475 19.2432ZM14.9932 14.6729H17.8408V13.5742C17.8408 12.5723 17.2695 11.9131 16.417 11.9131C15.5645 11.9131 14.9932 12.5811 14.9932 13.5742V14.6729Z" fill="#FAFAFA"/>
</svg>
