<svg width="28" height="28" viewBox="0 0 28 28" fill="none" xmlns="http://www.w3.org/2000/svg">
<path d="M18.5977 13.5762C20.5225 13.5762 22.1484 11.8711 22.1484 9.66504C22.1484 7.51172 20.5137 5.85938 18.5977 5.85938C16.6904 5.85938 15.0469 7.53809 15.0557 9.68262C15.0557 11.8711 16.6729 13.5762 18.5977 13.5762ZM8.4375 13.7783C10.1162 13.7783 11.5312 12.2842 11.5312 10.3682C11.5312 8.4873 10.0986 7.05469 8.4375 7.05469C6.77637 7.05469 5.34375 8.51367 5.35254 10.3857C5.35254 12.2842 6.76758 13.7783 8.4375 13.7783ZM3.59473 21.7588H10.1865C9.24609 20.4141 10.2568 17.7598 12.2432 16.1953C11.2764 15.5713 10.0195 15.1143 8.4375 15.1143C4.50879 15.1143 1.96875 18.0059 1.96875 20.3877C1.96875 21.2578 2.4082 21.7588 3.59473 21.7588ZM13.1221 21.75H24.0732C25.5234 21.75 26.0244 21.3105 26.0244 20.502C26.0244 18.2432 23.1504 15.1318 18.5977 15.1318C14.0361 15.1318 11.1709 18.2432 11.1709 20.502C11.1709 21.3105 11.6719 21.75 13.1221 21.75Z" fill="#FAFAFA"/>
</svg>
