<svg width="28" height="28" viewBox="0 0 28 28" fill="none" xmlns="http://www.w3.org/2000/svg">
<path d="M13.4453 7.26465C13.5596 7.26465 13.6299 7.19434 13.6475 7.08008C13.9111 5.62988 13.8936 5.6123 15.4141 5.31348C15.5283 5.2959 15.6074 5.22559 15.6074 5.10254C15.6074 4.98828 15.5283 4.91797 15.4141 4.90039C13.9023 4.61035 13.9375 4.58398 13.6475 3.13379C13.6299 3.01953 13.5596 2.94922 13.4453 2.94922C13.3311 2.94922 13.2607 3.01953 13.2344 3.13379C12.9531 4.56641 12.9971 4.59277 11.4678 4.90039C11.3535 4.91797 11.2832 4.98828 11.2832 5.10254C11.2832 5.22559 11.3535 5.2959 11.4766 5.31348C12.9883 5.6123 12.9795 5.62988 13.2344 7.08008C13.2607 7.19434 13.3311 7.26465 13.4453 7.26465ZM9.18262 13.417C9.3584 13.417 9.49023 13.2939 9.5166 13.1182C9.82422 10.7891 9.89453 10.7803 12.3203 10.3232C12.4873 10.2969 12.6191 10.1738 12.6191 9.98926C12.6191 9.81348 12.4873 9.68164 12.3115 9.65527C9.90332 9.32129 9.81543 9.25098 9.5166 6.87793C9.49023 6.69336 9.3584 6.57031 9.18262 6.57031C8.99805 6.57031 8.86621 6.69336 8.84863 6.88672C8.55859 9.20703 8.45312 9.20703 6.04492 9.65527C5.86914 9.69043 5.74609 9.81348 5.74609 9.98926C5.74609 10.1826 5.86914 10.2969 6.08008 10.3232C8.46191 10.7012 8.55859 10.7715 8.84863 13.1006C8.86621 13.2939 8.99805 13.417 9.18262 13.417ZM15.2734 23.1289C15.5283 23.1289 15.7217 22.9443 15.7568 22.6807C16.3896 17.917 17.0664 17.1699 21.7773 16.6514C22.0498 16.6162 22.2432 16.4141 22.2432 16.1592C22.2432 15.9043 22.0498 15.7021 21.7773 15.667C17.084 15.1221 16.416 14.4189 15.7568 9.6377C15.7129 9.37402 15.5283 9.18945 15.2734 9.18945C15.0186 9.18945 14.8252 9.37402 14.79 9.6377C14.1572 14.4014 13.4805 15.1484 8.76953 15.667C8.48828 15.7021 8.30371 15.9043 8.30371 16.1592C8.30371 16.4141 8.48828 16.6162 8.76953 16.6514C13.4453 17.2754 14.0957 17.8994 14.79 22.6807C14.834 22.9443 15.0186 23.1289 15.2734 23.1289Z" fill="#FAFAFA"/>
</svg>
