<svg width="16" height="16" viewBox="0 0 16 16" fill="none" xmlns="http://www.w3.org/2000/svg">
<path opacity="0.2" d="M13.4663 13.4999H2.53381C1.74506 13.4999 1.25006 12.6743 1.63319 12.0055L7.09944 2.51367C7.49319 1.82617 8.50694 1.82617 8.90069 2.51367L14.3669 12.0055C14.7501 12.6743 14.2551 13.4999 13.4663 13.4999Z" fill="#D79633"/>
<path d="M14.8002 11.7557L9.33456 2.26379C9.19798 2.03124 9.00299 1.83843 8.76894 1.70445C8.53488 1.57048 8.26987 1.5 8.00018 1.5C7.73049 1.5 7.46549 1.57048 7.23143 1.70445C6.99737 1.83843 6.80239 2.03124 6.66581 2.26379L1.20018 11.7557C1.06877 11.9806 0.999512 12.2364 0.999512 12.4969C0.999512 12.7574 1.06877 13.0132 1.20018 13.2382C1.33501 13.4721 1.52966 13.666 1.76416 13.7999C1.99865 13.9338 2.26455 14.0028 2.53456 14H13.4658C13.7356 14.0026 14.0012 13.9334 14.2355 13.7996C14.4698 13.6657 14.6642 13.4719 14.7989 13.2382C14.9305 13.0134 15 12.7576 15.0002 12.4971C15.0004 12.2366 14.9314 11.9807 14.8002 11.7557ZM13.9333 12.7375C13.8857 12.8188 13.8173 12.886 13.7351 12.9321C13.653 12.9782 13.56 13.0017 13.4658 13H2.53456C2.44036 13.0017 2.34741 12.9782 2.26526 12.9321C2.18311 12.886 2.11471 12.8188 2.06706 12.7375C2.0239 12.6645 2.00113 12.5812 2.00113 12.4963C2.00113 12.4114 2.0239 12.3281 2.06706 12.255L7.53268 2.76317C7.58129 2.68227 7.65001 2.61534 7.73215 2.56887C7.81429 2.5224 7.90706 2.49797 8.00143 2.49797C8.09581 2.49797 8.18857 2.5224 8.27071 2.56887C8.35286 2.61534 8.42157 2.68227 8.47018 2.76317L13.9358 12.255C13.9786 12.3283 14.0009 12.4118 14.0005 12.4966C14 12.5815 13.9768 12.6647 13.9333 12.7375ZM7.50018 9.00004V6.50004C7.50018 6.36743 7.55286 6.24026 7.64663 6.14649C7.7404 6.05272 7.86757 6.00004 8.00018 6.00004C8.13279 6.00004 8.25997 6.05272 8.35374 6.14649C8.4475 6.24026 8.50018 6.36743 8.50018 6.50004V9.00004C8.50018 9.13265 8.4475 9.25983 8.35374 9.35359C8.25997 9.44736 8.13279 9.50004 8.00018 9.50004C7.86757 9.50004 7.7404 9.44736 7.64663 9.35359C7.55286 9.25983 7.50018 9.13265 7.50018 9.00004ZM8.75018 11.25C8.75018 11.3984 8.7062 11.5434 8.62378 11.6667C8.54137 11.7901 8.42424 11.8862 8.28719 11.943C8.15015 11.9997 7.99935 12.0146 7.85386 11.9856C7.70838 11.9567 7.57474 11.8853 7.46985 11.7804C7.36496 11.6755 7.29353 11.5418 7.26459 11.3964C7.23565 11.2509 7.25051 11.1001 7.30727 10.963C7.36404 10.826 7.46017 10.7088 7.5835 10.6264C7.70684 10.544 7.85185 10.5 8.00018 10.5C8.19909 10.5 8.38986 10.5791 8.53051 10.7197C8.67116 10.8604 8.75018 11.0511 8.75018 11.25Z" fill="#D79633"/>
</svg>
