<svg width="24" height="24" viewBox="0 0 24 24" fill="none" xmlns="http://www.w3.org/2000/svg">
<path d="M18.5306 6.53068L7.81031 17.2501H15.75C15.9489 17.2501 16.1397 17.3291 16.2803 17.4697C16.421 17.6104 16.5 17.8011 16.5 18.0001C16.5 18.199 16.421 18.3897 16.2803 18.5304C16.1397 18.671 15.9489 18.7501 15.75 18.7501H6C5.80109 18.7501 5.61032 18.671 5.46967 18.5304C5.32902 18.3897 5.25 18.199 5.25 18.0001V8.25005C5.25 8.05114 5.32902 7.86037 5.46967 7.71972C5.61032 7.57907 5.80109 7.50005 6 7.50005C6.19891 7.50005 6.38968 7.57907 6.53033 7.71972C6.67098 7.86037 6.75 8.05114 6.75 8.25005V16.1897L17.4694 5.46943C17.5391 5.39974 17.6218 5.34447 17.7128 5.30676C17.8039 5.26904 17.9015 5.24963 18 5.24963C18.0985 5.24963 18.1961 5.26904 18.2872 5.30676C18.3782 5.34447 18.4609 5.39974 18.5306 5.46943C18.6003 5.53911 18.6556 5.62183 18.6933 5.71288C18.731 5.80392 18.7504 5.9015 18.7504 6.00005C18.7504 6.0986 18.731 6.19618 18.6933 6.28722C18.6556 6.37827 18.6003 6.46099 18.5306 6.53068Z" fill="#54BD84"/>
</svg>
