<svg width="41" height="40" viewBox="0 0 41 40" fill="none" xmlns="http://www.w3.org/2000/svg">
<g clip-path="url(#clip0_501_18805)">
<g clip-path="url(#clip1_501_18805)">
<path d="M28.3594 0H20.5921L15.6243 19.759L20.5921 40H28.3594C30.8474 40 32.8715 37.9759 32.8715 35.4879V4.51211C32.8715 2.02414 30.8474 0 28.3594 0Z" fill="#025731"/>
<path d="M12.8249 0C10.3369 0 8.31274 2.02414 8.31274 4.51211V35.4879C8.31274 37.9759 10.3369 40 12.8249 40H20.5922V0H12.8249Z" fill="#067744"/>
<path d="M28.3596 2.34375H25.2199V4.75367H20.5923L17.3462 19.6991L20.5923 37.6562H28.3596C29.5553 37.6562 30.528 36.6835 30.528 35.4879V4.51211C30.528 3.31648 29.5553 2.34375 28.3596 2.34375Z" fill="#00B44B"/>
<path d="M15.9645 4.75367V2.34375H12.8249C11.6292 2.34375 10.6565 3.31648 10.6565 4.51211V35.4879C10.6565 36.6835 11.6292 37.6562 12.8249 37.6562H20.5922V4.75367H15.9645Z" fill="#00DA26"/>
<path d="M14.7329 32.9688H17.0767V35.3125H14.7329V32.9688Z" fill="#D8F469"/>
<path d="M20.5923 35.3125H21.7642V32.9688H20.5923L20.0063 34.1406L20.5923 35.3125Z" fill="#93E300"/>
<path d="M19.4204 32.9688H20.5923V35.3125H19.4204V32.9688Z" fill="#D8F469"/>
<path d="M24.1079 32.9688H26.4517V35.3125H24.1079V32.9688Z" fill="#93E300"/>
</g>
</g>
<defs>
<clipPath id="clip0_501_18805">
<rect width="40" height="40" fill="white" transform="translate(0.5)"/>
</clipPath>
<clipPath id="clip1_501_18805">
<rect width="40" height="40" fill="white" transform="translate(0.5)"/>
</clipPath>
</defs>
</svg>
