<svg width="33" height="32" viewBox="0 0 33 32" fill="none" xmlns="http://www.w3.org/2000/svg">
<path opacity="0.2" d="M28.5 7V25C28.5 25.2652 28.3946 25.5196 28.2071 25.7071C28.0196 25.8946 27.7652 26 27.5 26H9.06625C8.89361 26.0001 8.7239 25.9554 8.57363 25.8704C8.42336 25.7854 8.29766 25.663 8.20875 25.515L2.5 16L8.20875 6.485C8.29766 6.33702 8.42336 6.21457 8.57363 6.12958C8.7239 6.04459 8.89361 5.99995 9.06625 6H27.5C27.7652 6 28.0196 6.10536 28.2071 6.29289C28.3946 6.48043 28.5 6.73478 28.5 7Z" fill="white"/>
<path d="M27.4998 5H9.06607C8.72087 5.00099 8.38174 5.09088 8.08136 5.26099C7.78098 5.43111 7.52947 5.67571 7.35107 5.97125L1.64232 15.485C1.54888 15.6405 1.49951 15.8186 1.49951 16C1.49951 16.1814 1.54888 16.3595 1.64232 16.515L7.35107 26.0287C7.52947 26.3243 7.78098 26.5689 8.08136 26.739C8.38174 26.9091 8.72087 26.999 9.06607 27H27.4998C28.0303 27 28.539 26.7893 28.914 26.4142C29.2891 26.0391 29.4998 25.5304 29.4998 25V7C29.4998 6.46957 29.2891 5.96086 28.914 5.58579C28.539 5.21071 28.0303 5 27.4998 5ZM27.4998 25H9.06607L3.66607 16L9.06607 7H27.4998V25ZM13.7923 18.2925L16.0861 16L13.7923 13.7075C13.6047 13.5199 13.4993 13.2654 13.4993 13C13.4993 12.7346 13.6047 12.4801 13.7923 12.2925C13.98 12.1049 14.2345 11.9994 14.4998 11.9994C14.7652 11.9994 15.0197 12.1049 15.2073 12.2925L17.4998 14.5863L19.7923 12.2925C19.8852 12.1996 19.9955 12.1259 20.1169 12.0756C20.2383 12.0253 20.3684 11.9994 20.4998 11.9994C20.6312 11.9994 20.7613 12.0253 20.8827 12.0756C21.0041 12.1259 21.1144 12.1996 21.2073 12.2925C21.3002 12.3854 21.3739 12.4957 21.4242 12.6171C21.4745 12.7385 21.5004 12.8686 21.5004 13C21.5004 13.1314 21.4745 13.2615 21.4242 13.3829C21.3739 13.5043 21.3002 13.6146 21.2073 13.7075L18.9136 16L21.2073 18.2925C21.3002 18.3854 21.3739 18.4957 21.4242 18.6171C21.4745 18.7385 21.5004 18.8686 21.5004 19C21.5004 19.1314 21.4745 19.2615 21.4242 19.3829C21.3739 19.5043 21.3002 19.6146 21.2073 19.7075C21.1144 19.8004 21.0041 19.8741 20.8827 19.9244C20.7613 19.9747 20.6312 20.0006 20.4998 20.0006C20.3684 20.0006 20.2383 19.9747 20.1169 19.9244C19.9955 19.8741 19.8852 19.8004 19.7923 19.7075L17.4998 17.4137L15.2073 19.7075C15.1144 19.8004 15.0041 19.8741 14.8827 19.9244C14.7613 19.9747 14.6312 20.0006 14.4998 20.0006C14.3684 20.0006 14.2383 19.9747 14.1169 19.9244C13.9955 19.8741 13.8852 19.8004 13.7923 19.7075C13.6994 19.6146 13.6257 19.5043 13.5754 19.3829C13.5251 19.2615 13.4993 19.1314 13.4993 19C13.4993 18.8686 13.5251 18.7385 13.5754 18.6171C13.6257 18.4957 13.6994 18.3854 13.7923 18.2925Z" fill="white"/>
</svg>
