<svg width="24" height="24" viewBox="0 0 24 24" fill="none" xmlns="http://www.w3.org/2000/svg">
<path opacity="0.2" d="M3.90948 16.9063C4.53455 15.825 5.31287 13.114 5.31287 9.75C5.31287 7.97636 6.01745 6.27537 7.27159 5.02122C8.52574 3.76707 10.2267 3.0625 12.0004 3.0625C13.774 3.0625 15.475 3.76707 16.7291 5.02122C17.9833 6.27537 18.6879 7.97636 18.6879 9.75C18.6879 13.1149 19.4671 15.8249 20.0931 16.9062C20.1534 17.0106 20.1851 17.1289 20.1852 17.2494C20.1853 17.3699 20.1538 17.4883 20.0937 17.5927C20.0337 17.6971 19.9472 17.784 19.8431 17.8445C19.7389 17.905 19.6206 17.9371 19.5002 17.9375L4.50075 17.9375L3.85537 16.875M3.90948 16.9063L3.85537 16.875M3.90948 16.9063C3.90949 16.9063 3.90949 16.9063 3.9095 16.9063L3.85537 16.875M3.90948 16.9063C3.84932 17.0105 3.81757 17.1286 3.81738 17.249C3.8172 17.3693 3.8486 17.4876 3.90846 17.592C3.96831 17.6964 4.05451 17.7832 4.15845 17.8438C4.26234 17.9045 4.38032 17.9367 4.50059 17.9375H4.50037V18C4.3691 17.9992 4.24034 17.964 4.12695 17.8978C4.01357 17.8317 3.91953 17.7369 3.85423 17.6231C3.78894 17.5092 3.75468 17.3801 3.75488 17.2489C3.75508 17.1176 3.78973 16.9887 3.85537 16.875" fill="white" stroke="white" stroke-width="0.125"/>
<path d="M20.7936 16.4944C20.2733 15.5981 19.4999 13.0622 19.4999 9.75C19.4999 7.76088 18.7097 5.85322 17.3032 4.4467C15.8967 3.04018 13.989 2.25 11.9999 2.25C10.0108 2.25 8.10311 3.04018 6.69659 4.4467C5.29007 5.85322 4.49989 7.76088 4.49989 9.75C4.49989 13.0631 3.72551 15.5981 3.2052 16.4944C3.07233 16.7222 3.00189 16.9811 3.00099 17.2449C3.00008 17.5086 3.06874 17.768 3.20005 17.9967C3.33135 18.2255 3.52065 18.4156 3.74886 18.5478C3.97708 18.6801 4.23613 18.7498 4.49989 18.75H8.32583C8.49886 19.5967 8.95904 20.3577 9.62851 20.9042C10.298 21.4507 11.1357 21.7492 11.9999 21.7492C12.8641 21.7492 13.7018 21.4507 14.3713 20.9042C15.0407 20.3577 15.5009 19.5967 15.674 18.75H19.4999C19.7636 18.7496 20.0225 18.6798 20.2506 18.5475C20.4787 18.4151 20.6678 18.225 20.799 17.9963C20.9302 17.7676 20.9988 17.5083 20.9979 17.2446C20.9969 16.9809 20.9265 16.7222 20.7936 16.4944ZM11.9999 20.25C11.5347 20.2499 11.081 20.1055 10.7013 19.8369C10.3215 19.5683 10.0343 19.1886 9.87926 18.75H14.1205C13.9655 19.1886 13.6783 19.5683 13.2985 19.8369C12.9187 20.1055 12.4651 20.2499 11.9999 20.25ZM4.49989 17.25C5.22176 16.0088 5.99989 13.1325 5.99989 9.75C5.99989 8.1587 6.63203 6.63258 7.75725 5.50736C8.88247 4.38214 10.4086 3.75 11.9999 3.75C13.5912 3.75 15.1173 4.38214 16.2425 5.50736C17.3677 6.63258 17.9999 8.1587 17.9999 9.75C17.9999 13.1297 18.7761 16.0059 19.4999 17.25H4.49989Z" fill="white"/>
</svg>
