<svg width="41" height="40" viewBox="0 0 41 40" fill="none" xmlns="http://www.w3.org/2000/svg">
<g clip-path="url(#clip0_582_6089)">
<path d="M6.35059 28.0371V39.9243H34.4158V28.0371H6.35059Z" fill="#00DA26"/>
<path d="M20.3833 28.0371H34.4159V39.9243H20.3833V28.0371Z" fill="#00B44B"/>
<path d="M19.2139 29.3999H21.5526V32.9081H19.2139V29.3999Z" fill="#D8F469"/>
<path d="M20.3833 29.3999H21.5527V32.9081H20.3833V29.3999Z" fill="#93E300"/>
<path d="M26.23 20.0447H23.8912V17.3029C23.108 16.9931 21.7259 16.5365 20.3831 16.5365C19.0405 16.5365 17.6587 16.9929 16.8749 17.303V20.0447H14.5361V15.8138L15.1826 15.4905C15.2881 15.4378 17.7979 14.1978 20.3831 14.1978C22.9682 14.1978 25.478 15.4378 25.5836 15.4905L26.23 15.8138V20.0447Z" fill="#D8F469"/>
<path d="M23.8915 17.3029V20.0447H26.2302V15.8138L25.5838 15.4905C25.4782 15.4378 22.9684 14.1978 20.3833 14.1978V16.5365C21.7261 16.5365 23.1082 16.9931 23.8915 17.3029Z" fill="#93E300"/>
<path d="M34.4158 18.8755V28.0372L20.3832 30.5888L6.35059 28.0372V18.8755H34.4158Z" fill="#067744"/>
<path d="M34.4159 18.8755H20.3833V30.5888L34.4159 28.0372V18.8755Z" fill="#025731"/>
<path d="M10.7151 16.7618L6.81328 15.5403L2.91151 16.7618L2.86754 12.6736L0.5 9.34022L4.37464 8.03503L6.81328 4.75342L9.25191 8.03503L13.1266 9.34022L10.7591 12.6736L10.7151 16.7618Z" fill="#FFDF40"/>
<path d="M16.4813 12.0841L16.4373 7.99585L14.0698 4.66248L17.9445 3.35729L20.3831 0.0756836L22.8217 3.35729L26.6963 4.66248L24.3288 7.99585L24.285 12.0842L20.3831 10.8626L16.4813 12.0841Z" fill="#FFDF40"/>
<path d="M38.0885 16.7614L34.1867 15.5399L30.2849 16.7614L30.241 12.6731L27.8735 9.33973L31.7482 8.03454L34.1867 4.75293L36.6253 8.03454L40.4999 9.33973L38.1324 12.6731L38.0885 16.7614Z" fill="#FFDF40"/>
<path d="M24.2852 12.0841L24.329 7.99578L26.6965 4.66248L22.8219 3.35729L20.3833 0.0756836V10.8626L24.2852 12.0841Z" fill="#FFBE40"/>
<path d="M38.0883 16.7618L38.1323 12.6736L40.4998 9.34022L36.6252 8.03503L34.1865 4.75342V15.5403L38.0883 16.7618Z" fill="#FFBE40"/>
<path d="M10.7148 16.7618L10.7588 12.6736L13.1263 9.34022L9.25162 8.03503L6.81299 4.75342V15.5403L10.7148 16.7618Z" fill="#FFBE40"/>
</g>
<defs>
<clipPath id="clip0_582_6089">
<rect width="40" height="40" fill="white" transform="translate(0.5)"/>
</clipPath>
</defs>
</svg>
