<svg width="57" height="56" viewBox="0 0 57 56" fill="none" xmlns="http://www.w3.org/2000/svg">
<g clip-path="url(#clip0_582_6307)">
<path d="M28.5 0.000976562C13.1109 0.000976562 0.5 12.6119 0.5 28.001C0.5 43.39 13.1109 56.001 28.5 56.001C43.8891 56.001 56.5 43.39 56.5 28.001C56.5 12.6119 43.8891 0.000976562 28.5 0.000976562Z" fill="#00DA26"/>
<path d="M56.5 28.001C56.5 43.39 43.8891 56.001 28.5 56.001V0.000976562C43.8891 0.000976562 56.5 12.6119 56.5 28.001Z" fill="#00B44B"/>
<path d="M44.2829 21.7995L28.5001 37.5494L25.2188 40.8307L12.7173 28.362L17.3767 23.7026L25.2188 31.5775L28.5001 28.2963L39.6235 17.1401L44.2829 21.7995Z" fill="#FFF8D9"/>
<path d="M44.2828 21.7995L28.5 37.5494V28.2963L39.6234 17.1401L44.2828 21.7995Z" fill="#FDEFB5"/>
</g>
<defs>
<clipPath id="clip0_582_6307">
<rect width="56" height="56" fill="white" transform="translate(0.5 0.000976562)"/>
</clipPath>
</defs>
</svg>
