<svg width="41" height="40" viewBox="0 0 41 40" fill="none" xmlns="http://www.w3.org/2000/svg">
<g clip-path="url(#clip0_582_6624)">
<path d="M31.555 17.5556C31.555 23.6517 26.596 28.6106 20.4999 28.6106H9.44482V26.154C10.5436 26.154 11.5033 25.4054 11.8055 24.3822C10.2797 22.4413 9.44482 20.0398 9.44482 17.5556C9.44482 11.4595 14.4038 6.50049 20.4999 6.50049C26.596 6.50049 31.555 11.4595 31.555 17.5556Z" fill="#D8F469"/>
<path d="M31.5551 17.5556C31.5551 11.4595 26.5961 6.50049 20.5 6.50049V28.6106C26.5961 28.6106 31.5551 23.6517 31.5551 17.5556Z" fill="#93E300"/>
<path d="M35.5352 22.8866C33.7418 27.9965 29.4426 31.8535 24.1853 33.0573C23.8413 33.1555 23.4973 33.2293 23.1536 33.2783L23.0052 32.3697C22.8714 31.5508 23.381 30.7631 24.1834 30.5519C24.184 30.5517 24.1846 30.5516 24.1853 30.5514C27.7827 29.5356 30.8153 27.0616 32.513 23.7259C32.9869 22.7948 34.0805 22.3604 35.063 22.7158L35.5352 22.8866Z" fill="#067744"/>
<path d="M35.5596 12.2244L35.0681 12.3964C34.0857 12.765 33.0049 12.3228 32.538 11.3892C30.3063 7.08897 25.7867 4.04375 20.5002 4.04375C15.3901 4.04375 10.7963 6.86885 8.48697 11.4138C7.99547 12.3228 6.91469 12.7403 5.95683 12.3964L5.46533 12.2244C5.56344 11.9542 5.66178 11.684 5.7847 11.4138C8.2906 5.41949 14.0637 1.58707 20.5002 1.5625C27.497 1.5625 33.3966 6.10884 35.5596 12.2244Z" fill="#00B44B"/>
<path d="M7.77461 13.06C7.97107 12.495 8.21665 11.9298 8.48689 11.4141H4.20407C2.16486 11.4141 0.519043 13.06 0.519043 15.0991V20.0125C0.519043 22.0514 2.16486 23.6975 4.20407 23.6975H8.26587L7.75005 22.1006C6.74272 19.0296 6.76696 15.9096 7.77461 13.06Z" fill="#025731"/>
<path d="M22.7749 30.8688C22.7652 30.8703 22.755 30.8711 22.745 30.8711H22.7353C22.023 30.994 21.2863 31.0677 20.5245 31.0677C18.4853 31.0677 16.8149 32.7136 16.8149 34.7528C16.8149 36.7917 18.4608 38.4378 20.5 38.4378C22.5392 38.4378 24.185 36.7917 24.185 34.7528V30.5518C23.7231 30.6733 23.261 30.795 22.7749 30.8688Z" fill="#067744"/>
<path d="M14.3584 16.3271H16.8151V18.7838H14.3584V16.3271Z" fill="#00B44B"/>
<path d="M19.272 16.3271H21.7287V18.7838H19.272V16.3271Z" fill="#00B44B"/>
<path d="M24.1851 16.3271H26.6417V18.7838H24.1851V16.3271Z" fill="#03A346"/>
<path d="M22.7402 30.8706H22.7353C22.0231 30.9935 21.2863 31.0673 20.5246 31.0673C20.5161 31.0673 20.5084 31.0696 20.5 31.0696V38.4373C22.5392 38.4373 24.185 36.7912 24.185 34.7523V30.5513C23.725 30.6724 23.2643 30.7936 22.7804 30.8675C22.7672 30.8696 22.7534 30.8706 22.7402 30.8706Z" fill="#025731"/>
<path d="M35.5595 12.2244L35.068 12.3964C34.0855 12.765 33.0048 12.3228 32.5378 11.3892C30.3062 7.08897 25.7865 4.04375 20.5 4.04375V1.5625C27.4968 1.5625 33.3964 6.10884 35.5595 12.2244Z" fill="#067744"/>
<path d="M20.5 16.3271H21.7283V18.7838H20.5V16.3271Z" fill="#03A346"/>
<path d="M40.4813 15.0986C40.4813 13.0595 38.8355 11.4136 36.7963 11.4136H32.5381L33.2504 13.0841C33.5208 13.7965 33.7173 14.558 33.84 15.3196C34.2088 17.6043 33.9875 19.9382 33.2258 22.0509L32.5382 23.697H36.7963C38.8355 23.697 40.4813 22.0509 40.4813 20.012V15.0986Z" fill="#025731"/>
</g>
<defs>
<clipPath id="clip0_582_6624">
<rect width="40" height="40" fill="white" transform="translate(0.5)"/>
</clipPath>
</defs>
</svg>
