<svg width="21" height="20" viewBox="0 0 21 20" fill="none" xmlns="http://www.w3.org/2000/svg">
<path opacity="0.2" d="M17.375 3.75V6.875H3.625V3.75C3.625 3.58424 3.69085 3.42527 3.80806 3.30806C3.92527 3.19085 4.08424 3.125 4.25 3.125H16.75C16.9158 3.125 17.0747 3.19085 17.1919 3.30806C17.3092 3.42527 17.375 3.58424 17.375 3.75Z" fill="#96FF3C"/>
<path d="M16.75 2.5H14.875V1.875C14.875 1.70924 14.8092 1.55027 14.6919 1.43306C14.5747 1.31585 14.4158 1.25 14.25 1.25C14.0842 1.25 13.9253 1.31585 13.8081 1.43306C13.6908 1.55027 13.625 1.70924 13.625 1.875V2.5H7.375V1.875C7.375 1.70924 7.30915 1.55027 7.19194 1.43306C7.07473 1.31585 6.91576 1.25 6.75 1.25C6.58424 1.25 6.42527 1.31585 6.30806 1.43306C6.19085 1.55027 6.125 1.70924 6.125 1.875V2.5H4.25C3.91848 2.5 3.60054 2.6317 3.36612 2.86612C3.1317 3.10054 3 3.41848 3 3.75V16.25C3 16.5815 3.1317 16.8995 3.36612 17.1339C3.60054 17.3683 3.91848 17.5 4.25 17.5H16.75C17.0815 17.5 17.3995 17.3683 17.6339 17.1339C17.8683 16.8995 18 16.5815 18 16.25V3.75C18 3.41848 17.8683 3.10054 17.6339 2.86612C17.3995 2.6317 17.0815 2.5 16.75 2.5ZM6.125 3.75V4.375C6.125 4.54076 6.19085 4.69973 6.30806 4.81694C6.42527 4.93415 6.58424 5 6.75 5C6.91576 5 7.07473 4.93415 7.19194 4.81694C7.30915 4.69973 7.375 4.54076 7.375 4.375V3.75H13.625V4.375C13.625 4.54076 13.6908 4.69973 13.8081 4.81694C13.9253 4.93415 14.0842 5 14.25 5C14.4158 5 14.5747 4.93415 14.6919 4.81694C14.8092 4.69973 14.875 4.54076 14.875 4.375V3.75H16.75V6.25H4.25V3.75H6.125ZM16.75 16.25H4.25V7.5H16.75V16.25ZM11.4375 10.3125C11.4375 10.4979 11.3825 10.6792 11.2795 10.8333C11.1765 10.9875 11.0301 11.1077 10.8588 11.1786C10.6875 11.2496 10.499 11.2682 10.3171 11.232C10.1352 11.1958 9.9682 11.1065 9.83709 10.9754C9.70598 10.8443 9.61669 10.6773 9.58051 10.4954C9.54434 10.3135 9.56291 10.125 9.63386 9.95373C9.70482 9.78243 9.82498 9.63601 9.97915 9.533C10.1333 9.42998 10.3146 9.375 10.5 9.375C10.7486 9.375 10.9871 9.47377 11.1629 9.64959C11.3387 9.8254 11.4375 10.0639 11.4375 10.3125ZM14.875 10.3125C14.875 10.4979 14.82 10.6792 14.717 10.8333C14.614 10.9875 14.4676 11.1077 14.2963 11.1786C14.125 11.2496 13.9365 11.2682 13.7546 11.232C13.5727 11.1958 13.4057 11.1065 13.2746 10.9754C13.1435 10.8443 13.0542 10.6773 13.018 10.4954C12.9818 10.3135 13.0004 10.125 13.0714 9.95373C13.1423 9.78243 13.2625 9.63601 13.4167 9.533C13.5708 9.42998 13.7521 9.375 13.9375 9.375C14.1861 9.375 14.4246 9.47377 14.6004 9.64959C14.7762 9.8254 14.875 10.0639 14.875 10.3125ZM8 13.4375C8 13.6229 7.94502 13.8042 7.842 13.9583C7.73899 14.1125 7.59257 14.2327 7.42127 14.3036C7.24996 14.3746 7.06146 14.3932 6.8796 14.357C6.69775 14.3208 6.5307 14.2315 6.39959 14.1004C6.26848 13.9693 6.17919 13.8023 6.14301 13.6204C6.10684 13.4385 6.12541 13.25 6.19636 13.0787C6.26732 12.9074 6.38748 12.761 6.54165 12.658C6.69582 12.555 6.87708 12.5 7.0625 12.5C7.31114 12.5 7.5496 12.5988 7.72541 12.7746C7.90123 12.9504 8 13.1889 8 13.4375ZM11.4375 13.4375C11.4375 13.6229 11.3825 13.8042 11.2795 13.9583C11.1765 14.1125 11.0301 14.2327 10.8588 14.3036C10.6875 14.3746 10.499 14.3932 10.3171 14.357C10.1352 14.3208 9.9682 14.2315 9.83709 14.1004C9.70598 13.9693 9.61669 13.8023 9.58051 13.6204C9.54434 13.4385 9.56291 13.25 9.63386 13.0787C9.70482 12.9074 9.82498 12.761 9.97915 12.658C10.1333 12.555 10.3146 12.5 10.5 12.5C10.7486 12.5 10.9871 12.5988 11.1629 12.7746C11.3387 12.9504 11.4375 13.1889 11.4375 13.4375ZM14.875 13.4375C14.875 13.6229 14.82 13.8042 14.717 13.9583C14.614 14.1125 14.4676 14.2327 14.2963 14.3036C14.125 14.3746 13.9365 14.3932 13.7546 14.357C13.5727 14.3208 13.4057 14.2315 13.2746 14.1004C13.1435 13.9693 13.0542 13.8023 13.018 13.6204C12.9818 13.4385 13.0004 13.25 13.0714 13.0787C13.1423 12.9074 13.2625 12.761 13.4167 12.658C13.5708 12.555 13.7521 12.5 13.9375 12.5C14.1861 12.5 14.4246 12.5988 14.6004 12.7746C14.7762 12.9504 14.875 13.1889 14.875 13.4375Z" fill="#96FF3C"/>
</svg>
