<svg width="16" height="16" viewBox="0 0 16 16" fill="none" xmlns="http://www.w3.org/2000/svg">
<path d="M2.55078 12.0039C1.78418 12.0039 1.20801 11.8159 0.822266 11.4399C0.441406 11.0591 0.250977 10.4902 0.250977 9.7334V2.32129C0.250977 1.56445 0.441406 0.998047 0.822266 0.62207C1.20801 0.241211 1.78418 0.0507812 2.55078 0.0507812H9.9043C10.666 0.0507812 11.2373 0.241211 11.6182 0.62207C12.0039 1.00293 12.1968 1.56934 12.1968 2.32129V3.99121H11.0176V2.38721C11.0176 2.00635 10.9175 1.71826 10.7173 1.52295C10.522 1.32764 10.2437 1.22998 9.88232 1.22998H2.56543C2.19922 1.22998 1.91846 1.32764 1.72314 1.52295C1.52783 1.71826 1.43018 2.00635 1.43018 2.38721V9.66748C1.43018 10.0483 1.52783 10.3364 1.72314 10.5317C1.91846 10.7271 2.19922 10.8247 2.56543 10.8247H4.40381V12.0039H2.55078ZM6.10303 15.395C5.33643 15.395 4.76025 15.2046 4.37451 14.8237C3.99365 14.4478 3.80322 13.8813 3.80322 13.1245V5.7124C3.80322 4.95557 3.99365 4.38916 4.37451 4.01318C4.76025 3.63232 5.33643 3.44189 6.10303 3.44189H13.4565C14.2183 3.44189 14.7896 3.63232 15.1704 4.01318C15.5562 4.39404 15.749 4.96045 15.749 5.7124V13.1245C15.749 13.8765 15.5562 14.4429 15.1704 14.8237C14.7896 15.2046 14.2183 15.395 13.4565 15.395H6.10303Z" fill="#0A84FF"/>
</svg>
