<svg width="41" height="40" viewBox="0 0 41 40" fill="none" xmlns="http://www.w3.org/2000/svg">
<g clip-path="url(#clip0_501_19702)">
<g clip-path="url(#clip1_501_19702)">
<path d="M20.5781 0C9.58608 0 0.5 8.92967 0.5 19.9218C0.5 30.914 9.58608 39.9999 20.5781 39.9999C31.5701 39.9999 40.4999 30.914 40.4999 19.9218C40.4999 8.92967 31.5701 0 20.5781 0Z" fill="#00B44B"/>
<path d="M40.5 19.9218C40.5 30.914 31.5701 39.9999 20.5781 39.9999V0C31.5701 0 40.5 8.92967 40.5 19.9218Z" fill="#03A346"/>
<path d="M20.5781 7.03125C13.4765 7.03125 7.53125 12.8202 7.53125 19.9218C7.53125 27.0233 13.4765 32.9687 20.5781 32.9687C23.4374 32.9687 26.1562 32.0546 28.4064 30.3203C29.6484 29.3593 28.1953 27.5078 27 28.4453C25.1483 29.875 22.9218 30.625 20.5781 30.625C14.7657 30.625 9.875 25.7343 9.875 19.9218C9.875 14.1093 14.7657 9.375 20.5781 9.375C26.3905 9.375 31.125 14.1093 31.125 19.9218V21.25C31.125 24.3437 26.4375 24.3437 26.4375 21.25V15.2344C26.4375 13.6874 24.0937 13.6874 24.0937 15.2344V15.2578C23.1095 14.5312 21.9142 14.0625 20.5781 14.0625C17.3437 14.0625 14.7187 16.6875 14.7187 19.9218C14.7187 23.1562 17.3437 25.9375 20.5781 25.9375C22.3359 25.9375 23.8825 25.1639 24.9609 23.9452C27.5859 27.6953 33.4687 25.7968 33.4687 21.25V19.9218C33.4687 12.8202 27.6797 7.03125 20.5781 7.03125ZM20.5781 23.5937C18.6326 23.5937 17.0625 21.8671 17.0625 19.9218C17.0625 17.9765 18.6326 16.4062 20.5781 16.4062C22.5236 16.4062 24.0937 17.9765 24.0937 19.9218C24.0937 21.8671 22.5236 23.5937 20.5781 23.5937Z" fill="#D8F469"/>
<path d="M28.4065 30.3201C26.1562 32.0545 23.4374 32.9686 20.5781 32.9686V30.6248C22.9219 30.6248 25.1484 29.8748 27 28.4451C28.1953 27.5076 29.6484 29.3591 28.4065 30.3201Z" fill="#93E300"/>
<path d="M33.4687 19.9219V21.25C33.4687 25.7968 27.5859 27.6953 24.9609 23.9452C23.8826 25.1639 22.3359 25.9375 20.5781 25.9375V23.5937C22.5236 23.5937 24.0937 21.8671 24.0937 19.9219C24.0937 17.9765 22.5236 16.4062 20.5781 16.4062V14.0625C21.9142 14.0625 23.1095 14.5312 24.0937 15.2578V15.2344C24.0937 13.6874 26.4375 13.6874 26.4375 15.2344V21.25C26.4375 24.3437 31.125 24.3437 31.125 21.25V19.9219C31.125 14.1093 26.3905 9.375 20.5781 9.375V7.03125C27.6798 7.03125 33.4687 12.8202 33.4687 19.9219Z" fill="#93E300"/>
</g>
</g>
<defs>
<clipPath id="clip0_501_19702">
<rect width="40" height="40" fill="white" transform="translate(0.5)"/>
</clipPath>
<clipPath id="clip1_501_19702">
<rect width="39.9999" height="39.9999" fill="white" transform="translate(0.5)"/>
</clipPath>
</defs>
</svg>
