<svg width="41" height="40" viewBox="0 0 41 40" fill="none" xmlns="http://www.w3.org/2000/svg">
<g clip-path="url(#clip0_502_6661)">
<g clip-path="url(#clip1_502_6661)">
<path d="M35.6562 10.9845V40H0.5V4.84375H29.5155L35.6562 10.9845Z" fill="#D8F469"/>
<path d="M35.6562 10.9845V40H0.5L32.5859 7.91412L35.6562 10.9845Z" fill="#93E300"/>
<path d="M40.5001 6.633L36.1251 10.9845L30.9689 9.53125L29.5156 4.375L33.8671 0L37.1954 3.32794L40.5001 6.633Z" fill="#025731"/>
<path d="M40.5 6.633L36.125 10.9845L30.9688 9.53125L37.1953 3.32794L40.5 6.633Z" fill="#067744"/>
<path d="M36.1252 10.9845L19.3674 27.7658L12.7344 21.1328L29.5157 4.375L36.1252 10.9845Z" fill="#00DA26"/>
<path d="M36.1251 10.9845L19.3672 27.7658L16.0625 24.4611L32.8203 7.67975L36.1251 10.9845Z" fill="#00B44B"/>
<path d="M19.3671 27.7658L9.42969 31.0703L12.7341 21.1328L17.9139 22.5861L19.3671 27.7658Z" fill="#93E300"/>
<path d="M19.3671 27.7658L9.42969 31.0703L17.9139 22.5861L19.3671 27.7658Z" fill="#00DA26"/>
</g>
</g>
<defs>
<clipPath id="clip0_502_6661">
<rect width="40" height="40" fill="white" transform="translate(0.5)"/>
</clipPath>
<clipPath id="clip1_502_6661">
<rect width="40" height="40" fill="white" transform="translate(0.5)"/>
</clipPath>
</defs>
</svg>
