<svg width="41" height="40" viewBox="0 0 41 40" fill="none" xmlns="http://www.w3.org/2000/svg">
<g clip-path="url(#clip0_501_18829)">
<g clip-path="url(#clip1_501_18829)">
<path d="M5.20605 0V40H20.5002L21.6766 17.6471L20.5002 0H5.20605Z" fill="#00B44B"/>
<path d="M35.7941 8.92439C28.4284 5.44039 29.4659 5.93114 29.3627 5.88235L26.8693 0H20.5V40H35.7941V8.92439Z" fill="#03A346"/>
<path d="M9.91211 15.2939H12.2651V17.6469H9.91211V15.2939Z" fill="#00B44B"/>
<path d="M14.5591 23.4297V30.2896L20.4999 33.7196L21.6764 30.588L20.4999 26.8011L18.147 23.5291L14.5591 23.4297Z" fill="#D8F469"/>
<path d="M20.5 26.8011V33.7196L26.4409 30.2896V23.4297L21.6765 24.7982L20.5 26.8011Z" fill="#93E300"/>
<path d="M14.6177 15.2939H16.9706V17.6469H14.6177V15.2939Z" fill="#00B44B"/>
<path d="M24.0298 15.2939H26.3827V17.6469H24.0298V15.2939Z" fill="#03A346"/>
<path d="M28.7358 15.2939H31.0888V17.6469H28.7358V15.2939Z" fill="#03A346"/>
<path d="M35.794 8.924L26.87 0H26.8696V8.924H35.794Z" fill="#00DA26"/>
<path d="M9.875 5.9375V9.0625H20.5625L21.75 7.8125L20.5625 5.9375H9.875Z" fill="#D8F469"/>
<path d="M20.5 5.9375H23V9.0625H20.5V5.9375Z" fill="#93E300"/>
<path d="M14.5591 23.43L20.4999 26.8014L21.6764 23.5294L20.4999 20L14.5591 23.43Z" fill="#00DA26"/>
<path d="M20.5 20V26.8014L26.4409 23.43L20.5 20Z" fill="#00B44B"/>
</g>
</g>
<defs>
<clipPath id="clip0_501_18829">
<rect width="40" height="40" fill="white" transform="translate(0.5)"/>
</clipPath>
<clipPath id="clip1_501_18829">
<rect width="40" height="40" fill="white" transform="translate(0.5)"/>
</clipPath>
</defs>
</svg>
