<svg width="33" height="32" viewBox="0 0 33 32" fill="none" xmlns="http://www.w3.org/2000/svg">
<path opacity="0.2" d="M28.5 16C28.5 18.3734 27.7962 20.6935 26.4776 22.6668C25.1591 24.6402 23.2849 26.1783 21.0922 27.0866C18.8995 27.9948 16.4867 28.2324 14.1589 27.7694C11.8312 27.3064 9.69295 26.1635 8.01472 24.4853C6.33649 22.8071 5.1936 20.6689 4.73058 18.3411C4.26756 16.0133 4.5052 13.6005 5.41345 11.4078C6.3217 9.21509 7.85977 7.34094 9.83316 6.02236C11.8066 4.70379 14.1266 4 16.5 4C19.6826 4 22.7348 5.26428 24.9853 7.51472C27.2357 9.76515 28.5 12.8174 28.5 16Z" fill="white"/>
<path d="M23.5 16C23.5069 20.0406 22.7195 24.0431 21.1825 27.78C21.1079 27.9643 20.9801 28.1223 20.8153 28.2336C20.6506 28.3449 20.4564 28.4046 20.2575 28.405C20.1289 28.4038 20.0017 28.3783 19.8825 28.33C19.7609 28.2801 19.6503 28.2067 19.5571 28.114C19.4638 28.0214 19.3898 27.9112 19.3392 27.7899C19.2885 27.6686 19.2623 27.5384 19.2621 27.407C19.2618 27.2755 19.2874 27.1453 19.3375 27.0238C20.7741 23.5265 21.5089 19.7808 21.5 16C21.5 15.7348 21.6054 15.4804 21.7929 15.2929C21.9804 15.1054 22.2348 15 22.5 15C22.7652 15 23.0196 15.1054 23.2071 15.2929C23.3947 15.4804 23.5 15.7348 23.5 16ZM16.5 11C17.2033 11.0005 17.8986 11.1491 18.5406 11.4362C19.1826 11.7233 19.757 12.1424 20.2263 12.6663C20.3132 12.7665 20.4191 12.8484 20.538 12.9073C20.6569 12.9662 20.7863 13.0008 20.9187 13.0092C21.0511 13.0176 21.1838 12.9996 21.3092 12.9562C21.4345 12.9127 21.55 12.8448 21.6488 12.7563C21.7477 12.6678 21.8279 12.5606 21.8849 12.4408C21.9419 12.321 21.9745 12.1911 21.9807 12.0585C21.987 11.926 21.9669 11.7936 21.9215 11.6689C21.8761 11.5443 21.8063 11.4299 21.7163 11.3325C20.771 10.2762 19.5273 9.53183 18.1498 9.19776C16.7723 8.86368 15.3258 8.95568 14.0016 9.46159C12.6775 9.9675 11.5382 10.8635 10.7344 12.031C9.93056 13.1985 9.50012 14.5825 9.50001 16C9.49988 18.8794 8.7687 21.7116 7.37501 24.2313C7.31132 24.3462 7.27088 24.4725 7.25601 24.603C7.24114 24.7336 7.25213 24.8657 7.28834 24.992C7.32456 25.1183 7.38529 25.2362 7.46708 25.3391C7.54886 25.4419 7.6501 25.5276 7.76501 25.5913C7.87991 25.6549 8.00624 25.6954 8.13677 25.7103C8.26731 25.7251 8.39949 25.7141 8.52578 25.6779C8.65207 25.6417 8.76999 25.581 8.8728 25.4992C8.97562 25.4174 9.06132 25.3162 9.12501 25.2013C10.6826 22.3846 11.4997 19.2187 11.5 16C11.5 14.6739 12.0268 13.4022 12.9645 12.4645C13.9022 11.5268 15.1739 11 16.5 11ZM16.5 3.00001C15.0238 2.99823 13.5582 3.2485 12.1663 3.74001C11.9207 3.83183 11.721 4.01643 11.6102 4.25406C11.4993 4.49169 11.4863 4.76333 11.5738 5.01048C11.6613 5.25764 11.8424 5.46053 12.0781 5.57547C12.3137 5.69041 12.5851 5.7082 12.8338 5.62501C14.4932 5.03988 16.2688 4.86114 18.0115 5.1038C19.7543 5.34645 21.4135 6.00341 22.85 7.01959C24.2865 8.03578 25.4584 9.38157 26.2675 10.9441C27.0766 12.5067 27.4992 14.2404 27.5 16C27.5012 18.6171 27.2102 21.2262 26.6325 23.7788C26.5738 24.0368 26.6197 24.3076 26.7603 24.5319C26.9009 24.7561 27.1246 24.9154 27.3825 24.975C27.4555 24.9919 27.5301 25.0003 27.605 25C27.8317 25 28.0517 24.9229 28.2289 24.7814C28.406 24.6399 28.5298 24.4424 28.58 24.2213C29.1909 21.5235 29.4994 18.7661 29.5 16C29.4964 12.5533 28.1256 9.24883 25.6884 6.81164C23.2512 4.37446 19.9467 3.00365 16.5 3.00001ZM9.16376 7.80251C9.26167 7.71493 9.34138 7.60893 9.39833 7.49055C9.45528 7.37217 9.48836 7.24373 9.49567 7.11257C9.50298 6.98141 9.48439 6.85009 9.44095 6.72611C9.39751 6.60213 9.33008 6.48793 9.24251 6.39001C9.15493 6.29209 9.04893 6.21238 8.93055 6.15543C8.81217 6.09848 8.68373 6.06541 8.55257 6.0581C8.4214 6.05078 8.29009 6.06938 8.16611 6.11281C8.04213 6.15625 7.92792 6.22368 7.83001 6.31126C6.46841 7.53164 5.37913 9.02512 4.63308 10.6945C3.88704 12.3638 3.50097 14.1715 3.50001 16C3.50281 17.5819 3.16159 19.1456 2.50001 20.5825C2.44518 20.7018 2.4144 20.8308 2.40941 20.9621C2.40443 21.0933 2.42534 21.2242 2.47096 21.3474C2.56308 21.5961 2.75024 21.798 2.99126 21.9088C3.23227 22.0195 3.5074 22.0299 3.75612 21.9378C4.00484 21.8457 4.20678 21.6585 4.31751 21.4175C5.09984 19.7188 5.50333 17.8702 5.50001 16C5.50086 14.453 5.82755 12.9234 6.4588 11.511C7.09005 10.0986 8.01171 8.83504 9.16376 7.80251ZM14.7363 25.0925C14.4954 24.9822 14.2206 24.9719 13.9721 25.064C13.7237 25.1561 13.522 25.3431 13.4113 25.5838C13.17 26.1088 12.905 26.6325 12.6238 27.1388C12.5598 27.2537 12.5192 27.3801 12.5042 27.5108C12.4892 27.6415 12.5001 27.7739 12.5363 27.9003C12.5726 28.0268 12.6334 28.1448 12.7153 28.2477C12.7972 28.3506 12.8986 28.4364 13.0138 28.5C13.1616 28.5826 13.3282 28.6256 13.4975 28.625C13.6761 28.6251 13.8514 28.5774 14.0052 28.4868C14.1591 28.3963 14.2859 28.2661 14.3725 28.11C14.6775 27.5588 14.965 26.985 15.2275 26.42C15.2825 26.3006 15.3135 26.1715 15.3186 26.0402C15.3237 25.9088 15.3028 25.7777 15.2572 25.6544C15.2115 25.5311 15.142 25.418 15.0527 25.3216C14.9633 25.2252 14.8558 25.1473 14.7363 25.0925ZM16.5 15C16.2348 15 15.9804 15.1054 15.7929 15.2929C15.6054 15.4804 15.5 15.7348 15.5 16C15.5007 17.9394 15.2576 19.8713 14.7763 21.75C14.7102 22.0068 14.7488 22.2793 14.8836 22.5076C15.0184 22.7359 15.2383 22.9013 15.495 22.9675C15.5767 22.9883 15.6607 22.9988 15.745 22.9988C15.9666 22.9986 16.1818 22.9248 16.3569 22.7891C16.532 22.6534 16.6571 22.4633 16.7125 22.2488C17.2366 20.2068 17.5012 18.1069 17.5 15.9988C17.4997 15.7338 17.3942 15.4797 17.2067 15.2925C17.0192 15.1052 16.765 15 16.5 15Z" fill="white"/>
</svg>
