<svg width="17" height="16" viewBox="0 0 17 16" fill="none" xmlns="http://www.w3.org/2000/svg">
<g id="filter">
<path id="Vector" opacity="0.2" d="M8.5 5C8.5 5.29667 8.41203 5.58668 8.24721 5.83336C8.08238 6.08003 7.84812 6.27229 7.57403 6.38582C7.29994 6.49935 6.99834 6.52906 6.70737 6.47118C6.41639 6.4133 6.14912 6.27044 5.93934 6.06066C5.72956 5.85088 5.5867 5.58361 5.52882 5.29264C5.47094 5.00166 5.50065 4.70006 5.61418 4.42597C5.72771 4.15189 5.91997 3.91762 6.16665 3.7528C6.41332 3.58797 6.70333 3.5 7 3.5C7.39783 3.5 7.77936 3.65804 8.06066 3.93934C8.34197 4.22064 8.5 4.60218 8.5 5ZM11 9.5C10.7033 9.5 10.4133 9.58797 10.1666 9.7528C9.91997 9.91762 9.72771 10.1519 9.61418 10.426C9.50065 10.7001 9.47095 11.0017 9.52882 11.2926C9.5867 11.5836 9.72956 11.8509 9.93934 12.0607C10.1491 12.2704 10.4164 12.4133 10.7074 12.4712C10.9983 12.5291 11.2999 12.4994 11.574 12.3858C11.8481 12.2723 12.0824 12.08 12.2472 11.8334C12.412 11.5867 12.5 11.2967 12.5 11C12.5 10.6022 12.342 10.2206 12.0607 9.93934C11.7794 9.65804 11.3978 9.5 11 9.5Z" fill="white"/>
<path id="Vector_2" d="M3 5.50002H5.0625C5.17265 5.93022 5.42285 6.31153 5.77365 6.58384C6.12446 6.85614 6.55591 7.00394 7 7.00394C7.44409 7.00394 7.87554 6.85614 8.22635 6.58384C8.57715 6.31153 8.82735 5.93022 8.9375 5.50002H14C14.1326 5.50002 14.2598 5.44734 14.3536 5.35357C14.4473 5.2598 14.5 5.13262 14.5 5.00002C14.5 4.86741 14.4473 4.74023 14.3536 4.64646C14.2598 4.55269 14.1326 4.50002 14 4.50002H8.9375C8.82735 4.06981 8.57715 3.6885 8.22635 3.4162C7.87554 3.14389 7.44409 2.99609 7 2.99609C6.55591 2.99609 6.12446 3.14389 5.77365 3.4162C5.42285 3.6885 5.17265 4.06981 5.0625 4.50002H3C2.86739 4.50002 2.74021 4.55269 2.64645 4.64646C2.55268 4.74023 2.5 4.86741 2.5 5.00002C2.5 5.13262 2.55268 5.2598 2.64645 5.35357C2.74021 5.44734 2.86739 5.50002 3 5.50002ZM7 4.00002C7.19778 4.00002 7.39112 4.05866 7.55557 4.16855C7.72002 4.27843 7.84819 4.43461 7.92388 4.61733C7.99957 4.80006 8.01937 5.00112 7.98079 5.19511C7.9422 5.38909 7.84696 5.56727 7.70711 5.70712C7.56725 5.84697 7.38907 5.94222 7.19509 5.9808C7.00111 6.01939 6.80004 5.99958 6.61732 5.9239C6.43459 5.84821 6.27841 5.72003 6.16853 5.55559C6.05865 5.39114 6 5.1978 6 5.00002C6 4.7348 6.10536 4.48045 6.29289 4.29291C6.48043 4.10537 6.73478 4.00002 7 4.00002ZM14 10.5H12.9375C12.8273 10.0698 12.5771 9.6885 12.2263 9.4162C11.8755 9.1439 11.4441 8.99609 11 8.99609C10.5559 8.99609 10.1245 9.1439 9.77365 9.4162C9.42285 9.6885 9.17265 10.0698 9.0625 10.5H3C2.86739 10.5 2.74021 10.5527 2.64645 10.6465C2.55268 10.7402 2.5 10.8674 2.5 11C2.5 11.1326 2.55268 11.2598 2.64645 11.3536C2.74021 11.4473 2.86739 11.5 3 11.5H9.0625C9.17265 11.9302 9.42285 12.3115 9.77365 12.5838C10.1245 12.8561 10.5559 13.0039 11 13.0039C11.4441 13.0039 11.8755 12.8561 12.2263 12.5838C12.5771 12.3115 12.8273 11.9302 12.9375 11.5H14C14.1326 11.5 14.2598 11.4473 14.3536 11.3536C14.4473 11.2598 14.5 11.1326 14.5 11C14.5 10.8674 14.4473 10.7402 14.3536 10.6465C14.2598 10.5527 14.1326 10.5 14 10.5ZM11 12C10.8022 12 10.6089 11.9414 10.4444 11.8315C10.28 11.7216 10.1518 11.5654 10.0761 11.3827C10.0004 11.2 9.98063 10.9989 10.0192 10.8049C10.0578 10.6109 10.153 10.4328 10.2929 10.2929C10.4327 10.1531 10.6109 10.0578 10.8049 10.0192C10.9989 9.98064 11.2 10.0004 11.3827 10.0761C11.5654 10.1518 11.7216 10.28 11.8315 10.4444C11.9414 10.6089 12 10.8022 12 11C12 11.2652 11.8946 11.5196 11.7071 11.7071C11.5196 11.8947 11.2652 12 11 12Z" fill="white"/>
</g>
</svg>
