<svg width="33" height="32" viewBox="0 0 33 32" fill="none" xmlns="http://www.w3.org/2000/svg">
<path opacity="0.2" d="M28.125 8V26H4.125V6H26.125C26.6554 6 27.1641 6.21071 27.5392 6.58579C27.9143 6.96086 28.125 7.46957 28.125 8Z" fill="white"/>
<path d="M29.125 26C29.125 26.2652 29.0196 26.5196 28.8321 26.7071C28.6446 26.8946 28.3902 27 28.125 27H4.125C3.85978 27 3.60543 26.8946 3.41789 26.7071C3.23036 26.5196 3.125 26.2652 3.125 26V6C3.125 5.73478 3.23036 5.48043 3.41789 5.29289C3.60543 5.10536 3.85978 5 4.125 5C4.39022 5 4.64457 5.10536 4.83211 5.29289C5.01964 5.48043 5.125 5.73478 5.125 6V19.5863L11.4175 13.2925C11.5104 13.1995 11.6207 13.1258 11.7421 13.0754C11.8635 13.0251 11.9936 12.9992 12.125 12.9992C12.2564 12.9992 12.3865 13.0251 12.5079 13.0754C12.6293 13.1258 12.7396 13.1995 12.8325 13.2925L16.125 16.5863L22.7113 10H20.125C19.8598 10 19.6054 9.89464 19.4179 9.70711C19.2304 9.51957 19.125 9.26522 19.125 9C19.125 8.73478 19.2304 8.48043 19.4179 8.29289C19.6054 8.10536 19.8598 8 20.125 8H25.125C25.3902 8 25.6446 8.10536 25.8321 8.29289C26.0196 8.48043 26.125 8.73478 26.125 9V14C26.125 14.2652 26.0196 14.5196 25.8321 14.7071C25.6446 14.8946 25.3902 15 25.125 15C24.8598 15 24.6054 14.8946 24.4179 14.7071C24.2304 14.5196 24.125 14.2652 24.125 14V11.4137L16.8325 18.7075C16.7396 18.8005 16.6293 18.8742 16.5079 18.9246C16.3865 18.9749 16.2564 19.0008 16.125 19.0008C15.9936 19.0008 15.8635 18.9749 15.7421 18.9246C15.6207 18.8742 15.5104 18.8005 15.4175 18.7075L12.125 15.4137L5.125 22.4137V25H28.125C28.3902 25 28.6446 25.1054 28.8321 25.2929C29.0196 25.4804 29.125 25.7348 29.125 26Z" fill="white"/>
</svg>
