<svg width="112" height="45" viewBox="0 0 112 45" fill="none" xmlns="http://www.w3.org/2000/svg">
<path d="M15.75 16.5391L20.3313 21.1204C20.4868 21.2759 20.4868 21.5151 20.3313 21.6706L16.7907 25.1873L16.4079 25.5582C16.1567 25.7974 15.75 25.618 15.75 25.283V16.5391Z" fill="#97FF0A"/>
<path d="M21.0034 16.5391V16.563L20.9795 16.5391H21.0034Z" fill="#97FF0A"/>
<path d="M34.8175 17.5316C35.1644 17.1847 35.7385 17.4359 35.7385 17.9143V26.2636H35.6548L30.8701 21.4789L34.8175 17.5316Z" fill="#97FF0A"/>
<path d="M25.8337 21.3956L23.226 18.788L20.9772 16.5392H15.75V15.1157C15.75 13.776 16.8385 12.6875 18.1782 12.6875H25.6662C26.4198 12.6875 27.1375 12.9865 27.6638 13.5129L29.6016 15.4506C30.2116 16.0607 30.2116 17.0415 29.6016 17.6396L28.4533 18.788L25.8337 21.3956Z" fill="#97FF0A"/>
<path d="M22.842 28.501L24.6482 30.1876H34.0381C34.9831 30.1876 35.7486 29.422 35.7486 28.4771V26.2522H35.6649H30.6171L25.8564 21.4915H25.8444L25.8324 21.4795L22.0167 25.2953C21.3229 25.989 21.3468 27.1374 22.0884 27.7952L22.842 28.501Z" fill="#97FF0A"/>
<path d="M52.2464 28.2395L46.9833 21.2539L41.7202 28.2395H41.2417L46.7441 20.9429L41.6484 14.1367H42.1508L47.0072 20.6439L51.8637 14.1367H52.3421L47.2465 20.9429L52.7488 28.2395H52.2464Z" fill="#EFEFEF"/>
<path d="M52.7856 23.0122C52.7856 19.926 54.9387 17.749 57.8454 17.749C60.7521 17.749 62.9052 19.926 62.9052 23.0122C62.9052 26.0983 60.7521 28.2872 57.8454 28.2872C54.9507 28.2992 52.7856 26.0983 52.7856 23.0122ZM62.4985 23.0122C62.4985 20.1294 60.5009 18.1318 57.8454 18.1318C55.1899 18.1318 53.1923 20.1294 53.1923 23.0122C53.1923 25.8949 55.1899 27.9045 57.8454 27.9045C60.5129 27.9164 62.4985 25.8949 62.4985 23.0122Z" fill="#EFEFEF"/>
<path d="M65.3682 13.2871H65.7749V28.2392H65.3682V13.2871Z" fill="#EFEFEF"/>
<path d="M69.4438 13.2871H69.8505V28.2392H69.4438V13.2871Z" fill="#EFEFEF"/>
<path d="M81.9597 23.0122H72.6894C72.6894 25.8949 74.7468 27.9045 77.51 27.9045C78.8975 27.9045 80.2253 27.3782 81.0506 26.2896L81.3377 26.5767C80.4166 27.7011 79.0052 28.2872 77.51 28.2872C74.5076 28.2872 72.3066 26.0863 72.3066 23.0122C72.3066 19.926 74.364 17.749 77.1272 17.749C79.8664 17.749 81.9597 19.8902 81.9597 22.9045V23.0122ZM72.7014 22.6294H81.5889C81.4454 20.0457 79.5913 18.1318 77.1392 18.1318C74.6751 18.1438 72.833 20.0576 72.7014 22.6294Z" fill="#EFEFEF"/>
<path d="M89.1104 27.5447C88.6319 28.047 87.8185 28.2863 87.0769 28.2863C85.4262 28.2863 84.553 27.2576 84.553 25.7265V18.1906H82.5435V17.8079H84.553V15.5352H84.9597V17.8079H88.4884V18.1906H84.9597V25.6308C84.9597 27.1021 85.6894 27.9035 87.1008 27.9035C87.7707 27.9035 88.3927 27.6762 88.8353 27.2576L89.1104 27.5447Z" fill="#EFEFEF"/>
<path d="M95.5679 27.7714C95.5679 27.4844 95.8071 27.2451 96.0942 27.2451C96.3813 27.2451 96.6205 27.4844 96.6205 27.7714C96.6205 28.0585 96.3813 28.2977 96.0942 28.2977C95.8071 28.2977 95.5679 28.0466 95.5679 27.7714Z" fill="#97FF0A"/>
</svg>
