<svg width="41" height="40" viewBox="0 0 41 40" fill="none" xmlns="http://www.w3.org/2000/svg">
<path d="M31.5017 11.0294V20.147C31.5017 21.3822 30.5312 22.3529 29.2958 22.3529C28.0603 22.3529 27.0899 21.3822 27.0899 20.147V11.0294C27.0899 7.36749 24.1342 4.41176 20.4723 4.41176C16.8104 4.41176 13.8546 7.36749 13.8546 11.0294V20.147C13.8546 21.3822 12.8842 22.3529 11.6487 22.3529C10.4133 22.3529 9.44287 21.3822 9.44287 20.147V11.0294C9.44287 4.94117 14.384 0 20.4723 0C26.5605 0 31.5017 4.94117 31.5017 11.0294Z" fill="#D8F469"/>
<path d="M31.5016 11.0294V20.147C31.5016 21.3822 30.5311 22.3529 29.2957 22.3529C28.0602 22.3529 27.0898 21.3822 27.0898 20.147V11.0294C27.0898 7.36749 24.1341 4.41176 20.4722 4.41176V0C26.5604 0 31.5016 4.94117 31.5016 11.0294Z" fill="#93E300"/>
<path d="M29.2959 17.9409H11.6489C7.98698 17.9409 5.03125 20.8966 5.03125 24.5586V33.3821C5.03125 37.0437 7.98698 39.9997 11.6489 39.9997H29.2959C32.9578 39.9997 35.9135 37.0437 35.9135 33.3821V24.5586C35.9135 20.8966 32.9578 17.9409 29.2959 17.9409Z" fill="#00B44B"/>
<path d="M35.9133 24.5586V33.3821C35.9133 37.0437 32.9576 39.9997 29.2957 39.9997H20.4722V17.9409H29.2957C32.9576 17.9409 35.9133 20.8966 35.9133 24.5586Z" fill="#03A346"/>
<path d="M27.0903 28.9705C27.0903 30.2057 26.1198 31.1764 24.8844 31.1764H16.0609C14.8254 31.1764 13.855 30.2057 13.855 28.9705C13.855 27.7351 14.8254 26.7646 16.0609 26.7646H24.8844C26.1198 26.7646 27.0903 27.7351 27.0903 28.9705Z" fill="#D8F469"/>
<path d="M27.0898 28.9705C27.0898 30.2057 26.1194 31.1764 24.8839 31.1764H20.4722V26.7646H24.8839C26.1194 26.7646 27.0898 27.7351 27.0898 28.9705Z" fill="#93E300"/>
</svg>
