<svg width="41" height="40" viewBox="0 0 41 40" fill="none" xmlns="http://www.w3.org/2000/svg">
<g clip-path="url(#clip0_501_19620)">
<path d="M20.5 0L16.5547 7.10938L32.2578 35.2344H35.7734V0H20.5Z" fill="#00DA26"/>
<path d="M20.5 4.76562V0H5.22656V35.2344H9.91406L20.5 4.76562Z" fill="#00DA26"/>
<path d="M20.5 3.59375L12.6484 35.2344H32.2578V3.59375H20.5Z" fill="#03A346"/>
<path d="M8.74219 3.59375L12.2578 24.7656H20.5V3.59375H8.74219Z" fill="#00B44B"/>
<path d="M26.3984 8.35961L20.5 6.76758L15.8125 22.5879L20.5 38.4082L26.3984 40.0002V8.35961Z" fill="#93E300"/>
<path d="M8.74219 3.59375V35.2344L20.5 38.408V6.76734L8.74219 3.59375Z" fill="#D8F469"/>
<path d="M23.4492 24.5586C24.0964 24.5586 24.6211 24.0339 24.6211 23.3867C24.6211 22.7395 24.0964 22.2148 23.4492 22.2148C22.802 22.2148 22.2773 22.7395 22.2773 23.3867C22.2773 24.0339 22.802 24.5586 23.4492 24.5586Z" fill="white"/>
</g>
<defs>
<clipPath id="clip0_501_19620">
<rect width="40" height="40" fill="white" transform="translate(0.5)"/>
</clipPath>
</defs>
</svg>
