<svg width="20" height="20" viewBox="0 0 20 20" fill="none" xmlns="http://www.w3.org/2000/svg">
<path opacity="0.2" d="M18.1146 6.98598L16.3412 15.111C16.3157 15.2557 16.24 15.3868 16.1274 15.4812C16.0148 15.5757 15.8725 15.6274 15.7256 15.6274H4.27402C4.12707 15.6274 3.98481 15.5757 3.87223 15.4812C3.75964 15.3868 3.68393 15.2557 3.6584 15.111L1.88496 6.98598C1.86201 6.85207 1.88331 6.71433 1.94565 6.59361C2.00799 6.4729 2.10797 6.37578 2.23044 6.31698C2.35291 6.25817 2.49122 6.24087 2.6244 6.2677C2.75759 6.29453 2.8784 6.36402 2.96855 6.46567L6.2498 10L9.43262 2.86332C9.48272 2.75508 9.56275 2.66344 9.66325 2.59921C9.76375 2.53498 9.88053 2.50085 9.99981 2.50085C10.1191 2.50085 10.2359 2.53498 10.3364 2.59921C10.4369 2.66344 10.5169 2.75508 10.567 2.86332L13.7498 10L17.0311 6.46567C17.1212 6.36402 17.242 6.29453 17.3752 6.2677C17.5084 6.24087 17.6467 6.25817 17.7692 6.31698C17.8916 6.37578 17.9916 6.4729 18.054 6.59361C18.1163 6.71433 18.1376 6.85207 18.1146 6.98598Z" fill="#9A9A9C"/>
<path d="M18.0389 5.74999C17.7945 5.63018 17.5174 5.59425 17.2505 5.64778C16.9835 5.7013 16.7417 5.84129 16.5624 6.04608L13.9319 8.88124L11.135 2.60858C11.1349 2.60598 11.1349 2.60337 11.135 2.60077C11.035 2.38385 10.8749 2.20013 10.6738 2.07136C10.4726 1.94258 10.2387 1.87415 9.99986 1.87415C9.761 1.87415 9.52714 1.94258 9.32596 2.07136C9.12478 2.20013 8.96471 2.38385 8.8647 2.60077C8.86483 2.60337 8.86483 2.60598 8.8647 2.60858L6.06783 8.88124L3.43736 6.04608C3.25686 5.84125 3.01427 5.70114 2.74665 5.64716C2.47902 5.59319 2.20109 5.62831 1.95531 5.74717C1.70953 5.86603 1.50942 6.06209 1.38556 6.30539C1.2617 6.54869 1.2209 6.82585 1.26939 7.09452C1.26939 7.10312 1.26939 7.11093 1.27486 7.11952L3.04673 15.2344C3.10128 15.5201 3.25378 15.7779 3.47796 15.9633C3.70214 16.1487 3.98396 16.2501 4.27486 16.25H15.7256C16.0164 16.2499 16.298 16.1484 16.5221 15.963C16.7461 15.7777 16.8985 15.52 16.953 15.2344L18.7249 7.11952C18.7249 7.11093 18.7249 7.10312 18.7303 7.09452C18.7798 6.82552 18.7387 6.54772 18.6136 6.30449C18.4886 6.06126 18.2865 5.86628 18.0389 5.74999ZM15.7303 14.975L15.7256 15H4.27408L4.26939 14.975L2.49986 6.87499L2.5108 6.88749L5.79205 10.4219C5.86231 10.4978 5.95032 10.5551 6.04818 10.5886C6.14604 10.6221 6.25069 10.6309 6.35275 10.614C6.45481 10.5971 6.55108 10.5552 6.63294 10.4919C6.71479 10.4286 6.77966 10.3461 6.82173 10.2516L9.99986 3.12499L13.1788 10.2539C13.2208 10.3484 13.2857 10.431 13.3676 10.4942C13.4494 10.5575 13.5457 10.5994 13.6477 10.6163C13.7498 10.6332 13.8545 10.6245 13.9523 10.591C14.0502 10.5574 14.1382 10.5001 14.2085 10.4242L17.4897 6.88983L17.4999 6.87499L15.7303 14.975Z" fill="#9A9A9C"/>
</svg>
