<svg width="29" height="28" viewBox="0 0 29 28" fill="none" xmlns="http://www.w3.org/2000/svg">
<path opacity="0.2" d="M24.5996 8.75V21C24.5996 21.2321 24.5074 21.4546 24.3433 21.6187C24.1792 21.7828 23.9567 21.875 23.7246 21.875H6.22461C5.76048 21.875 5.31536 21.6906 4.98717 21.3624C4.65898 21.0342 4.47461 20.5891 4.47461 20.125V6.125C4.47461 6.58913 4.65898 7.03425 4.98717 7.36244C5.31536 7.69063 5.76048 7.875 6.22461 7.875H23.7246C23.9567 7.875 24.1792 7.96719 24.3433 8.13128C24.5074 8.29538 24.5996 8.51794 24.5996 8.75Z" fill="#505052"/>
<path d="M23.7246 7H6.22461C5.99254 7 5.76999 6.90781 5.60589 6.74372C5.4418 6.57962 5.34961 6.35706 5.34961 6.125C5.34961 5.89294 5.4418 5.67038 5.60589 5.50628C5.76999 5.34219 5.99254 5.25 6.22461 5.25H21.0996C21.3317 5.25 21.5542 5.15781 21.7183 4.99372C21.8824 4.82962 21.9746 4.60706 21.9746 4.375C21.9746 4.14294 21.8824 3.92038 21.7183 3.75628C21.5542 3.59219 21.3317 3.5 21.0996 3.5H6.22461C5.52842 3.5 4.86074 3.77656 4.36845 4.26884C3.87617 4.76113 3.59961 5.42881 3.59961 6.125V20.125C3.59961 20.8212 3.87617 21.4889 4.36845 21.9812C4.86074 22.4734 5.52842 22.75 6.22461 22.75H23.7246C24.1887 22.75 24.6339 22.5656 24.962 22.2374C25.2902 21.9092 25.4746 21.4641 25.4746 21V8.75C25.4746 8.28587 25.2902 7.84075 24.962 7.51256C24.6339 7.18437 24.1887 7 23.7246 7ZM23.7246 21H6.22461C5.99254 21 5.76999 20.9078 5.60589 20.7437C5.4418 20.5796 5.34961 20.3571 5.34961 20.125V8.60016C5.63057 8.69975 5.92652 8.75043 6.22461 8.75H23.7246V21ZM18.4746 14.4375C18.4746 14.1779 18.5516 13.9242 18.6958 13.7083C18.84 13.4925 19.045 13.3242 19.2848 13.2249C19.5247 13.1256 19.7886 13.0996 20.0432 13.1502C20.2978 13.2009 20.5316 13.3259 20.7152 13.5094C20.8987 13.693 21.0237 13.9268 21.0744 14.1814C21.125 14.436 21.099 14.6999 20.9997 14.9398C20.9004 15.1796 20.7321 15.3846 20.5163 15.5288C20.3005 15.673 20.0467 15.75 19.7871 15.75C19.439 15.75 19.1052 15.6117 18.859 15.3656C18.6129 15.1194 18.4746 14.7856 18.4746 14.4375Z" fill="#505052"/>
</svg>
