<svg width="29" height="28" viewBox="0 0 29 28" fill="none" xmlns="http://www.w3.org/2000/svg">
<path opacity="0.2" d="M23.4492 4.375H5.94922C5.71715 4.375 5.49459 4.46719 5.3305 4.63128C5.16641 4.79538 5.07422 5.01794 5.07422 5.25V22.75C5.07422 22.9821 5.16641 23.2046 5.3305 23.3687C5.49459 23.5328 5.71715 23.625 5.94922 23.625H23.4492C23.6813 23.625 23.9038 23.5328 24.0679 23.3687C24.232 23.2046 24.3242 22.9821 24.3242 22.75V5.25C24.3242 5.01794 24.232 4.79538 24.0679 4.63128C23.9038 4.46719 23.6813 4.375 23.4492 4.375ZM7.01891 23.625C7.41553 21.8848 8.39153 20.331 9.78694 19.2181C11.1824 18.1053 12.9144 17.4995 14.6992 17.5C13.8339 17.5 12.9881 17.2434 12.2686 16.7627C11.5491 16.2819 10.9884 15.5987 10.6572 14.7992C10.3261 13.9998 10.2395 13.1201 10.4083 12.2715C10.5771 11.4228 10.9938 10.6433 11.6056 10.0314C12.2175 9.41955 12.997 9.00287 13.8457 8.83406C14.6944 8.66525 15.574 8.75189 16.3735 9.08303C17.1729 9.41416 17.8562 9.97492 18.3369 10.6944C18.8176 11.4138 19.0742 12.2597 19.0742 13.125C19.0742 14.2853 18.6133 15.3981 17.7928 16.2186C16.9723 17.0391 15.8595 17.5 14.6992 17.5C16.484 17.4995 18.2161 18.1053 19.6115 19.2181C21.0069 20.331 21.9829 21.8848 22.3795 23.625H7.01891Z" fill="#505052"/>
<path d="M23.4492 3.5H5.94922C5.48509 3.5 5.03997 3.68437 4.71178 4.01256C4.38359 4.34075 4.19922 4.78587 4.19922 5.25V22.75C4.19922 23.2141 4.38359 23.6592 4.71178 23.9874C5.03997 24.3156 5.48509 24.5 5.94922 24.5H23.4492C23.9133 24.5 24.3585 24.3156 24.6867 23.9874C25.0148 23.6592 25.1992 23.2141 25.1992 22.75V5.25C25.1992 4.78587 25.0148 4.34075 24.6867 4.01256C24.3585 3.68437 23.9133 3.5 23.4492 3.5ZM11.1992 13.125C11.1992 12.4328 11.4045 11.7561 11.7891 11.1805C12.1737 10.6049 12.7203 10.1563 13.3598 9.89142C13.9994 9.62651 14.7031 9.5572 15.382 9.69225C16.061 9.8273 16.6846 10.1606 17.1741 10.6501C17.6636 11.1396 17.9969 11.7633 18.132 12.4422C18.267 13.1211 18.1977 13.8249 17.9328 14.4644C17.6679 15.1039 17.2193 15.6506 16.6437 16.0351C16.0681 16.4197 15.3915 16.625 14.6992 16.625C13.771 16.625 12.8807 16.2563 12.2243 15.5999C11.568 14.9435 11.1992 14.0533 11.1992 13.125ZM8.21 22.75C8.65814 21.6479 9.37794 20.6771 10.3023 19.9281C11.5474 18.9231 13.0992 18.3749 14.6992 18.3749C16.2993 18.3749 17.8511 18.9231 19.0961 19.9281C20.0205 20.6771 20.7403 21.6479 21.1884 22.75H8.21ZM23.4492 22.75H23.0478C22.6588 21.5113 21.9987 20.3749 21.1153 19.4234C20.2319 18.4719 19.1476 17.7293 17.9411 17.2495C18.8 16.5752 19.4273 15.6499 19.7356 14.6023C20.0439 13.5547 20.0179 12.4371 19.6612 11.405C19.3045 10.3729 18.6348 9.47775 17.7454 8.84415C16.856 8.21054 15.7912 7.87003 14.6992 7.87003C13.6072 7.87003 12.5424 8.21054 11.653 8.84415C10.7636 9.47775 10.094 10.3729 9.73725 11.405C9.38052 12.4371 9.3545 13.5547 9.66281 14.6023C9.97112 15.6499 10.5984 16.5752 11.4573 17.2495C10.2509 17.7293 9.16652 18.4719 8.28315 19.4234C7.39977 20.3749 6.73959 21.5113 6.35062 22.75H5.94922V5.25H23.4492V22.75Z" fill="#505052"/>
</svg>
