<svg width="29" height="28" viewBox="0 0 29 28" fill="none" xmlns="http://www.w3.org/2000/svg">
<path opacity="0.2" d="M24.125 5.25V16.625C24.125 16.8571 24.0328 17.0796 23.8687 17.2437C23.7046 17.4078 23.4821 17.5 23.25 17.5H18.875V22.75C18.875 22.9821 18.7828 23.2046 18.6187 23.3687C18.4546 23.5328 18.2321 23.625 18 23.625H5.75C5.51794 23.625 5.29538 23.5328 5.13128 23.3687C4.96719 23.2046 4.875 22.9821 4.875 22.75V11.375C4.875 11.1429 4.96719 10.9204 5.13128 10.7563C5.29538 10.5922 5.51794 10.5 5.75 10.5H10.125V5.25C10.125 5.01794 10.2172 4.79538 10.3813 4.63128C10.5454 4.46719 10.7679 4.375 11 4.375H23.25C23.4821 4.375 23.7046 4.46719 23.8687 4.63128C24.0328 4.79538 24.125 5.01794 24.125 5.25Z" fill="#505052"/>
<path d="M25 5.25V16.625C25 17.0891 24.8156 17.5342 24.4874 17.8624C24.1592 18.1906 23.7141 18.375 23.25 18.375H11.362L12.4941 19.5059C12.5754 19.5872 12.6398 19.6837 12.6838 19.79C12.7278 19.8962 12.7505 20.01 12.7505 20.125C12.7505 20.24 12.7278 20.3538 12.6838 20.46C12.6398 20.5663 12.5754 20.6628 12.4941 20.7441C12.4128 20.8254 12.3163 20.8898 12.21 20.9338C12.1038 20.9778 11.99 21.0005 11.875 21.0005C11.76 21.0005 11.6462 20.9778 11.54 20.9338C11.4337 20.8898 11.3372 20.8254 11.2559 20.7441L8.63094 18.1191C8.54958 18.0378 8.48504 17.9413 8.44101 17.8351C8.39698 17.7288 8.37431 17.615 8.37431 17.5C8.37431 17.385 8.39698 17.2712 8.44101 17.1649C8.48504 17.0587 8.54958 16.9622 8.63094 16.8809L11.2559 14.2559C11.4201 14.0918 11.6428 13.9995 11.875 13.9995C12.1072 13.9995 12.3299 14.0918 12.4941 14.2559C12.6582 14.4201 12.7505 14.6428 12.7505 14.875C12.7505 15.1072 12.6582 15.3299 12.4941 15.4941L11.362 16.625H23.25V5.25H11V6.125C11 6.35706 10.9078 6.57962 10.7437 6.74372C10.5796 6.90781 10.3571 7 10.125 7C9.89294 7 9.67038 6.90781 9.50628 6.74372C9.34219 6.57962 9.25 6.35706 9.25 6.125V5.25C9.25 4.78587 9.43437 4.34075 9.76256 4.01256C10.0908 3.68437 10.5359 3.5 11 3.5H23.25C23.7141 3.5 24.1592 3.68437 24.4874 4.01256C24.8156 4.34075 25 4.78587 25 5.25ZM18.875 21C18.6429 21 18.4204 21.0922 18.2563 21.2563C18.0922 21.4204 18 21.6429 18 21.875V22.75H5.75V11.375H17.638L16.5059 12.5059C16.3418 12.6701 16.2495 12.8928 16.2495 13.125C16.2495 13.3572 16.3418 13.5799 16.5059 13.7441C16.6701 13.9082 16.8928 14.0005 17.125 14.0005C17.3572 14.0005 17.5799 13.9082 17.7441 13.7441L20.3691 11.1191C20.4504 11.0378 20.515 10.9413 20.559 10.8351C20.603 10.7288 20.6257 10.615 20.6257 10.5C20.6257 10.385 20.603 10.2712 20.559 10.1649C20.515 10.0587 20.4504 9.9622 20.3691 9.88094L17.7441 7.25594C17.5799 7.09175 17.3572 6.99951 17.125 6.99951C16.8928 6.99951 16.6701 7.09175 16.5059 7.25594C16.3418 7.42012 16.2495 7.64281 16.2495 7.875C16.2495 8.10719 16.3418 8.32988 16.5059 8.49406L17.638 9.625H5.75C5.28587 9.625 4.84075 9.80937 4.51256 10.1376C4.18437 10.4658 4 10.9109 4 11.375V22.75C4 23.2141 4.18437 23.6592 4.51256 23.9874C4.84075 24.3156 5.28587 24.5 5.75 24.5H18C18.4641 24.5 18.9092 24.3156 19.2374 23.9874C19.5656 23.6592 19.75 23.2141 19.75 22.75V21.875C19.75 21.6429 19.6578 21.4204 19.4937 21.2563C19.3296 21.0922 19.1071 21 18.875 21Z" fill="#505052"/>
</svg>
