<svg width="20" height="20" viewBox="0 0 20 20" fill="none" xmlns="http://www.w3.org/2000/svg">
<path opacity="0.2" d="M8.125 13.125C8.125 13.7431 7.94172 14.3473 7.59834 14.8612C7.25496 15.3751 6.76691 15.7756 6.19589 16.0121C5.62487 16.2486 4.99653 16.3105 4.39034 16.19C3.78415 16.0694 3.22733 15.7717 2.79029 15.3347C2.35325 14.8977 2.05563 14.3408 1.93505 13.7347C1.81447 13.1285 1.87635 12.5001 2.11288 11.9291C2.3494 11.3581 2.74994 10.87 3.26384 10.5267C3.77775 10.1833 4.38193 10 5 10C5.8288 10 6.62366 10.3292 7.20971 10.9153C7.79576 11.5013 8.125 12.2962 8.125 13.125ZM15 10C14.3819 10 13.7777 10.1833 13.2638 10.5267C12.7499 10.87 12.3494 11.3581 12.1129 11.9291C11.8764 12.5001 11.8145 13.1285 11.935 13.7347C12.0556 14.3408 12.3533 14.8977 12.7903 15.3347C13.2273 15.7717 13.7842 16.0694 14.3903 16.19C14.9965 16.3105 15.6249 16.2486 16.1959 16.0121C16.7669 15.7756 17.255 15.3751 17.5983 14.8612C17.9417 14.3473 18.125 13.7431 18.125 13.125C18.125 12.2962 17.7958 11.5013 17.2097 10.9153C16.6237 10.3292 15.8288 10 15 10Z" fill="#9A9A9C"/>
<path d="M18.5312 11.8648C18.4791 11.7191 18.4177 11.5769 18.3477 11.439L15.0984 4.04681C15.0677 3.97562 15.0237 3.91092 14.9688 3.85619C14.7366 3.62398 14.461 3.43978 14.1576 3.31411C13.8543 3.18844 13.5291 3.12375 13.2008 3.12375C12.8724 3.12375 12.5473 3.18844 12.2439 3.31411C11.9406 3.43978 11.665 3.62398 11.4328 3.85619C11.316 3.97312 11.2503 4.13155 11.25 4.29681V6.24994H8.75V4.29681C8.75007 4.21471 8.73395 4.13341 8.70259 4.05753C8.67122 3.98166 8.62521 3.91271 8.56719 3.85463C8.33503 3.62242 8.05941 3.43822 7.75606 3.31255C7.45271 3.18688 7.12757 3.12219 6.79922 3.12219C6.47087 3.12219 6.14573 3.18688 5.84238 3.31255C5.53903 3.43822 5.2634 3.62242 5.03125 3.85463C4.97631 3.90936 4.9323 3.97406 4.90156 4.04525L1.65234 11.4374C1.58226 11.5754 1.52094 11.7176 1.46875 11.8632C1.28477 12.378 1.21556 12.9268 1.26599 13.4712C1.31641 14.0155 1.48524 14.5423 1.76066 15.0145C2.03608 15.4867 2.41141 15.893 2.86038 16.205C3.30934 16.5169 3.82107 16.7269 4.35973 16.8202C4.89839 16.9135 5.45094 16.888 5.97867 16.7453C6.50641 16.6026 6.99657 16.3463 7.41482 15.9943C7.83307 15.6422 8.16929 15.203 8.39993 14.7074C8.63057 14.2117 8.75005 13.6716 8.75 13.1249V7.49994H11.25V13.1249C11.2497 13.6717 11.369 14.2119 11.5995 14.7077C11.83 15.2035 12.1661 15.6429 12.5843 15.9951C13.0025 16.3473 13.4926 16.6038 14.0204 16.7466C14.5481 16.8894 15.1008 16.9151 15.6395 16.8219C16.1782 16.7287 16.6901 16.5187 17.1391 16.2069C17.5882 15.895 17.9636 15.4887 18.2391 15.0164C18.5146 14.5441 18.6835 14.0173 18.734 13.4729C18.7845 12.9285 18.7153 12.3796 18.5312 11.8648ZM5.99297 4.66791C6.20134 4.49246 6.46133 4.38988 6.73337 4.37577C7.0054 4.36167 7.2746 4.43682 7.5 4.58978V10.3328C7.01203 9.89459 6.41748 9.59236 5.77592 9.45634C5.13436 9.32032 4.46832 9.35529 3.84453 9.55775L5.99297 4.66791ZM5 15.6249C4.50555 15.6249 4.0222 15.4783 3.61107 15.2036C3.19995 14.9289 2.87952 14.5385 2.6903 14.0816C2.50108 13.6248 2.45157 13.1222 2.54804 12.6372C2.6445 12.1523 2.8826 11.7068 3.23223 11.3572C3.58186 11.0075 4.02732 10.7694 4.51227 10.673C4.99723 10.5765 5.49989 10.626 5.95671 10.8152C6.41352 11.0045 6.80397 11.3249 7.07867 11.736C7.35338 12.1471 7.5 12.6305 7.5 13.1249C7.5 13.788 7.23661 14.4239 6.76777 14.8927C6.29893 15.3615 5.66304 15.6249 5 15.6249ZM12.5 4.589C12.7254 4.43604 12.9946 4.36089 13.2666 4.37499C13.5387 4.3891 13.7987 4.49168 14.007 4.66713L16.1555 9.55619C15.5316 9.35383 14.8655 9.31899 14.224 9.45514C13.5824 9.5913 12.9879 9.89367 12.5 10.332V4.589ZM15 15.6249C14.5055 15.6249 14.0222 15.4783 13.6111 15.2036C13.2 14.9289 12.8795 14.5385 12.6903 14.0816C12.5011 13.6248 12.4516 13.1222 12.548 12.6372C12.6445 12.1523 12.8826 11.7068 13.2322 11.3572C13.5819 11.0075 14.0273 10.7694 14.5123 10.673C14.9972 10.5765 15.4999 10.626 15.9567 10.8152C16.4135 11.0045 16.804 11.3249 17.0787 11.736C17.3534 12.1471 17.5 12.6305 17.5 13.1249C17.5 13.788 17.2366 14.4239 16.7678 14.8927C16.2989 15.3615 15.663 15.6249 15 15.6249Z" fill="#9A9A9C"/>
</svg>
