<svg width="29" height="28" viewBox="0 0 29 28" fill="none" xmlns="http://www.w3.org/2000/svg">
<path opacity="0.2" d="M25.3994 14C25.3994 16.0767 24.7836 18.1068 23.6298 19.8335C22.4761 21.5602 20.8362 22.906 18.9176 23.7007C16.999 24.4955 14.8878 24.7034 12.851 24.2982C10.8142 23.8931 8.94325 22.8931 7.4748 21.4246C6.00635 19.9562 5.00632 18.0852 4.60117 16.0484C4.19603 14.0116 4.40396 11.9004 5.19868 9.98182C5.9934 8.0632 7.33922 6.42332 9.06593 5.26957C10.7926 4.11581 12.8227 3.5 14.8994 3.5C17.6842 3.5 20.3549 4.60625 22.324 6.57538C24.2932 8.54451 25.3994 11.2152 25.3994 14Z" fill="#505052"/>
<path d="M14.8994 2.625C12.6497 2.625 10.4504 3.29213 8.57981 4.54203C6.7092 5.79193 5.25124 7.56847 4.39029 9.64698C3.52934 11.7255 3.30408 14.0126 3.74299 16.2192C4.18189 18.4257 5.26526 20.4525 6.85608 22.0433C8.4469 23.6342 10.4737 24.7175 12.6803 25.1564C14.8868 25.5953 17.1739 25.3701 19.2524 24.5091C21.331 23.6482 23.1075 22.1902 24.3574 20.3196C25.6073 18.449 26.2744 16.2498 26.2744 14C26.2709 10.9842 25.0714 8.09297 22.9389 5.9605C20.8064 3.82802 17.9152 2.62847 14.8994 2.625ZM24.4829 13.125H20.1264C19.9307 9.13172 18.3929 6.30766 17.1318 4.6375C19.0899 5.10772 20.8517 6.179 22.1702 7.70111C23.4887 9.22323 24.2978 11.1198 24.484 13.125H24.4829ZM11.4246 14.875H18.3743C18.1216 19.4261 15.9429 22.2152 14.8994 23.2969C13.8549 22.2141 11.6772 19.425 11.4246 14.875ZM11.4246 13.125C11.6772 8.57391 13.856 5.78484 14.8994 4.70312C15.944 5.78922 18.1216 8.57828 18.3743 13.125H11.4246ZM12.6671 4.6375C11.406 6.30766 9.86817 9.13172 9.67239 13.125H5.31489C5.50104 11.1198 6.3101 9.22323 7.62861 7.70111C8.94712 6.179 10.709 5.10772 12.6671 4.6375ZM5.31489 14.875H9.67239C9.87145 18.8683 11.406 21.6923 12.6671 23.3625C10.709 22.8923 8.94712 21.821 7.62861 20.2989C6.3101 18.7768 5.50104 16.8802 5.31489 14.875ZM17.1274 23.3625C18.3885 21.6923 19.923 18.8683 20.1221 14.875H24.4796C24.2937 16.8796 23.4853 18.7758 22.1676 20.2978C20.8499 21.8199 19.0891 22.8915 17.1318 23.3625H17.1274Z" fill="#505052"/>
</svg>
