<svg width="29" height="28" viewBox="0 0 29 28" fill="none" xmlns="http://www.w3.org/2000/svg">
<rect opacity="0.2" x="3.7998" y="3.5" width="21" height="20.125" rx="2" fill="#505052"/>
<path d="M23.0498 3.0625H5.5498C4.85361 3.0625 4.18593 3.33906 3.69365 3.83134C3.20137 4.32363 2.9248 4.99131 2.9248 5.6875V22.3125C2.9248 23.0087 3.20137 23.6764 3.69365 24.1687C4.18593 24.6609 4.85361 24.9375 5.5498 24.9375H23.0498C23.746 24.9375 24.4137 24.6609 24.906 24.1687C25.3982 23.6764 25.6748 23.0087 25.6748 22.3125V5.6875C25.6748 4.99131 25.3982 4.32363 24.906 3.83134C24.4137 3.33906 23.746 3.0625 23.0498 3.0625ZM23.9248 22.3125C23.9248 22.5446 23.8326 22.7671 23.6685 22.9312C23.5044 23.0953 23.2819 23.1875 23.0498 23.1875H5.5498C5.31774 23.1875 5.09518 23.0953 4.93109 22.9312C4.76699 22.7671 4.6748 22.5446 4.6748 22.3125V5.6875C4.6748 5.45544 4.76699 5.23288 4.93109 5.06878C5.09518 4.90469 5.31774 4.8125 5.5498 4.8125H23.0498C23.2819 4.8125 23.5044 4.90469 23.6685 5.06878C23.8326 5.23288 23.9248 5.45544 23.9248 5.6875V22.3125Z" fill="#505052"/>
<path d="M19.987 12.6875C20.2191 12.6875 20.4417 12.5953 20.6057 12.4312C20.7698 12.2671 20.862 12.0446 20.862 11.8125C20.862 11.5804 20.7698 11.3579 20.6057 11.1938C20.4417 11.0297 20.2191 10.9375 19.987 10.9375H10.2877L11.4208 9.80436C11.585 9.64018 11.6772 9.4175 11.6772 9.1853C11.6772 8.95311 11.585 8.73042 11.4208 8.56624C11.2566 8.40205 11.0339 8.30981 10.8017 8.30981C10.5695 8.30981 10.3468 8.40205 10.1827 8.56624L7.55765 11.1912C7.43452 11.3134 7.35046 11.4693 7.31614 11.6393C7.28181 11.8093 7.29878 11.9857 7.36488 12.146C7.43098 12.3063 7.54324 12.4434 7.68739 12.5398C7.83155 12.6362 8.0011 12.6876 8.17453 12.6875H19.987Z" fill="#505052"/>
<path d="M20.8623 15.75H9.0498C8.81774 15.75 8.59518 15.8422 8.43109 16.0063C8.26699 16.1704 8.1748 16.3929 8.1748 16.625C8.1748 16.8571 8.26699 17.0796 8.43109 17.2437C8.59518 17.4078 8.81774 17.5 9.0498 17.5H18.7492L17.6161 18.6331C17.4519 18.7973 17.3596 19.02 17.3596 19.2522C17.3596 19.4844 17.4519 19.7071 17.6161 19.8712C17.7802 20.0354 18.0029 20.1277 18.2351 20.1277C18.4673 20.1277 18.69 20.0354 18.8542 19.8712L21.4792 17.2462C21.6023 17.1241 21.6864 16.9682 21.7207 16.7982C21.755 16.6282 21.7381 16.4518 21.6719 16.2915C21.6058 16.1312 21.4936 15.9941 21.3494 15.8977C21.2053 15.8013 21.0357 15.7499 20.8623 15.75Z" fill="#505052"/>
</svg>
