<svg width="41" height="40" viewBox="0 0 41 40" fill="none" xmlns="http://www.w3.org/2000/svg">
<g clip-path="url(#clip0_501_19734)">
<g clip-path="url(#clip1_501_19734)">
<path d="M36.9843 11.7969H4.01562C2.07023 11.7969 0.5 13.3671 0.5 15.3125V24.6875C0.5 26.6327 2.07023 28.2031 4.01562 28.2031H36.9843C38.9297 28.2031 40.4999 26.6327 40.4999 24.6875V15.3125C40.4999 13.3671 38.9297 11.7969 36.9843 11.7969Z" fill="#D8F469"/>
<path d="M40.5 15.3125V24.6875C40.5 26.6327 38.9297 28.2031 36.9843 28.2031H20.5V11.7969H36.9843C38.9297 11.7969 40.5 13.3671 40.5 15.3125Z" fill="#93E300"/>
<path d="M23.664 21.5234C24.1327 21.9687 24.1327 22.7187 23.664 23.164C23.2187 23.6327 22.4688 23.6327 22.0234 23.164L20.5 21.664L18.9765 23.164C18.5312 23.6327 17.7813 23.6327 17.3359 23.164C16.8672 22.7187 16.8672 21.9687 17.3359 21.5234L18.8359 20L17.3359 18.4765C16.8672 18.0312 16.8672 17.2812 17.3359 16.8359C17.7812 16.3672 18.5311 16.3672 18.9765 16.8359L20.5 18.3359L22.0235 16.8359C22.4688 16.3672 23.2187 16.3672 23.664 16.8359C24.1328 17.2812 24.1328 18.0312 23.664 18.4765L22.1641 20L23.664 21.5234Z" fill="#00DA26"/>
<path d="M23.664 21.5233C24.1327 21.9686 24.1327 22.7186 23.664 23.1639C23.2187 23.6327 22.4688 23.6327 22.0234 23.1639L20.5 21.6639V18.3359L22.0235 16.8359C22.4688 16.3672 23.2187 16.3672 23.6641 16.8359C24.1328 17.2812 24.1328 18.0312 23.6641 18.4765L22.1641 19.9999L23.664 21.5233Z" fill="#00B44B"/>
<path d="M35.3827 21.5234C35.8515 21.9687 35.8515 22.7187 35.3827 23.164C34.9374 23.6327 34.1876 23.6327 33.7422 23.164L32.2187 21.664L30.6952 23.164C30.2499 23.6327 29.5001 23.6327 29.0547 23.164C28.5859 22.7187 28.5859 21.9687 29.0547 21.5234L30.5546 20L29.0547 18.4765C28.5859 18.0312 28.5859 17.2812 29.0547 16.8359C29.5 16.3672 30.2498 16.3672 30.6952 16.8359L32.2187 18.3359L33.7423 16.8359C34.1876 16.3672 34.9374 16.3672 35.3828 16.8359C35.8516 17.2812 35.8516 18.0312 35.3828 18.4765L33.8829 20L35.3827 21.5234Z" fill="#00DA26"/>
<path d="M35.3827 21.5233C35.8515 21.9686 35.8515 22.7186 35.3827 23.1639C34.9374 23.6327 34.1876 23.6327 33.7422 23.1639L32.2188 21.6639V18.3359L33.7423 16.8359C34.1876 16.3672 34.9374 16.3672 35.3828 16.8359C35.8516 17.2812 35.8516 18.0312 35.3828 18.4765L33.8829 19.9999L35.3827 21.5233Z" fill="#00B44B"/>
<path d="M11.9452 21.5234C12.414 21.9687 12.414 22.7187 11.9452 23.164C11.4999 23.6327 10.7501 23.6327 10.3047 23.164L8.78124 21.664L7.25773 23.164C6.81242 23.6327 6.06258 23.6327 5.61719 23.164C5.14844 22.7187 5.14844 21.9687 5.61719 21.5234L7.11711 20L5.61719 18.4765C5.14844 18.0312 5.14844 17.2812 5.61719 16.8359C6.0625 16.3672 6.81234 16.3672 7.25773 16.8359L8.78124 18.3359L10.3048 16.8359C10.7501 16.3672 11.4999 16.3672 11.9453 16.8359C12.414 17.2812 12.414 18.0312 11.9453 18.4765L10.4454 20L11.9452 21.5234Z" fill="#00DA26"/>
<path d="M11.9452 21.5233C12.414 21.9686 12.414 22.7186 11.9452 23.1639C11.4999 23.6327 10.7501 23.6327 10.3047 23.1639L8.78125 21.6639V18.3359L10.3048 16.8359C10.7501 16.3672 11.4999 16.3672 11.9453 16.8359C12.4141 17.2812 12.4141 18.0312 11.9453 18.4765L10.4454 19.9999L11.9452 21.5233Z" fill="#00B44B"/>
</g>
</g>
<defs>
<clipPath id="clip0_501_19734">
<rect width="40" height="40" fill="white" transform="translate(0.5)"/>
</clipPath>
<clipPath id="clip1_501_19734">
<rect width="39.9999" height="39.9999" fill="white" transform="translate(0.5)"/>
</clipPath>
</defs>
</svg>
