<svg width="41" height="40" viewBox="0 0 41 40" fill="none" xmlns="http://www.w3.org/2000/svg">
<g clip-path="url(#clip0_595_6795)">
<path d="M12.2647 20H0.5V38.8235H20.5L21.2843 29.4379L20.5 20H12.2647Z" fill="#D8F469"/>
<path d="M40.5 20H28.7353H20.5V38.8235H40.5V20Z" fill="#93E300"/>
<path d="M14.6177 7.05887V10.5883L15.7941 11.3726L16.9706 10.5883V7.05887C16.9706 5.11283 18.5538 3.52945 20.5 3.52945L21.2843 2.35298L20.5 1.17651C17.2565 1.17651 14.6177 3.81534 14.6177 7.05887Z" fill="#D8F469"/>
<path d="M20.5 1.17651V3.52945C22.4462 3.52945 24.0294 5.11283 24.0294 7.05887V10.5883L25.2582 11.3726L26.3824 10.5883V7.05887C26.3824 3.81534 23.7435 1.17651 20.5 1.17651Z" fill="#93E300"/>
<path d="M12.2646 10.5884V20.0001V22.3531H20.4999L21.2843 15.8172L20.4999 10.5884H12.2646Z" fill="#00B44B"/>
<path d="M28.7353 10.5884H20.5V22.3531H28.7353V17.6472L27.951 16.4707L28.7353 15.2943V10.5884Z" fill="#03A346"/>
<path d="M20.5 15.2942H28.7353V17.6471H20.5V15.2942Z" fill="#93E300"/>
<path d="M11.5733 27.2598L9.90956 28.9235L8.2458 27.2598L6.58203 28.9235L8.2458 30.5873L6.58203 32.2511L8.2458 33.9148L9.90956 32.2511L11.5733 33.9148L13.237 32.2511L11.5733 30.5873L13.237 28.9235L11.5733 27.2598Z" fill="#00DA26"/>
<path d="M18.8342 27.2598L17.1704 28.9235L18.8342 30.5873L17.1704 32.2511L18.8342 33.9148L20.4979 32.2511L21.2823 30.5873L20.4979 28.9235L18.8342 27.2598Z" fill="#00DA26"/>
<path d="M23.8255 28.9235L22.1618 27.2598L20.498 28.9235V32.2511L22.1618 33.9148L23.8255 32.2511L22.1618 30.5873L23.8255 28.9235Z" fill="#00B44B"/>
<path d="M34.4138 28.9235L32.7501 27.2598L31.0863 28.9235L29.4226 27.2598L27.7588 28.9235L29.4226 30.5873L27.7588 32.2511L29.4226 33.9148L31.0863 32.2511L32.7501 33.9148L34.4138 32.2511L32.7501 30.5873L34.4138 28.9235Z" fill="#00B44B"/>
</g>
<defs>
<clipPath id="clip0_595_6795">
<rect width="40" height="40" fill="white" transform="translate(0.5)"/>
</clipPath>
</defs>
</svg>
