<svg width="41" height="40" viewBox="0 0 41 40" fill="none" xmlns="http://www.w3.org/2000/svg">
<g clip-path="url(#clip0_501_18787)">
<g clip-path="url(#clip1_501_18787)">
<path d="M40.5 20C40.5 25.8533 37.985 31.1194 33.9775 34.7772C30.4219 38.0212 25.6923 40 20.5 40C15.3077 40 10.5781 38.0212 7.02252 34.7772C3.01495 31.1194 0.5 25.8533 0.5 20C0.5 8.95477 9.45477 0 20.5 0C31.5452 0 40.5 8.95477 40.5 20Z" fill="#067744"/>
<path d="M40.5 20C40.5 25.8533 37.985 31.1194 33.9775 34.7772C30.4219 38.0212 25.6923 40 20.5 40V0C31.5452 0 40.5 8.95477 40.5 20Z" fill="#025731"/>
<path d="M33.9774 34.6979V34.7775C30.4218 38.0215 25.6922 40.0003 20.4999 40.0003C15.3077 40.0003 10.5781 38.0215 7.02246 34.7775V34.6979C7.02246 28.9041 10.6977 23.9517 15.8399 22.052C17.2922 21.5143 18.8624 21.2207 20.4999 21.2207C22.1375 21.2207 23.7076 21.5143 25.1609 22.052C30.3031 23.9526 33.9774 28.9041 33.9774 34.6979Z" fill="#00DA26"/>
<path d="M33.9775 34.6979V34.7775C30.4219 38.0215 25.6923 40.0003 20.5 40.0003V21.2207C22.1376 21.2207 23.7077 21.5143 25.1609 22.052C30.3032 23.9526 33.9775 28.9041 33.9775 34.6979Z" fill="#00B44B"/>
<path d="M28.7665 15.2282C28.7665 19.786 25.0589 23.4948 20.5002 23.4948C15.9424 23.4948 12.2339 19.786 12.2339 15.2282C12.2339 10.6704 15.9424 6.96191 20.5002 6.96191C25.0589 6.96191 28.7665 10.6704 28.7665 15.2282Z" fill="#D8F469"/>
<path d="M28.7663 15.2282C28.7663 19.786 25.0587 23.4948 20.5 23.4948V6.96191C25.0587 6.96191 28.7663 10.6704 28.7663 15.2282Z" fill="#93E300"/>
</g>
</g>
<defs>
<clipPath id="clip0_501_18787">
<rect width="40" height="40" fill="white" transform="translate(0.5)"/>
</clipPath>
<clipPath id="clip1_501_18787">
<rect width="40" height="40" fill="white" transform="translate(0.5)"/>
</clipPath>
</defs>
</svg>
