<svg width="33" height="32" viewBox="0 0 33 32" fill="none" xmlns="http://www.w3.org/2000/svg">
<path opacity="0.2" d="M21.625 24H8.625V11L21.625 24Z" fill="white"/>
<path d="M25.3325 7.29255C25.2396 7.19958 25.1293 7.12582 25.0079 7.07549C24.8865 7.02517 24.7564 6.99927 24.625 6.99927C24.4936 6.99927 24.3635 7.02517 24.2421 7.07549C24.1207 7.12582 24.0104 7.19958 23.9175 7.29255L15.125 16.0863L9.3325 10.2926C9.19265 10.1525 9.01439 10.0572 8.82031 10.0185C8.62622 9.97987 8.42503 9.99968 8.24221 10.0754C8.05939 10.1512 7.90315 10.2795 7.79328 10.4441C7.68341 10.6087 7.62484 10.8022 7.625 11.0001V24.0001C7.625 24.2653 7.73036 24.5196 7.91789 24.7072C8.10543 24.8947 8.35978 25.0001 8.625 25.0001H21.625C21.8229 25.0002 22.0164 24.9416 22.181 24.8318C22.3456 24.7219 22.4739 24.5657 22.5496 24.3828C22.6254 24.2 22.6452 23.9988 22.6065 23.8047C22.5679 23.6107 22.4725 23.4324 22.3325 23.2926L16.5387 17.5001L25.3325 8.70755C25.4255 8.61468 25.4992 8.50439 25.5496 8.38299C25.5999 8.2616 25.6258 8.13147 25.6258 8.00005C25.6258 7.86864 25.5999 7.73851 25.5496 7.61711C25.4992 7.49572 25.4255 7.38543 25.3325 7.29255ZM9.625 23.0001V13.4138L14.4175 18.2063L19.2113 23.0001H9.625Z" fill="white"/>
</svg>
