<svg width="12" height="12" viewBox="0 0 12 12" fill="none" xmlns="http://www.w3.org/2000/svg">
<path opacity="0.2" d="M10.7372 5.09956L8.4544 7.06831L9.1519 10.0116C9.17034 10.0872 9.16594 10.1666 9.13927 10.2398C9.11259 10.3129 9.06483 10.3765 9.00202 10.4225C8.93921 10.4685 8.86417 10.4949 8.78639 10.4982C8.70861 10.5016 8.63158 10.4818 8.56503 10.4414L6.00003 8.86362L3.43503 10.441C3.36847 10.4814 3.29144 10.5011 3.21366 10.4978C3.13588 10.4944 3.06084 10.468 2.99803 10.422C2.93523 10.376 2.88746 10.3124 2.86079 10.2393C2.83411 10.1662 2.82971 10.0868 2.84815 10.0111L3.54565 7.06784L1.26284 5.09909C1.20463 5.04798 1.16267 4.98095 1.14213 4.90627C1.12159 4.83158 1.12337 4.75252 1.14725 4.67884C1.17113 4.60515 1.21606 4.54008 1.2765 4.49164C1.33695 4.4432 1.41025 4.41353 1.48737 4.40628L4.48315 4.16253L5.63721 1.36878C5.66663 1.2967 5.71686 1.23502 5.78147 1.1916C5.84609 1.14819 5.92218 1.125 6.00003 1.125C6.07787 1.125 6.15396 1.14819 6.21858 1.1916C6.2832 1.23502 6.33342 1.2967 6.36284 1.36878L7.5169 4.16253L10.5127 4.40628C10.5899 4.41344 10.6633 4.44309 10.7239 4.49156C10.7844 4.54002 10.8294 4.60518 10.8533 4.67896C10.8772 4.75274 10.8789 4.8319 10.8583 4.90666C10.8377 4.98142 10.7956 5.04848 10.7372 5.09956Z" fill="#008E41"/>
<path d="M11.2117 4.559C11.1648 4.41487 11.0763 4.28784 10.9574 4.19391C10.8384 4.09999 10.6944 4.04337 10.5433 4.03119L7.77765 3.80806L6.70984 1.22572C6.65209 1.08501 6.55381 0.964645 6.42748 0.879937C6.30115 0.795229 6.15249 0.75 6.00039 0.75C5.84829 0.75 5.69962 0.795229 5.5733 0.879937C5.44697 0.964645 5.34868 1.08501 5.29093 1.22572L4.22406 3.80759L1.45703 4.03119C1.30571 4.04398 1.16152 4.10115 1.04255 4.19553C0.923572 4.28991 0.835094 4.4173 0.788198 4.56174C0.741302 4.70618 0.738074 4.86125 0.778919 5.00752C0.819764 5.15379 0.902864 5.28475 1.01781 5.384L3.12718 7.20415L2.48453 9.92572C2.44859 10.0736 2.45739 10.2288 2.50981 10.3716C2.56224 10.5145 2.65592 10.6385 2.77898 10.728C2.90203 10.8175 3.04891 10.8684 3.20095 10.8743C3.353 10.8802 3.50337 10.8408 3.63297 10.761L6.00015 9.30415L8.36875 10.761C8.49839 10.8398 8.64845 10.8785 8.80003 10.8722C8.9516 10.8659 9.09792 10.8148 9.22056 10.7255C9.3432 10.6362 9.43666 10.5126 9.4892 10.3703C9.54173 10.228 9.55098 10.0733 9.51578 9.92572L8.87078 7.20369L10.9802 5.38353C11.096 5.28445 11.1799 5.1532 11.2211 5.00642C11.2623 4.85964 11.2591 4.70392 11.2117 4.559ZM10.4927 4.8154L8.20984 6.78415C8.15778 6.82903 8.11906 6.88734 8.09789 6.95273C8.07673 7.01812 8.07394 7.08807 8.08984 7.15494L8.78734 10.0987C8.78915 10.1027 8.78933 10.1073 8.78784 10.1115C8.78636 10.1157 8.78333 10.1192 8.77937 10.1212C8.77093 10.1277 8.76859 10.1263 8.76156 10.1212L6.19656 8.54384C6.13749 8.50752 6.0695 8.48829 6.00015 8.48829C5.93081 8.48829 5.86282 8.50752 5.80375 8.54384L3.23875 10.1221C3.23172 10.1263 3.22984 10.1277 3.22093 10.1221C3.21698 10.1201 3.21395 10.1166 3.21246 10.1125C3.21098 10.1083 3.21116 10.1037 3.21297 10.0996L3.91047 7.15587C3.92636 7.08901 3.92358 7.01906 3.90241 6.95367C3.88125 6.88828 3.84253 6.82996 3.79047 6.78509L1.50765 4.81634C1.50203 4.81165 1.49687 4.80744 1.50156 4.7929C1.50625 4.77837 1.51 4.78025 1.51703 4.77931L4.51328 4.53744C4.582 4.53154 4.64777 4.50681 4.70334 4.46595C4.75892 4.4251 4.80215 4.36971 4.82828 4.30587L5.98234 1.51165C5.98609 1.50368 5.9875 1.49993 5.99875 1.49993C6.01 1.49993 6.0114 1.50368 6.01515 1.51165L7.17203 4.30587C7.1984 4.36973 7.24191 4.42506 7.29774 4.46576C7.35358 4.50645 7.41957 4.53093 7.48843 4.5365L10.4847 4.77837C10.4917 4.77837 10.4959 4.77837 10.5002 4.79197C10.5044 4.80556 10.5002 4.81072 10.4927 4.8154Z" fill="#008E41"/>
</svg>
