<svg width="20" height="20" viewBox="0 0 20 20" fill="none" xmlns="http://www.w3.org/2000/svg">
<path opacity="0.2" d="M15 8.75C15 9.98613 14.6334 11.1945 13.9467 12.2223C13.2599 13.2501 12.2838 14.0512 11.1418 14.5242C9.99974 14.9973 8.74307 15.1211 7.53069 14.8799C6.31831 14.6388 5.20466 14.0435 4.33059 13.1694C3.45651 12.2953 2.86125 11.1817 2.62009 9.96931C2.37894 8.75693 2.50271 7.50027 2.97576 6.35823C3.4488 5.21619 4.24988 4.24007 5.27769 3.55331C6.3055 2.86656 7.51387 2.5 8.75 2.5C9.57076 2.5 10.3835 2.66166 11.1418 2.97575C11.9001 3.28984 12.5891 3.75022 13.1694 4.33058C13.7498 4.91095 14.2102 5.59994 14.5243 6.35823C14.8383 7.11651 15 7.92924 15 8.75Z" fill="white"/>
<path d="M17.9424 17.0579L14.0315 13.1469C15.1673 11.7847 15.7341 10.0371 15.6142 8.26765C15.4943 6.49816 14.6967 4.84303 13.3875 3.64659C12.0783 2.45015 10.3583 1.80451 8.58515 1.844C6.81204 1.88348 5.12241 2.60505 3.86777 3.85858C2.61313 5.11212 1.89007 6.8011 1.84902 8.57418C1.80796 10.3473 2.45208 12.0679 3.64736 13.3782C4.84265 14.6884 6.49707 15.4874 8.26645 15.6089C10.0358 15.7304 11.7839 15.1651 13.1471 14.0305L17.0581 17.9422C17.1161 18.0003 17.1851 18.0464 17.2609 18.0778C17.3368 18.1092 17.4181 18.1254 17.5002 18.1254C17.5824 18.1254 17.6637 18.1092 17.7396 18.0778C17.8154 18.0464 17.8844 18.0003 17.9424 17.9422C18.0005 17.8842 18.0466 17.8152 18.078 17.7393C18.1094 17.6635 18.1256 17.5822 18.1256 17.5C18.1256 17.4179 18.1094 17.3366 18.078 17.2607C18.0466 17.1849 18.0005 17.1159 17.9424 17.0579ZM3.12524 8.75004C3.12524 7.63752 3.45514 6.54998 4.07323 5.62496C4.69131 4.69993 5.56981 3.97896 6.59765 3.55322C7.62548 3.12747 8.75648 3.01608 9.84763 3.23312C10.9388 3.45016 11.941 3.98589 12.7277 4.77256C13.5144 5.55923 14.0501 6.56151 14.2672 7.65266C14.4842 8.7438 14.3728 9.8748 13.9471 10.9026C13.5213 11.9305 12.8004 12.809 11.8753 13.4271C10.9503 14.0451 9.86276 14.375 8.75024 14.375C7.25891 14.3734 5.82913 13.7802 4.77459 12.7257C3.72006 11.6712 3.1269 10.2414 3.12524 8.75004Z" fill="white"/>
</svg>
