<svg width="33" height="32" viewBox="0 0 33 32" fill="none" xmlns="http://www.w3.org/2000/svg">
<path opacity="0.2" d="M27.375 6V19C27.375 19.2652 27.2696 19.5196 27.0821 19.7071C26.8946 19.8946 26.6402 20 26.375 20H21.375V26C21.375 26.2652 21.2696 26.5196 21.0821 26.7071C20.8946 26.8946 20.6402 27 20.375 27H6.375C6.10978 27 5.85543 26.8946 5.66789 26.7071C5.48036 26.5196 5.375 26.2652 5.375 26V13C5.375 12.7348 5.48036 12.4804 5.66789 12.2929C5.85543 12.1054 6.10978 12 6.375 12H11.375V6C11.375 5.73478 11.4804 5.48043 11.6679 5.29289C11.8554 5.10536 12.1098 5 12.375 5H26.375C26.6402 5 26.8946 5.10536 27.0821 5.29289C27.2696 5.48043 27.375 5.73478 27.375 6Z" fill="white"/>
<path d="M28.375 6V19C28.375 19.5304 28.1643 20.0391 27.7892 20.4142C27.4141 20.7893 26.9054 21 26.375 21H12.7887L14.0825 22.2925C14.1754 22.3854 14.2491 22.4957 14.2994 22.6171C14.3497 22.7385 14.3756 22.8686 14.3756 23C14.3756 23.1314 14.3497 23.2615 14.2994 23.3829C14.2491 23.5043 14.1754 23.6146 14.0825 23.7075C13.9896 23.8004 13.8793 23.8741 13.7579 23.9244C13.6365 23.9747 13.5064 24.0006 13.375 24.0006C13.2436 24.0006 13.1135 23.9747 12.9921 23.9244C12.8707 23.8741 12.7604 23.8004 12.6675 23.7075L9.6675 20.7075C9.57452 20.6146 9.50076 20.5043 9.45044 20.3829C9.40012 20.2615 9.37421 20.1314 9.37421 20C9.37421 19.8686 9.40012 19.7385 9.45044 19.6171C9.50076 19.4957 9.57452 19.3854 9.6675 19.2925L12.6675 16.2925C12.8551 16.1049 13.1096 15.9994 13.375 15.9994C13.6404 15.9994 13.8949 16.1049 14.0825 16.2925C14.2701 16.4801 14.3756 16.7346 14.3756 17C14.3756 17.2654 14.2701 17.5199 14.0825 17.7075L12.7887 19H26.375V6H12.375V7C12.375 7.26522 12.2696 7.51957 12.0821 7.70711C11.8946 7.89464 11.6402 8 11.375 8C11.1098 8 10.8554 7.89464 10.6679 7.70711C10.4804 7.51957 10.375 7.26522 10.375 7V6C10.375 5.46957 10.5857 4.96086 10.9608 4.58579C11.3359 4.21071 11.8446 4 12.375 4H26.375C26.9054 4 27.4141 4.21071 27.7892 4.58579C28.1643 4.96086 28.375 5.46957 28.375 6ZM21.375 24C21.1098 24 20.8554 24.1054 20.6679 24.2929C20.4804 24.4804 20.375 24.7348 20.375 25V26H6.375V13H19.9613L18.6675 14.2925C18.4799 14.4801 18.3744 14.7346 18.3744 15C18.3744 15.2654 18.4799 15.5199 18.6675 15.7075C18.8551 15.8951 19.1096 16.0006 19.375 16.0006C19.6404 16.0006 19.8949 15.8951 20.0825 15.7075L23.0825 12.7075C23.1755 12.6146 23.2492 12.5043 23.2996 12.3829C23.3499 12.2615 23.3758 12.1314 23.3758 12C23.3758 11.8686 23.3499 11.7385 23.2996 11.6171C23.2492 11.4957 23.1755 11.3854 23.0825 11.2925L20.0825 8.2925C19.8949 8.10486 19.6404 7.99944 19.375 7.99944C19.1096 7.99944 18.8551 8.10486 18.6675 8.2925C18.4799 8.48014 18.3744 8.73464 18.3744 9C18.3744 9.26536 18.4799 9.51986 18.6675 9.7075L19.9613 11H6.375C5.84457 11 5.33586 11.2107 4.96079 11.5858C4.58571 11.9609 4.375 12.4696 4.375 13V26C4.375 26.5304 4.58571 27.0391 4.96079 27.4142C5.33586 27.7893 5.84457 28 6.375 28H20.375C20.9054 28 21.4141 27.7893 21.7892 27.4142C22.1643 27.0391 22.375 26.5304 22.375 26V25C22.375 24.7348 22.2696 24.4804 22.0821 24.2929C21.8946 24.1054 21.6402 24 21.375 24Z" fill="white"/>
</svg>
