<svg width="33" height="32" viewBox="0 0 33 32" fill="none" xmlns="http://www.w3.org/2000/svg">
<path opacity="0.2" d="M24.875 8V21L11.875 8H24.875Z" fill="white"/>
<path d="M24.8746 7H11.8746C11.6767 6.99984 11.4832 7.05841 11.3186 7.16828C11.154 7.27815 11.0257 7.43439 10.95 7.61721C10.8742 7.80003 10.8544 8.00122 10.8931 8.19531C10.9317 8.38939 11.0271 8.56765 11.1671 8.7075L16.9608 14.5L8.16708 23.2925C8.07417 23.3854 8.00047 23.4957 7.95019 23.6171C7.8999 23.7385 7.87402 23.8686 7.87402 24C7.87402 24.1314 7.8999 24.2615 7.95019 24.3829C8.00047 24.5043 8.07417 24.6146 8.16708 24.7075C8.25999 24.8004 8.37029 24.8741 8.49168 24.9244C8.61308 24.9747 8.74318 25.0006 8.87458 25.0006C9.00597 25.0006 9.13608 24.9747 9.25748 24.9244C9.37887 24.8741 9.48917 24.8004 9.58208 24.7075L18.3746 15.9137L24.1671 21.7075C24.3069 21.8475 24.4852 21.9429 24.6793 21.9815C24.8734 22.0202 25.0745 22.0004 25.2574 21.9246C25.4402 21.8489 25.5964 21.7206 25.7063 21.556C25.8162 21.3914 25.8747 21.1979 25.8746 21V8C25.8746 7.73478 25.7692 7.48043 25.5817 7.29289C25.3942 7.10536 25.1398 7 24.8746 7ZM23.8746 18.5863L19.0821 13.7938L14.2883 9H23.8746V18.5863Z" fill="white"/>
</svg>
