<svg width="21" height="20" viewBox="0 0 21 20" fill="none" xmlns="http://www.w3.org/2000/svg">
<path d="M9.69254 13.3073C9.75065 13.3654 9.79674 13.4343 9.8282 13.5102C9.85965 13.5861 9.87584 13.6674 9.87584 13.7495C9.87584 13.8316 9.85965 13.913 9.8282 13.9889C9.79674 14.0647 9.75065 14.1337 9.69254 14.1917L7.19254 16.6917C7.13449 16.7498 7.06556 16.7959 6.98969 16.8274C6.91381 16.8588 6.83248 16.875 6.75035 16.875C6.66821 16.875 6.58688 16.8588 6.51101 16.8274C6.43514 16.7959 6.36621 16.7498 6.30816 16.6917L3.80816 14.1917C3.75009 14.1336 3.70403 14.0647 3.6726 13.9888C3.64118 13.913 3.625 13.8316 3.625 13.7495C3.625 13.6674 3.64118 13.5861 3.6726 13.5102C3.70403 13.4343 3.75009 13.3654 3.80816 13.3073C3.92544 13.1901 4.0845 13.1242 4.25035 13.1242C4.33247 13.1242 4.41379 13.1403 4.48966 13.1718C4.56553 13.2032 4.63447 13.2493 4.69253 13.3073L6.12535 14.7409V3.74952C6.12535 3.58375 6.1912 3.42478 6.30841 3.30757C6.42562 3.19036 6.58459 3.12452 6.75035 3.12452C6.91611 3.12452 7.07508 3.19036 7.19229 3.30757C7.3095 3.42478 7.37535 3.58375 7.37535 3.74952V14.7409L8.80816 13.3073C8.86621 13.2492 8.93514 13.2031 9.01101 13.1717C9.08688 13.1402 9.16821 13.124 9.25035 13.124C9.33248 13.124 9.41381 13.1402 9.48969 13.1717C9.56556 13.2031 9.63449 13.2492 9.69254 13.3073ZM17.1925 5.80733L14.6925 3.30733C14.6345 3.24922 14.5656 3.20312 14.4897 3.17167C14.4138 3.14021 14.3325 3.12402 14.2503 3.12402C14.1682 3.12402 14.0869 3.14021 14.011 3.17167C13.9351 3.20312 13.8662 3.24922 13.8082 3.30733L11.3082 5.80733C11.1909 5.9246 11.125 6.08366 11.125 6.24952C11.125 6.41537 11.1909 6.57443 11.3082 6.6917C11.4254 6.80898 11.5845 6.87486 11.7503 6.87486C11.9162 6.87486 12.0753 6.80898 12.1925 6.6917L13.6253 5.25811V16.2495C13.6253 16.4153 13.6912 16.5742 13.8084 16.6915C13.9256 16.8087 14.0846 16.8745 14.2503 16.8745C14.4161 16.8745 14.5751 16.8087 14.6923 16.6915C14.8095 16.5742 14.8753 16.4153 14.8753 16.2495V5.25811L16.3082 6.6917C16.4254 6.80898 16.5845 6.87486 16.7503 6.87486C16.9162 6.87486 17.0753 6.80898 17.1925 6.6917C17.3098 6.57443 17.3757 6.41537 17.3757 6.24952C17.3757 6.08366 17.3098 5.9246 17.1925 5.80733Z" fill="#0F0F10"/>
</svg>
