<svg width="24" height="24" viewBox="0 0 24 24" fill="none" xmlns="http://www.w3.org/2000/svg">
<rect opacity="0.2" x="3.5" y="3.5" width="17" height="16.25" rx="1.5" fill="white" stroke="white"/>
<path d="M19.5 2.625H4.5C3.90326 2.625 3.33097 2.86205 2.90901 3.28401C2.48705 3.70597 2.25 4.27826 2.25 4.875V19.125C2.25 19.7217 2.48705 20.294 2.90901 20.716C3.33097 21.1379 3.90326 21.375 4.5 21.375H19.5C20.0967 21.375 20.669 21.1379 21.091 20.716C21.5129 20.294 21.75 19.7217 21.75 19.125V4.875C21.75 4.27826 21.5129 3.70597 21.091 3.28401C20.669 2.86205 20.0967 2.625 19.5 2.625ZM20.25 19.125C20.25 19.3239 20.171 19.5147 20.0303 19.6553C19.8897 19.796 19.6989 19.875 19.5 19.875H4.5C4.30109 19.875 4.11032 19.796 3.96967 19.6553C3.82902 19.5147 3.75 19.3239 3.75 19.125V4.875C3.75 4.67609 3.82902 4.48532 3.96967 4.34467C4.11032 4.20402 4.30109 4.125 4.5 4.125H19.5C19.6989 4.125 19.8897 4.20402 20.0303 4.34467C20.171 4.48532 20.25 4.67609 20.25 4.875V19.125Z" fill="white"/>
<path d="M16.8746 10.875C17.0735 10.875 17.2643 10.796 17.405 10.6553C17.5456 10.5147 17.6246 10.3239 17.6246 10.125C17.6246 9.92606 17.5456 9.7353 17.405 9.59464C17.2643 9.45399 17.0735 9.37497 16.8746 9.37497H8.56087L9.53212 8.40372C9.67285 8.26299 9.75191 8.07212 9.75191 7.8731C9.75191 7.67408 9.67285 7.4832 9.53212 7.34247C9.39139 7.20174 9.20052 7.12268 9.0015 7.12268C8.80247 7.12268 8.6116 7.20174 8.47087 7.34247L6.22087 9.59247C6.11533 9.69715 6.04328 9.83083 6.01386 9.97654C5.98444 10.1222 5.99898 10.2734 6.05564 10.4108C6.1123 10.5483 6.20852 10.6658 6.33208 10.7484C6.45564 10.831 6.60097 10.8751 6.74962 10.875H16.8746Z" fill="white"/>
<path d="M17.625 13.5H7.5C7.30109 13.5 7.11032 13.579 6.96967 13.7197C6.82902 13.8603 6.75 14.0511 6.75 14.25C6.75 14.4489 6.82902 14.6397 6.96967 14.7803C7.11032 14.921 7.30109 15 7.5 15H15.8137L14.8425 15.9713C14.7018 16.112 14.6227 16.3029 14.6227 16.5019C14.6227 16.7009 14.7018 16.8918 14.8425 17.0325C14.9832 17.1732 15.1741 17.2523 15.3731 17.2523C15.5721 17.2523 15.763 17.1732 15.9037 17.0325L18.1537 14.7825C18.2593 14.6778 18.3313 14.5441 18.3608 14.3984C18.3902 14.2527 18.3756 14.1016 18.319 13.9641C18.2623 13.8267 18.1661 13.7092 18.0425 13.6266C17.919 13.5439 17.7736 13.4999 17.625 13.5Z" fill="white"/>
</svg>
