<svg width="25" height="24" viewBox="0 0 25 24" fill="none" xmlns="http://www.w3.org/2000/svg">
<g id="Logo/Whatsapp">
<path id="Vector" d="M12.7526 1.5H12.7474C6.95794 1.5 2.25 6.20925 2.25 12C2.25 14.2969 2.99025 16.4257 4.24894 18.1543L2.94038 22.0551L6.97631 20.7649C8.63663 21.8647 10.6172 22.5 12.7526 22.5C18.5421 22.5 23.25 17.7894 23.25 12C23.25 6.21056 18.5421 1.5 12.7526 1.5Z" fill="#4CAF50"/>
<path id="Vector_2" d="M18.9005 16.2794C18.6445 16.9861 17.6289 17.5722 16.8187 17.7434C16.2645 17.8588 15.5405 17.9509 13.1034 16.9628C9.9861 15.6997 7.97861 12.6019 7.82215 12.4009C7.67232 12.1999 6.5625 10.7605 6.5625 9.27188C6.5625 7.78324 7.33553 7.05837 7.64713 6.74716C7.90303 6.49171 8.32601 6.375 8.73175 6.375C8.86302 6.375 8.98103 6.38148 9.08711 6.38667C9.39871 6.39964 9.55517 6.41779 9.76069 6.89888C10.0166 7.50185 10.6398 8.99049 10.714 9.14351C10.7896 9.29652 10.8652 9.504 10.7591 9.70499C10.6597 9.91246 10.5722 10.0045 10.4157 10.1809C10.2592 10.3572 10.1107 10.4921 9.95428 10.6814C9.81107 10.8461 9.64931 11.0225 9.82964 11.3272C10.01 11.6254 10.6332 12.62 11.5507 13.4188C12.7348 14.4497 13.6948 14.7791 14.0382 14.9191C14.2941 15.0229 14.5991 14.9982 14.786 14.8037C15.0234 14.5534 15.3164 14.1385 15.6148 13.73C15.8269 13.437 16.0947 13.4007 16.3758 13.5044C16.6623 13.6016 18.1778 14.3343 18.4894 14.486C18.801 14.639 19.0065 14.7116 19.0821 14.84C19.1564 14.9684 19.1564 15.5714 18.9005 16.2794Z" fill="#FAFAFA"/>
</g>
</svg>
